<svg width="301" height="300" fill="none" xmlns="http://www.w3.org/2000/svg"><path d="M300.381 70.55c0-38.9-31.65-70.55-70.551-70.55s-70.551 31.65-70.551 70.55c0 38.902 31.65 70.552 70.551 70.552s70.551-31.65 70.551-70.551zM229.83 6.22c22.018 0 41.485 11.119 53.086 28.035a54.242 54.242 0 011.108 10.877c0 29.928-24.261 54.194-54.194 54.194-29.933 0-54.194-24.26-54.194-54.194 0-3.73.39-7.36 1.108-10.877C188.345 17.34 207.813 6.22 229.83 6.22zM70.55 0C31.65 0 0 31.65 0 70.55c0 38.902 31.65 70.552 70.55 70.552 38.902 0 70.552-31.65 70.552-70.551S109.452 0 70.551 0zm-6.186 134.58l-.094-49.614-21.452 43.624a63.467 63.467 0 01-7.559-4.284l15.946-39.34-31.195 25.342a64.844 64.844 0 01-4.789-6.972l21.272-18.37H7.85a64.372 64.372 0 01-1.63-14.415c0-35.473 28.858-64.33 64.33-64.33 35.474 0 64.332 28.857 64.332 64.33 0 4.953-.565 9.78-1.63 14.415h-29.247l21.672 18.71a65.25 65.25 0 01-4.821 6.923L89.299 84.961l16.072 39.652a63.401 63.401 0 01-7.575 4.196L76.228 84.961l-.093 49.668a65.025 65.025 0 01-5.59.247c-2.09 0-4.152-.104-6.187-.296h.006zm6.186 23.51C31.65 158.09 0 189.739 0 228.64c0 38.902 31.65 70.551 70.55 70.551 38.902 0 70.552-31.649 70.552-70.551 0-38.901-31.65-70.55-70.551-70.55zm0 134.881V164.31c35.474 0 64.332 28.858 64.332 64.33 0 35.473-28.858 64.331-64.331 64.331zM229.83 158.09c-38.901 0-70.551 31.649-70.551 70.55 0 38.902 31.65 70.551 70.551 70.551s70.551-31.649 70.551-70.551c0-38.901-31.65-70.55-70.551-70.55zm-4.289 134.733v-57.902h-59.734a64.276 64.276 0 01-.264-8.573h59.998v-61.89a65.413 65.413 0 014.289-.148c1.443 0 2.869.055 4.29.148v61.89h59.997c.027.762.044 1.525.044 2.292 0 2.118-.104 4.213-.307 6.281H234.12v57.902a65.443 65.443 0 01-4.29.148c-1.442 0-2.869-.055-4.289-.148z" fill="#0B0B0B"/></svg>