<svg width="320" height="60" fill="none" xmlns="http://www.w3.org/2000/svg"><path d="M30 0C13.458 0 0 13.458 0 30s13.458 30 30 30 30-13.458 30-30S46.542 0 30 0zm-2.631 57.227l-.04-21.097-9.122 18.55a27.02 27.02 0 01-3.214-1.822l6.78-16.728L8.51 46.906a27.562 27.562 0 01-2.036-2.965l9.045-7.811H3.338A27.372 27.372 0 012.645 30C2.645 14.916 14.916 2.645 30 2.645S57.355 14.916 57.355 30c0 2.106-.24 4.159-.693 6.13H44.226l9.215 7.956a27.721 27.721 0 01-2.05 2.943L37.972 36.127l6.834 16.862a27.03 27.03 0 01-3.22 1.784l-9.172-18.646-.04 21.12c-.783.068-1.576.106-2.376.106a27.97 27.97 0 01-2.631-.126h.002zM116.667 0c-16.542 0-30 13.458-30 30s13.458 30 30 30c16.541 0 30-13.458 30-30s-13.459-30-30-30zm0 57.355V2.645c15.084 0 27.355 12.271 27.355 27.355s-12.271 27.355-27.355 27.355zM233.333 30c0-16.542-13.458-30-30-30-16.541 0-30 13.458-30 30s13.459 30 30 30c16.542 0 30-13.458 30-30zm-30-27.355c9.363 0 17.641 4.728 22.574 11.921.305 1.495.471 3.042.471 4.625 0 12.726-10.316 23.045-23.045 23.045-12.728 0-23.044-10.316-23.044-23.045 0-1.586.165-3.13.471-4.625 4.933-7.193 13.211-11.921 22.573-11.921zM290 0c-16.542 0-30 13.458-30 30s13.458 30 30 30 30-13.458 30-30-13.458-30-30-30zm-1.824 57.292V32.671h-25.4a27.123 27.123 0 01-.112-3.646h25.512V2.708A27.76 27.76 0 01290 2.645c.613 0 1.22.023 1.824.063v26.317h25.512a26.325 26.325 0 01-.112 3.646h-25.4v24.621c-.602.04-1.211.063-1.824.063s-1.22-.023-1.824-.063z" fill="#0B0B0B"/></svg>