<svg width="54" height="54" fill="none" xmlns="http://www.w3.org/2000/svg"><g clip-path="url(#clip0_299_3380)"><path d="M36.703 10.083a54.717 54.717 0 00-8.733-8.1 1.709 1.709 0 00-1.94 0 54.717 54.717 0 00-8.733 8.1c-5.8 6.644-8.86 13.668-8.86 20.292a18.563 18.563 0 0037.126 0c0-6.623-3.06-13.648-8.86-20.292zm1.94 22.275a11.77 11.77 0 01-9.66 9.64h-.274a1.687 1.687 0 01-.275-3.354 8.374 8.374 0 006.877-6.877 1.687 1.687 0 011.962-1.37 1.667 1.667 0 011.37 1.96z" fill="#000"/></g><defs><clipPath id="clip0_299_3380"><path fill="#fff" d="M0 0h54v54H0z"/></clipPath></defs></svg>