<svg width="54" height="54" fill="none" xmlns="http://www.w3.org/2000/svg"><g clip-path="url(#clip0_299_3362)"><path d="M48.495 14.934a.021.021 0 01-.015-.006.022.022 0 01-.006-.015 3.417 3.417 0 00-1.266-1.244L28.645 3.227a3.375 3.375 0 00-3.29 0L6.792 13.67c-.524.296-.96.725-1.265 1.244a.021.021 0 01-.007.015.021.021 0 01-.015.006v.043a3.164 3.164 0 00-.442 1.624V37.4a3.396 3.396 0 001.73 2.953l18.562 10.442c.467.255.987.4 1.518.422h.296a3.311 3.311 0 001.476-.422l18.563-10.442a3.395 3.395 0 001.73-2.953V16.601a3.29 3.29 0 00-.444-1.667zM27 6.16l16.812 9.45-6.455 3.67-17.023-9.386L27 6.159zm.19 18.9l-16.98-9.45 6.665-3.754 17.044 9.386-6.73 3.818zm1.519 21.832l.168-18.9 6.771-3.86v8.037a1.687 1.687 0 103.375 0v-9.956l6.54-3.713v18.9l-16.854 9.492z" fill="#000"/></g><defs><clipPath id="clip0_299_3362"><path fill="#fff" d="M0 0h54v54H0z"/></clipPath></defs></svg>