<svg width="125" height="32" fill="none" xmlns="http://www.w3.org/2000/svg"><path d="M43.5 9l7.68.02c1.48 0 2.56.327 3.24.98.627.6.94 1.433.94 2.5 0 .88-.26 1.58-.78 2.1-.387.427-.893.72-1.52.88v.06c.827.133 1.52.467 2.08 1 .6.6.9 1.407.9 2.42 0 1.12-.34 2.047-1.02 2.78-.813.84-2.093 1.26-3.84 1.26H43.5V9zm3.84 2.94v2.52h2.5c.573 0 1.007-.147 1.3-.44.24-.213.36-.527.36-.94 0-.347-.127-.633-.38-.86-.24-.187-.6-.28-1.08-.28h-2.7zm0 5.26v2.86h3.02c.507 0 .92-.127 1.24-.38.293-.24.44-.593.44-1.06 0-.453-.153-.813-.46-1.08-.28-.227-.72-.34-1.32-.34h-2.92zm15.904 6.18c-1.827 0-3.187-.427-4.08-1.28-1.014-.933-1.52-2.28-1.52-4.04 0-1.72.506-3.087 1.52-4.1 1-1 2.42-1.5 4.26-1.5 1.786 0 3.18.453 4.18 1.36 1.026.973 1.54 2.327 1.54 4.06 0 1.68-.514 3.033-1.54 4.06-1 .96-2.454 1.44-4.36 1.44zm.12-2.36c.586 0 1.053-.213 1.4-.64.426-.507.64-1.333.64-2.48 0-1.08-.207-1.893-.62-2.44-.334-.44-.8-.66-1.4-.66-.574 0-1.034.22-1.38.66-.414.533-.62 1.347-.62 2.44 0 1.12.206 1.947.62 2.48.333.427.786.64 1.36.64zm12.985 2.36c-1.826 0-3.186-.427-4.08-1.28-1.013-.933-1.52-2.28-1.52-4.04 0-1.72.507-3.087 1.52-4.1 1-1 2.42-1.5 4.26-1.5 1.787 0 3.18.453 4.18 1.36 1.027.973 1.54 2.327 1.54 4.06 0 1.68-.513 3.033-1.54 4.06-1 .96-2.453 1.44-4.36 1.44zm.12-2.36c.587 0 1.054-.213 1.4-.64.427-.507.64-1.333.64-2.48 0-1.08-.206-1.893-.62-2.44-.333-.44-.8-.66-1.4-.66-.573 0-1.033.22-1.38.66-.413.533-.62 1.347-.62 2.44 0 1.12.207 1.947.62 2.48.334.427.787.64 1.36.64zm7.186-1.3h3.62c-.067.48.06.867.38 1.16.266.24.686.36 1.26.36.466 0 .84-.087 1.12-.26.293-.187.44-.46.44-.82a.849.849 0 00-.44-.78c-.24-.147-.714-.273-1.42-.38l-1.04-.16c-1.4-.227-2.34-.567-2.82-1.02-.52-.493-.78-1.133-.78-1.92 0-.853.293-1.587.88-2.2.84-.84 2.226-1.26 4.16-1.26 1.72 0 2.966.4 3.74 1.2.506.507.78 1.187.82 2.04h-3.16c0-.36-.107-.647-.32-.86-.24-.24-.627-.36-1.16-.36-.494 0-.86.093-1.1.28-.254.187-.38.427-.38.72 0 .307.12.533.36.68.226.147.62.267 1.18.36l1.46.22c1.346.2 2.293.58 2.84 1.14.48.52.72 1.167.72 1.94 0 .933-.294 1.693-.88 2.28-.867.867-2.32 1.3-4.36 1.3-2.027 0-3.44-.447-4.24-1.34-.574-.64-.867-1.413-.88-2.32zm11.242-4.48v-2.4h1.84V9.82h3.62v3.02h2.16v2.4h-2.16v4.12c0 .52.08.88.24 1.08.2.2.527.3.98.3.28 0 .594-.053.94-.16v2.44c-.84.187-1.646.28-2.42.28-1.213 0-2.087-.247-2.62-.74-.493-.467-.74-1.273-.74-2.42v-4.9h-1.84zm16.401 4.82h3.6c-.32 1.067-.907 1.88-1.76 2.44-.893.587-2.113.88-3.66.88-1.947 0-3.393-.493-4.34-1.48-.947-.987-1.42-2.273-1.42-3.86 0-1.667.527-3.027 1.58-4.08 1-1 2.42-1.5 4.26-1.5 1.813 0 3.18.48 4.1 1.44.947.973 1.42 2.5 1.42 4.58v.22h-7.62c-.027.84.207 1.487.7 1.94.347.307.827.46 1.44.46.453 0 .827-.093 1.12-.28.307-.187.5-.44.58-.76zm-3.84-3.2h3.88c0-.627-.167-1.153-.5-1.58-.32-.373-.78-.56-1.38-.56-.547 0-.993.16-1.34.48-.413.413-.633.967-.66 1.66zm17.229-4.32v2.62a6.669 6.669 0 00-.9-.06c-.974 0-1.714.253-2.22.76-.547.547-.82 1.607-.82 3.18V23h-3.64V12.84h3.54v1.54c.32-.587.746-1.033 1.28-1.34.573-.333 1.26-.5 2.06-.5h.7zM16 0C7.178 0 0 7.178 0 16s7.178 16 16 16 16-7.178 16-16S24.822 0 16 0zm1.288 19.27l4.89 9.944a14.489 14.489 0 01-4.911 1.32l.022-11.265h-.002zm-2.691 11.25a14.502 14.502 0 01-4.886-1.358l4.865-9.893.02 11.252zm-6.32-11.25l-4.824 4.165A14.534 14.534 0 011.78 19.27h6.497zm21.943 0a14.513 14.513 0 01-1.718 4.242l-4.915-4.243h6.633zm.37-3.26c0 .13-.003.26-.006.39.004-.13.005-.26.005-.39zm-.01.52c-.004.09-.007.18-.012.267.005-.088.009-.178.011-.267zm-.022.417l-.017.247.017-.247zm-.03.4zm-.042.393zm-.05.388a9.295 9.295 0 01-.042.26c.014-.085.029-.173.041-.26zm-.062.385zm-.07.38zM5.023 6.4l-.09.103.09-.103zm-.765.952zM1.682 18.804a20.267 20.267 0 01-.055-.294l.055.294zm-.075-.413a9.735 9.735 0 01-.04-.265c.012.088.027.177.04.265zm-.06-.4l-.033-.253.032.252zm-.05-.398c-.008-.083-.017-.165-.024-.248.007.083.016.166.025.248zm-.038-.396l-.018-.254c.004.084.01.17.018.254zm-.027-.397a10.28 10.28 0 01-.011-.276l.01.276zm2.551 7.466zm.28.392zm.274.36l7.074-5.748-3.616 8.922a14.713 14.713 0 01-3.458-3.175zm5.172 4.146zm6.175 1.425l.115.002c-.039 0-.076 0-.115-.002zm-.56-.015zm1.603-.013l-.266.015c.09-.004.177-.01.266-.015zm-.382.018l-.208.008c.07-.001.138-.004.208-.008zm6.942-2.062c.137-.082.274-.167.409-.254L20.25 19.27l7.156 5.815a14.69 14.69 0 01-3.918 3.432h-.001zm-.421.244zm5.175-4.832z" fill="#000"/></svg>