<svg width="110" height="110" fill="none" xmlns="http://www.w3.org/2000/svg"><g clip-path="url(#clip0_299_3372)"><path d="M98.785 30.422a.043.043 0 01-.043-.043 6.961 6.961 0 00-2.578-2.535L58.352 6.574a6.875 6.875 0 00-6.703 0l-37.813 21.27a6.962 6.962 0 00-2.578 2.535.043.043 0 01-.013.03.043.043 0 01-.03.013v.086a6.445 6.445 0 00-.902 3.308v42.368a6.918 6.918 0 003.523 6.015l37.813 21.27c.951.519 2.01.813 3.093.859h.602a6.75 6.75 0 003.008-.859l37.812-21.27a6.918 6.918 0 003.523-6.015V33.816a6.703 6.703 0 00-.902-3.394zM55 12.547l34.246 19.25-13.148 7.476-34.676-19.12L55 12.546zm.387 38.5l-34.59-19.25 13.578-7.649L69.094 43.27l-13.707 7.777zm3.093 44.472l.344-38.5 13.793-7.863v16.371a3.438 3.438 0 006.875 0v-20.28l13.32-7.563v38.5L58.481 95.519z" fill="#000"/></g><defs><clipPath id="clip0_299_3372"><path fill="#fff" d="M0 0h110v110H0z"/></clipPath></defs></svg>