<svg width="110" height="110" fill="none" xmlns="http://www.w3.org/2000/svg"><g clip-path="url(#clip0_299_3375)"><path d="M96.25 20.625h-82.5A6.875 6.875 0 006.875 27.5v54.957a6.875 6.875 0 006.875 6.875h82.5a6.874 6.874 0 006.875-6.875V27.5a6.873 6.873 0 00-6.875-6.875zm-37.813 55h-6.874a3.438 3.438 0 010-6.875h6.874a3.438 3.438 0 010 6.875zm27.5 0h-13.75a3.438 3.438 0 010-6.875h13.75a3.438 3.438 0 010 6.875zM13.75 38.199V27.5h82.5v10.7h-82.5z" fill="#000"/></g><defs><clipPath id="clip0_299_3375"><path fill="#fff" d="M0 0h110v110H0z"/></clipPath></defs></svg>