<svg width="40" height="40" fill="none" xmlns="http://www.w3.org/2000/svg"><path d="M33.166 5.505c-.89-.822-4.489-3.444-12.513-3.48 0 0-9.46-.569-14.067 3.677-2.563 2.573-3.466 6.349-3.564 11.024-.098 4.675-.217 13.435 8.192 15.811h.007l-.007 3.628s-.056 1.47.91 1.765c1.163.365 1.849-.753 2.962-1.955.61-.66 1.45-1.63 2.087-2.37 5.756.486 10.174-.625 10.678-.786 1.163-.38 7.738-1.224 8.802-9.984 1.106-9.04-.532-14.75-3.487-17.33zm.973 16.67c-.903 7.311-6.232 7.775-7.212 8.091-.42.134-4.306 1.104-9.187.788 0 0-3.64 4.408-4.775 5.554-.371.372-.777.337-.77-.4 0-.486.027-6.026.027-6.026-.006 0-.006 0 0 0C5.095 28.2 5.514 20.74 5.593 16.84c.077-3.902.812-7.101 2.982-9.253 3.9-3.55 11.932-3.023 11.932-3.023 6.785.029 10.034 2.081 10.79 2.77 2.5 2.152 3.774 7.298 2.843 14.841zm-9.733-5.681c.028.605-.875.647-.903.042-.077-1.547-.798-2.299-2.283-2.383-.602-.035-.546-.942.05-.907 1.953.105 3.038 1.23 3.136 3.248zm1.422.794c.07-2.98-1.786-5.315-5.308-5.575-.595-.042-.532-.949.063-.907 4.061.296 6.225 3.1 6.148 6.504-.007.604-.917.576-.903-.022zm3.29.942c.008.605-.903.612-.903.008-.042-5.73-3.844-8.852-8.458-8.887-.595-.007-.595-.907 0-.907 5.16.035 9.313 3.614 9.362 9.786zm-.79 6.897v.014c-.757 1.336-2.171 2.813-3.628 2.341l-.014-.02c-1.477-.415-4.957-2.215-7.156-3.973a18.344 18.344 0 01-2.969-2.98 22.825 22.825 0 01-2.156-3.277c-1.492-2.707-1.821-3.916-1.821-3.916-.47-1.462.994-2.882 2.332-3.641h.014c.644-.338 1.26-.225 1.673.274 0 0 .869 1.04 1.24 1.553.35.478.819 1.245 1.064 1.674.427.766.161 1.546-.26 1.87l-.84.675c-.427.344-.37.984-.37.984s1.246 4.731 5.902 5.927c0 0 .637.056.98-.373l.673-.844c.322-.422 1.1-.689 1.862-.26 1.03.584 2.339 1.49 3.207 2.313.49.4.602 1.012.266 1.66z" fill="#fff"/></svg>