<svg width="40" height="40" fill="none" xmlns="http://www.w3.org/2000/svg"><path d="M38.947 11.517c.303.817-.686 2.695-2.968 5.634-.317.409-.745.952-1.286 1.629-.528.651-.89 1.111-1.088 1.38a9.169 9.169 0 00-.604.948c-.204.364-.283.633-.237.805.046.173.132.393.257.661.126.269.34.543.643.824.303.281.68.62 1.128 1.016.053.026.086.051.099.077 1.86 1.673 3.12 3.085 3.779 4.235.04.064.082.144.128.24a2.3 2.3 0 01.139.507c.046.243.043.46-.01.652s-.218.367-.495.527c-.277.16-.666.24-1.167.24l-5.065.076c-.317.064-.686.032-1.108-.096a4.896 4.896 0 01-1.029-.421l-.395-.23c-.396-.269-.858-.677-1.385-1.227a34.59 34.59 0 01-1.356-1.485 6.468 6.468 0 00-1.206-1.111c-.429-.3-.802-.4-1.118-.298-.04.013-.093.036-.158.067-.066.032-.178.125-.337.278a2.44 2.44 0 00-.425.566c-.125.223-.238.556-.336.996-.1.441-.142.936-.129 1.485 0 .192-.023.368-.07.527-.046.16-.095.278-.148.355l-.079.096c-.237.242-.587.383-1.048.421h-2.276a9.268 9.268 0 01-2.888-.316c-.99-.262-1.857-.6-2.602-1.015a23.828 23.828 0 01-2.038-1.265c-.613-.428-1.078-.796-1.394-1.102l-.495-.46c-.132-.128-.313-.32-.544-.575-.23-.256-.702-.837-1.415-1.744a47.953 47.953 0 01-2.097-2.894c-.686-1.022-1.494-2.37-2.423-4.043a62.422 62.422 0 01-2.582-5.213A1.488 1.488 0 011 11.747c0-.14.02-.243.06-.307l.078-.115c.198-.243.574-.364 1.128-.364l5.421-.038c.158.025.31.067.455.124.145.058.25.112.317.163l.099.058c.21.14.369.345.474.613.264.639.568 1.3.91 1.983.344.684.614 1.204.812 1.562l.316.556c.383.766.752 1.43 1.108 1.993.356.562.676 1 .96 1.313.283.313.557.559.82.738.265.178.489.268.674.268.184 0 .362-.032.534-.096a.334.334 0 00.099-.096c.04-.051.118-.192.237-.422.119-.23.208-.53.267-.9.06-.37.122-.888.188-1.553.066-.664.066-1.462 0-2.395a8.645 8.645 0 00-.178-1.399c-.092-.421-.185-.715-.277-.881l-.119-.23c-.33-.435-.89-.71-1.681-.824-.172-.026-.139-.18.098-.46.212-.243.462-.435.752-.575.7-.332 2.276-.486 4.729-.46 1.081.012 1.972.096 2.67.249.264.064.485.15.663.259.179.108.314.262.406.46.092.197.162.402.208.613.046.21.07.501.07.872 0 .37-.007.722-.02 1.054-.014.332-.03.782-.05 1.35-.02.57-.03 1.096-.03 1.582 0 .14-.006.409-.02.805a15.45 15.45 0 00-.01.92c.007.217.03.475.07.776.04.3.115.55.227.747.112.198.26.355.445.47.106.025.218.05.337.076.119.026.29-.044.514-.21.224-.167.475-.387.752-.662.277-.274.62-.702 1.029-1.284.409-.581.857-1.268 1.345-2.06a30.842 30.842 0 002.117-4.312c.053-.127.119-.24.198-.335a.872.872 0 01.217-.201l.08-.058.099-.048.257-.057.395-.01 5.698-.038c.515-.064.937-.048 1.267.048.33.096.534.201.613.316l.119.192z" fill="#fff"/></svg>