<svg width="67" height="74" fill="none" xmlns="http://www.w3.org/2000/svg"><g clip-path="url(#clip0_299_3335)"><path d="M.648 33.71h32.374c.923 0 1.518.519 1.65 1.432.004.031.013.062.025.12h.259c1.461 0 2.923-.004 4.385 0 2.324.006 4.187 1.543 4.63 3.825.053.267.077.544.077.817.005 4.587.003 9.174.003 13.76v.186c-.07.007-.131.018-.192.018-.5.002-1.002.005-1.502 0-.829-.007-1.466-.576-1.558-1.396-.293-2.614-.581-5.23-.873-7.844-.174-1.563-.35-3.126-.527-4.701h-4.913c-.025.548-.05 1.087-.073 1.627-.143 3.42-.285 6.84-.426 10.261-.104 2.525-.205 5.05-.308 7.576-.116 2.815-.225 5.631-.352 8.446-.083 1.855-1.398 3.09-3.256 3.09-6.994 0-13.986 0-20.98-.002-1.162 0-2.068-.492-2.703-1.467a2.858 2.858 0 01-.464-1.435c-.105-2.12-.2-4.242-.302-6.363-.122-2.549-.247-5.097-.369-7.646-.104-2.185-.204-4.37-.308-6.556-.122-2.557-.246-5.113-.37-7.67-.02-.411-.03-.823-.064-1.234a.65.65 0 00-.133-.342C3.19 36.774 1.994 35.342.801 33.91c-.044-.054-.084-.11-.153-.2zm19.37 8.53c0-.524-.003-1.015 0-1.507.002-.268-.092-.492-.305-.654-.245-.186-.517-.226-.797-.087-.334.166-.452.45-.452.815.004 7.679.003 15.358.004 23.038 0 .096.001.195.024.287a.78.78 0 00.836.587.777.777 0 00.686-.756c.01-.514.002-1.029.002-1.566h.77c.266 0 .533.008.8-.002a.778.778 0 00.756-.787.773.773 0 00-.76-.758c-.514-.01-1.029-.003-1.55-.003v-3.102c.24 0 .466.002.691 0 .492-.003.844-.326.845-.773 0-.449-.351-.773-.842-.776-.23-.002-.462 0-.69 0v-3.102c.511 0 1.003.003 1.495-.001.468-.004.817-.343.812-.782-.005-.43-.347-.76-.802-.767-.331-.004-.662-.001-.994-.001h-.517v-3.101c.254 0 .494.003.734 0 .455-.008.799-.339.803-.767.005-.44-.342-.776-.81-.783-.24-.004-.48 0-.724 0v-3.084c.03-.008.046-.016.061-.016.468-.001.937 0 1.405-.003.491-.003.843-.328.843-.775s-.35-.772-.842-.774c-.484-.003-.967 0-1.483 0z" fill="#000"/></g><g clip-path="url(#clip1_299_3335)"><path d="M17.382 18.6v1.538h1.53v-1.531h-1.537v-1.538h-1.53v1.53h1.537zM57.684 3.868c-.057-.004-.104-.011-.15-.01-1.138.028-2.276.055-3.415.085l-10.073.268-6.538.174c-2.672.07-5.344.141-8.016.216-.155.004-.24-.031-.31-.185A6.163 6.163 0 0027.95 2.66C26.176.88 23.986.076 21.514.005c-2.097-.061-4.078.449-5.95 1.384-1.329.665-2.517 1.52-3.395 2.742-1.006 1.4-1.308 2.913-.642 4.55.418 1.026 1.123 1.841 1.969 2.538 1.486 1.224 3.2 1.983 5.064 2.414 2.134.493 4.246.457 6.307-.346 1.91-.743 3.431-1.938 4.354-3.815.034-.068.178-.119.27-.117a652.6 652.6 0 014.19.103c4.528.121 9.056.245 13.584.367 2.979.08 5.957.161 8.936.237.49.012.98.002 1.483.002V3.868zM22.037 17.033h1.53V15.52h-1.53v1.513zm-1.544 3.131v1.527h1.523v-1.527h-1.523zm-3.102 3.074h1.52v-1.52h-1.52v1.52zM15.84 26.34h1.521v-1.52H15.84v1.52zm6.202 1.551h1.521v-1.52h-1.52v1.52zm-3.132 1.563v-1.53h-1.512v1.53h1.512z" fill="#fff"/><path d="M57.684 3.868v6.195c-.503 0-.993.01-1.483-.002-2.98-.076-5.957-.157-8.936-.237-4.528-.121-9.056-.245-13.585-.367a635.788 635.788 0 00-4.189-.102c-.092-.002-.236.048-.27.117-.923 1.877-2.445 3.071-4.354 3.814-2.061.803-4.173.84-6.307.347-1.864-.431-3.578-1.19-5.064-2.414-.846-.697-1.552-1.513-1.97-2.54-.665-1.635-.363-3.149.643-4.548.878-1.222 2.066-2.077 3.396-2.742 1.87-.935 3.852-1.445 5.95-1.384 2.47.071 4.66.875 6.435 2.655.51.512.925 1.1 1.231 1.756.072.154.156.19.311.185 2.672-.075 5.343-.145 8.015-.216l6.538-.174 10.074-.268c1.138-.03 2.276-.057 3.414-.085.047-.001.093.006.15.01zM21.28 3.092c-2.203.046-4.155.723-5.87 2.072-.391.308-.471.771-.195 1.126.277.357.748.404 1.138.098 1.3-1.02 2.772-1.602 4.42-1.72 1.322-.093 2.556.168 3.612 1.02.432.35.739.777.758 1.374.011.364.342.656.702.685a.753.753 0 00.8-.566c.04-.167.038-.353.015-.526-.125-.954-.65-1.673-1.384-2.249-1.177-.925-2.546-1.283-3.996-1.314zm.755 13.941V15.52h1.53v1.513h-1.53zM17.384 18.6h-1.536v-1.53h1.529v1.537l.007-.007z" fill="#000"/><path d="M17.375 18.607h1.538v1.532h-1.53V18.6l-.008.007zm3.117 1.557h1.522v1.527h-1.522v-1.527zm-3.102 3.075v-1.521h1.522v1.52H17.39zm-1.55 3.101v-1.52h1.521v1.52H15.84zm6.203 1.55v-1.52h1.521v1.52h-1.521zm-3.133 1.563h-1.512v-1.53h1.513v1.53z" fill="#000"/></g><path opacity=".11" d="M54 68.2c-1.08 0-1.907-.307-2.48-.92s-.86-1.48-.86-2.6v-7.36c0-1.12.287-1.987.86-2.6s1.4-.92 2.48-.92 1.907.307 2.48.92.86 1.48.86 2.6v7.36c0 1.12-.287 1.987-.86 2.6s-1.4.92-2.48.92zm0-2c.76 0 1.14-.46 1.14-1.38v-7.64c0-.92-.38-1.38-1.14-1.38-.76 0-1.14.46-1.14 1.38v7.64c0 .92.38 1.38 1.14 1.38zm7.908-8.88h-2.3v-1.56c.627 0 1.127-.053 1.5-.16.387-.107.693-.28.92-.52.227-.253.427-.613.6-1.08h1.48v14h-2.2V57.32z" fill="#000"/><defs><clipPath id="clip0_299_3335"><path fill="#fff" transform="translate(.648 33.71)" d="M0 0h43.404v37.216H0z"/></clipPath><clipPath id="clip1_299_3335"><path fill="#fff" transform="translate(11.172)" d="M0 0h46.512v29.453H0z"/></clipPath></defs></svg>