<svg width="67" height="69" fill="none" xmlns="http://www.w3.org/2000/svg"><g clip-path="url(#clip0_507_4594)"><path d="M0 24.21h32.374c.922 0 1.517.517 1.65 1.43.004.032.012.063.025.12h.258c1.462 0 2.924-.003 4.385 0 2.325.007 4.188 1.544 4.631 3.825.052.268.077.545.077.818.004 4.586.003 9.174.003 13.76v.185c-.07.008-.131.019-.193.019-.5.001-1.001.004-1.502 0-.828-.008-1.465-.576-1.557-1.397-.294-2.614-.582-5.229-.873-7.843l-.528-4.702h-4.913c-.024.549-.05 1.088-.072 1.627-.143 3.42-.286 6.841-.426 10.262-.105 2.525-.206 5.05-.309 7.575-.115 2.816-.224 5.631-.351 8.447-.083 1.854-1.398 3.089-3.257 3.089l-20.98-.001c-1.162 0-2.067-.492-2.702-1.468a2.859 2.859 0 01-.464-1.434c-.106-2.121-.201-4.243-.302-6.364-.122-2.548-.248-5.097-.369-7.645-.104-2.186-.204-4.371-.308-6.557-.122-2.557-.247-5.113-.37-7.67-.02-.41-.03-.823-.065-1.233a.65.65 0 00-.132-.343c-1.188-1.437-2.384-2.869-3.578-4.302-.044-.053-.084-.11-.152-.199zm19.369 8.528c0-.523-.003-1.015 0-1.506a.765.765 0 00-.305-.654c-.245-.186-.516-.227-.796-.088-.334.166-.452.45-.452.815.003 7.68.002 15.359.003 23.038 0 .096.002.196.025.288a.78.78 0 00.835.587.777.777 0 00.687-.756c.01-.515.002-1.03.002-1.566h.77c.266 0 .533.007.799-.002a.778.778 0 00.757-.788.774.774 0 00-.76-.758c-.515-.01-1.03-.002-1.55-.002v-3.102h.69c.492-.004.845-.327.845-.773 0-.449-.35-.773-.841-.777h-.69v-3.102c.51 0 1.003.003 1.495 0 .467-.005.816-.344.811-.782-.004-.43-.347-.761-.802-.768-.33-.004-.662 0-.993 0h-.517V38.94c.253 0 .494.004.734 0 .455-.008.798-.338.803-.767.005-.44-.342-.776-.81-.783-.24-.003-.48 0-.725 0v-3.083c.031-.008.046-.016.061-.016.47-.002.937 0 1.406-.003.49-.003.843-.328.843-.775 0-.448-.351-.772-.843-.775-.483-.002-.966 0-1.482 0z" fill="#000"/></g><g clip-path="url(#clip1_507_4594)"><path d="M33.062 1.972c-.362 1.131-.722 2.262-1.086 3.392-1.073 3.335-2.148 6.669-3.222 10.003l-2.09 6.493c-.855 2.653-1.708 5.306-2.566 7.958-.031.096-.039.169-.008.238l-2.734-1.215a18.075 18.075 0 00-1.987-.542c.37-1.364.73-2.73 1.091-4.096 1.206-4.568 2.41-9.136 3.614-13.704.793-3.005 1.585-6.009 2.382-9.012.131-.494.286-.982.433-1.485l6.207 1.817c-.013.059-.02.108-.034.153z" fill="#fff"/></g><path d="M33.066 1.972c-.362 1.131-.722 2.262-1.086 3.392-1.073 3.335-2.148 6.669-3.222 10.003l-2.09 6.493c-.855 2.653-1.708 5.306-2.566 7.958-.031.095-.039.169-.008.238l-2.734-1.215a18.08 18.08 0 00-1.987-.542c.37-1.364.73-2.73 1.09-4.096l3.615-13.704c.793-3.005 1.585-6.01 2.382-9.012.131-.494.286-.982.433-1.485L33.1 1.819c-.013.059-.02.107-.034.153zM19.781 7.127l-1.551 4.947-2.626-3.54 4.177-1.407z" fill="#000"/><path fill="#000" d="M18.715 10.528l.581-1.855 2.475.776-.582 1.855zm14.977 6.394l1.551-4.948 2.626 3.54-4.177 1.408z"/><path fill="#000" d="M34.758 13.52l-.581 1.856-2.475-.776.582-1.855z"/><path opacity=".11" d="M54 63.2c-1.08 0-1.907-.307-2.48-.92s-.86-1.48-.86-2.6v-7.36c0-1.12.287-1.987.86-2.6s1.4-.92 2.48-.92 1.907.307 2.48.92.86 1.48.86 2.6v7.36c0 1.12-.287 1.987-.86 2.6s-1.4.92-2.48.92zm0-2c.76 0 1.14-.46 1.14-1.38v-7.64c0-.92-.38-1.38-1.14-1.38-.76 0-1.14.46-1.14 1.38v7.64c0 .92.38 1.38 1.14 1.38zm7.948 2c-1.08 0-1.9-.3-2.46-.9-.547-.6-.82-1.46-.82-2.58v-1.14h2.08v1.24c0 .92.38 1.38 1.14 1.38.373 0 .653-.113.84-.34.2-.24.3-.653.3-1.24v-1.14c0-.64-.114-1.093-.34-1.36-.227-.28-.594-.42-1.1-.42h-.74v-2h.8c.44 0 .766-.113.98-.34.227-.227.34-.607.34-1.14V52.2c0-.48-.1-.833-.3-1.06-.2-.227-.467-.34-.8-.34-.707 0-1.06.433-1.06 1.3v.92h-2.08v-.74c0-1.12.273-1.98.82-2.58.56-.6 1.36-.9 2.4-.9 1.053 0 1.853.3 2.4.9.546.587.82 1.44.82 2.56v.5c0 .76-.127 1.373-.38 1.84-.254.453-.647.78-1.18.98v.04c.573.213.986.56 1.24 1.04.253.48.38 1.093.38 1.84v1.24c0 1.12-.28 1.98-.84 2.58-.547.587-1.36.88-2.44.88z" fill="#000"/><defs><clipPath id="clip0_507_4594"><path fill="#fff" transform="translate(0 24.21)" d="M0 0h43.404v37.216H0z"/></clipPath><clipPath id="clip1_507_4594"><path fill="#fff" transform="scale(1 -1) rotate(73.675 32.584 1.409)" d="M0 0h29.63v6.482H0z"/></clipPath></defs></svg>