<svg width="67" height="70" fill="none" xmlns="http://www.w3.org/2000/svg"><g clip-path="url(#clip0_507_4593)"><path d="M0 24.785h32.374c.922 0 1.517.517 1.65 1.43.004.032.012.063.025.12h.258c1.462 0 2.924-.003 4.385 0 2.325.007 4.188 1.544 4.631 3.825.052.268.077.545.077.818.004 4.587.003 9.174.003 13.76v.186c-.07.007-.131.018-.193.018-.5.002-1.001.004-1.502 0-.828-.008-1.465-.576-1.557-1.396-.294-2.615-.582-5.23-.873-7.844L38.75 31h-4.913c-.024.549-.05 1.088-.072 1.627-.143 3.42-.286 6.841-.426 10.262-.105 2.525-.206 5.05-.309 7.575-.115 2.816-.224 5.632-.351 8.447-.083 1.854-1.398 3.09-3.257 3.09-6.993 0-13.986 0-20.98-.002-1.162 0-2.067-.492-2.702-1.468a2.858 2.858 0 01-.464-1.434c-.106-2.12-.201-4.242-.302-6.364-.122-2.548-.248-5.096-.369-7.645-.104-2.186-.204-4.371-.308-6.557-.122-2.556-.247-5.113-.37-7.67-.02-.41-.03-.823-.065-1.233a.65.65 0 00-.132-.342c-1.188-1.438-2.384-2.87-3.578-4.303-.044-.053-.084-.11-.152-.198zm19.369 8.528c0-.523-.003-1.015 0-1.506a.769.769 0 00-.305-.654c-.245-.186-.516-.226-.796-.088-.334.166-.452.45-.452.815.003 7.68.002 15.36.003 23.039 0 .096.002.195.025.287a.78.78 0 00.835.587.777.777 0 00.687-.756c.01-.514.002-1.029.002-1.566h.77c.266 0 .533.007.799-.002a.778.778 0 00.757-.788.774.774 0 00-.76-.758c-.515-.009-1.03-.002-1.55-.002v-3.102c.24 0 .466.002.69 0 .492-.003.845-.326.845-.773 0-.449-.35-.773-.841-.777h-.69v-3.102c.51 0 1.003.003 1.495 0 .467-.004.816-.343.811-.782-.004-.43-.347-.761-.802-.767-.33-.005-.662-.001-.993-.001h-.517v-3.102c.253 0 .494.004.734 0 .455-.007.798-.338.803-.767.005-.44-.342-.776-.81-.782-.24-.004-.48 0-.725 0v-3.084c.031-.008.046-.016.061-.016.47-.001.937 0 1.406-.003.49-.003.843-.328.843-.775s-.351-.772-.843-.775c-.483-.002-.966 0-1.482 0z" fill="#000"/></g><g clip-path="url(#clip1_507_4593)"><path d="M33.062 2.547C32.7 3.678 32.34 4.81 31.976 5.94l-3.222 10.002-2.09 6.493c-.855 2.653-1.708 5.307-2.566 7.959-.031.095-.039.168-.008.238l-2.734-1.216a18.075 18.075 0 00-1.987-.542c.37-1.364.73-2.73 1.091-4.096 1.206-4.568 2.41-9.136 3.614-13.704.793-3.004 1.585-6.009 2.382-9.012.131-.494.286-.982.433-1.485l6.207 1.818c-.013.058-.02.107-.034.153z" fill="#fff"/></g><path d="M33.066 2.547c-.362 1.131-.722 2.262-1.086 3.393l-3.222 10.002-2.09 6.493c-.855 2.653-1.708 5.306-2.566 7.958-.031.096-.039.169-.008.238-.912-.404-1.823-.81-2.734-1.215a18.08 18.08 0 00-1.987-.542c.37-1.364.73-2.73 1.09-4.096l3.615-13.704c.793-3.005 1.585-6.009 2.382-9.012.131-.494.286-.982.433-1.485L33.1 2.395c-.013.058-.02.107-.034.152zM19.781 7.702l-1.551 4.947-2.626-3.54 4.177-1.407z" fill="#000"/><path fill="#000" d="M18.715 11.103l.581-1.855 2.474.776-.581 1.855zm14.977 6.394l1.551-4.948 2.626 3.54-4.177 1.408zm1.065-3.401l-.581 1.855-2.474-.776.581-1.855z"/><path opacity=".11" d="M54 64.2c-1.08 0-1.907-.307-2.48-.92s-.86-1.48-.86-2.6v-7.36c0-1.12.287-1.987.86-2.6s1.4-.92 2.48-.92 1.907.307 2.48.92.86 1.48.86 2.6v7.36c0 1.12-.287 1.987-.86 2.6s-1.4.92-2.48.92zm0-2c.76 0 1.14-.46 1.14-1.38v-7.64c0-.92-.38-1.38-1.14-1.38-.76 0-1.14.46-1.14 1.38v7.64c0 .92.38 1.38 1.14 1.38zm4.788.28c0-1 .16-1.853.48-2.56.32-.72.893-1.513 1.72-2.38.813-.867 1.373-1.607 1.68-2.22.32-.613.48-1.253.48-1.92 0-.6-.1-1.013-.3-1.24-.187-.24-.467-.36-.84-.36-.76 0-1.14.46-1.14 1.38v1.5h-2.08v-1.36c0-1.133.28-2 .84-2.6.56-.613 1.373-.92 2.44-.92s1.88.307 2.44.92c.56.6.84 1.467.84 2.6 0 .853-.207 1.687-.62 2.5-.4.813-1.1 1.747-2.1 2.8-.654.693-1.093 1.26-1.32 1.7-.227.427-.34.887-.34 1.38v.3h4.18v2h-6.36v-1.52z" fill="#000"/><defs><clipPath id="clip0_507_4593"><path fill="#fff" transform="translate(0 24.785)" d="M0 0h43.404v37.216H0z"/></clipPath><clipPath id="clip1_507_4593"><path fill="#fff" transform="scale(1 -1) rotate(73.675 32.968 1.121)" d="M0 0h29.63v6.482H0z"/></clipPath></defs></svg>