<svg width="1938" height="916" fill="none" xmlns="http://www.w3.org/2000/svg" xmlns:xlink="http://www.w3.org/1999/xlink"><path d="M1938 0H0v866.659c338.238 0 449.466 156.781 951.116-88.608 90.604-44.319 226.284-65.445 435.774 0 167.6 52.355 437.24-43.414 551.11-97.843V0z" fill="url(#pattern0)"/><path d="M1938 0H0v866.659c338.238 0 449.466 156.781 951.116-88.608 90.604-44.319 226.284-65.445 435.774 0 167.6 52.355 437.24-43.414 551.11-97.843V0z" fill="url(#paint0_linear_294_3166)" fill-opacity=".7"/><defs><linearGradient id="paint0_linear_294_3166" x1="969" y1="0" x2="969" y2="916" gradientUnits="userSpaceOnUse"><stop stop-color="#0D0E0D"/><stop offset="1" stop-color="#4B4B4C"/></linearGradient><pattern id="pattern0" patternContentUnits="objectBoundingBox" width="1" height="1"><use xlink:href="#image0_294_3166" transform="matrix(.00144 0 0 .00304 0 -.186)"/></pattern></defs></svg>