<svg width="123" height="32" fill="none" xmlns="http://www.w3.org/2000/svg"><path d="M47.34 17.24V23H43.5V9h3.84v5.04h4.5V9h3.84v14h-3.84v-5.76h-4.5zm11.316 9.34v-2.36c.426.107.766.16 1.02.16.44 0 .78-.12 1.02-.36.2-.2.346-.493.44-.88l.1-.42-4.16-9.88h3.96l2 6.34 1.92-6.34h3.56l-3.56 10.36c-.44 1.32-.867 2.187-1.28 2.6-.667.667-1.66 1-2.98 1-.72 0-1.4-.073-2.04-.22zm14.705-4.64V23h-3.44V9h3.64v4.78a3.003 3.003 0 011.02-.84c.6-.32 1.313-.48 2.14-.48 1.267 0 2.327.433 3.18 1.3.96 1 1.44 2.373 1.44 4.12 0 1.813-.467 3.213-1.4 4.2-.813.867-1.907 1.3-3.28 1.3-.813 0-1.533-.173-2.16-.52a4.345 4.345 0 01-1.1-.92h-.04zm.04-4.04c0 1.053.207 1.847.62 2.38.36.493.847.74 1.46.74.627 0 1.127-.247 1.5-.74.413-.587.62-1.407.62-2.46 0-1.093-.26-1.9-.78-2.42-.333-.333-.767-.5-1.3-.5-.547 0-.993.173-1.34.52-.52.48-.78 1.307-.78 2.48zm17.536-5.36v2.62a6.654 6.654 0 00-.9-.06c-.974 0-1.714.253-2.22.76-.547.547-.82 1.607-.82 3.18V23h-3.64V12.84h3.54v1.54c.32-.587.746-1.033 1.28-1.34.573-.333 1.26-.5 2.06-.5h.7zm1.582.3h3.64V23h-3.64V12.84zm0-1.34V9h3.64v2.5h-3.64zm17.13 11.5h-3.54v-1.06c-.68.96-1.713 1.44-3.1 1.44-1.44 0-2.573-.453-3.4-1.36-.906-.987-1.36-2.3-1.36-3.94 0-1.6.434-2.94 1.3-4.02.854-1.067 2.027-1.6 3.52-1.6 1.32 0 2.3.44 2.94 1.32V9h3.64v14zm-3.5-5.14c0-.92-.193-1.653-.58-2.2-.36-.507-.853-.76-1.48-.76-.56 0-1.006.2-1.34.6-.506.587-.76 1.433-.76 2.54 0 1.133.26 1.953.78 2.46.347.347.78.52 1.3.52s.947-.18 1.28-.54c.534-.587.8-1.46.8-2.62zm5.396 1.86h3.62c-.066.48.06.867.38 1.16.267.24.687.36 1.26.36.467 0 .84-.087 1.12-.26.294-.187.44-.46.44-.82a.847.847 0 00-.44-.78c-.24-.147-.713-.273-1.42-.38l-1.04-.16c-1.4-.227-2.34-.567-2.82-1.02-.52-.493-.78-1.133-.78-1.92 0-.853.294-1.587.88-2.2.84-.84 2.227-1.26 4.16-1.26 1.72 0 2.967.4 3.74 1.2.507.507.78 1.187.82 2.04h-3.16c0-.36-.106-.647-.32-.86-.24-.24-.626-.36-1.16-.36-.493 0-.86.093-1.1.28-.253.187-.38.427-.38.72 0 .307.12.533.36.68.227.147.62.267 1.18.36l1.46.22c1.347.2 2.294.58 2.84 1.14.48.52.72 1.167.72 1.94 0 .933-.293 1.693-.88 2.28-.866.867-2.32 1.3-4.36 1.3-2.026 0-3.44-.447-4.24-1.34-.573-.64-.866-1.413-.88-2.32zM16 0C7.178 0 0 7.178 0 16s7.178 16 16 16 16-7.178 16-16S24.822 0 16 0zm14.59 16c0 .48-.024.955-.07 1.424H16.973v13.132a14.76 14.76 0 01-.973.033c-.327 0-.65-.012-.973-.033V17.424H1.48a14.58 14.58 0 01-.06-1.944h13.607V1.444c.321-.02.646-.033.973-.033.327 0 .65.012.973.033V15.48h13.606c.007.173.01.346.01.52z" fill="#000"/></svg>