<svg width="103" height="33" fill="none" xmlns="http://www.w3.org/2000/svg"><path d="M3.864 16.402H0L3.467 0h3.864L5.995 6.16h5.995L13.326 0h3.864l-3.465 16.402H9.862l1.476-7.053H5.34l-1.476 7.053zM32.718 0l2.668 16.402h-4.004l-.4-3.07h-5.948l-1.71 3.07H19.18L28.807 0h3.91zm-1.991 10.544l-.821-6.257-3.464 6.257h4.285zM44.472 0h7.94c4.169 0 5.012 2.367 5.012 4.1 0 2.039-1.336 4.359-3.677 4.802l-.022.07c1.03.352 1.71.983 1.71 2.179 0 .446-.069.936-.352 2.32-.163.727-.26 1.336-.26 1.873 0 .353.12.703.282 1.055H51.17a2.498 2.498 0 01-.26-1.077c0-.493.07-1.055.235-1.686.212-.962.28-1.43.28-1.78 0-1.405-1.475-1.405-2.293-1.405h-2.996l-1.265 5.951h-3.863L44.472 0zm2.319 7.263h3.536c2.178 0 2.996-1.171 2.996-2.202 0-1.195-.655-1.873-2.412-1.873h-3.255l-.868 4.078.003-.003zM68.192 4.5h-.046l-2.481 11.902H61.8L65.265 0h5.596l1.43 11.27L78.19 0h5.762l-3.465 16.402h-3.863L79.2 4.5h-.072l-6.276 11.903h-3.161L68.192 4.5zM99.48 0l2.668 16.402h-4.004l-.4-3.07h-5.948l-1.71 3.07h-4.145L95.57 0h3.91zm-1.992 10.544l-.82-6.257-3.467 6.257h4.287zM24.25 27.781h.614l-.308-1.014-.306 1.014zm-8.982-1.385h-.573v.667h.576c.069 0 .187-.006.272-.083.053-.044.105-.127.105-.262a.317.317 0 00-.088-.237c-.088-.082-.215-.088-.29-.088l-.002.003zm26.212 0h-.574v.667h.576c.069 0 .187-.006.272-.083.053-.044.102-.127.102-.262a.317.317 0 00-.088-.237c-.088-.082-.215-.088-.289-.088v.003zm25.054 0h-.573v.667h.576c.068 0 .187-.006.272-.083.053-.044.102-.127.102-.262a.317.317 0 00-.088-.237c-.088-.082-.215-.088-.29-.088v.003zm-55.889 1.385h.614l-.309-1.014-.305 1.014z" fill="#fff"/><path d="M102.075 25.792c-.515-.003-1.019-.149-1.537-.102-.088-.055-.179-.036-.27-.008-.267.052-.118.278-.173.419a83.05 83.05 0 01-.292.041c-.025-.008-.05-.02-.075-.027-.206.165-.22.289-.046.485.016.04.027.113.046.113.218.022.298.148.29.352 0 .02.066.042.104.06-.014.103.047.144.138.155.138.014.273.036.41.041.204.009.369.034.314.312-.022.11.008.24.185.17.093 0 .19-.032.272.04l-.286 2.958c-.047 0-.094-.005-.138-.008-.11-.116-.126-.25-.107-.408.069-.603.129-1.207.176-1.81.008-.121.113-.333-.165-.33-.119-.012-.234-.025-.353-.036-.162-.094-.195.022-.214.14-.02.113-.039.229-.034.342.014.33-.118.43-.451.38-.576-.083-.579-.063-.614.507-.185-.008-.367-.022-.551-.022-.308 0-.43-.124-.297-.427.157-.044.36.154.476-.094l.083-.35c.195.02.388.053.583.058.121.003.281.11.353-.09h.008c.154-.144.27-.822.165-.976-.044-.064-.112-.072-.184-.052a7.161 7.161 0 00-.243-.03c-.005-.13.102-.273-.052-.381-.01-.022-.025-.044-.036-.069-.002-.022 0-.06-.008-.063a3.045 3.045 0 00-1.424-.143c-.01 0-.013.04-.022.06h-.002c-.251.047-.108.328-.257.43-.101 0-.203 0-.305-.008-.603-.053-.48-.066-.584.427l-.408-.044c-.242-.1-.209.104-.22.217a369.846 369.846 0 00-.306 3.045c-.01.105-.06.24.119.267.107.312.388.168.58.185.301.027.38.121.263.391l-.692-.063c-.195-.155-.32-.097-.358.137a.78.78 0 01-.113.323c-.093.008-.19.016-.27-.053l-.013-.09a8.504 8.504 0 00.019-.21l.017-.16a.636.636 0 00.038-.391c.022-.443-.138-.655-.48-.636-.068-.009-.134-.014-.203-.022-.074-.061-.16-.045-.245-.042l-.102-.027c-.124-.1-.275-.061-.413-.088.008-.094.014-.188.02-.282.27.025.54.058.809.075.107.005.275.033.193-.182.016-.066.03-.132.047-.198.16-.039.124-.177.132-.281.016-.188-.028-.403.294-.331.116.025.18-.08.168-.204.009-.072.017-.143.022-.215a.834.834 0 00.042-.402l.008-.086c.058-.248.055-.25-.102-.242a8.834 8.834 0 01-.275-.028c-.028-.066-.08-.074-.135-.038-.06.041-.097.094-.022.16-.011.09-.025.182-.039.272-.217-.019-.432-.044-.65-.055-.113-.005-.256-.088-.322.088-.033.295-.116.538-.498.466-.014 0-.033.028-.05.041-.047.012-.055.039-.036.08-.088.838-.187 1.676-.259 2.516-.024.295-.129.397-.41.292.025-.25.06-.502.072-.752.005-.108.05-.284-.174-.26l-.35-.032c-.019-.047-.052-.07-.096-.039-.041.03-.036.069.006.102-.006.29-.056.53-.441.372.036-.32.016-.65.162-.953.185.005.37.008.554.014.096.063.196.052.292 0 .215-.094.223-.21.038-.35l-.068-.11c-.047-.155-.185-.116-.287-.127-.515-.055-1.03-.105-1.542-.155-.264-.024-.581.017-.518-.418 0-.014-.071-.042-.11-.061a22.15 22.15 0 01-.352-.077l.063-.438h.482c.099.09.27-.006.352.13-.022.096-.063.195 0 .291.02.083.075.138.15.177.145.2.308.223.49.046l.065-.03c.276.047.551.152.835.033.27-.036.069-.292.184-.397.044-.01.091-.019.135-.03.075.063.149.03.223-.005.14-.188.317-.328.53-.422l.007-.008c.174-.435.532-.295.857-.276a.47.47 0 00.198-.022c.072-.03.1-.09.03-.16.086-.35-.069-.474-.41-.474a5.87 5.87 0 01-.793-.071c-.212-.03-.295.052-.308.256-.011.207-.05.41-.075.617l-.713-.066c-.086-.008-.154-.038-.154-.143 0-.102.052-.14.148-.138.088.003.19.025.22-.1.094-.101.067-.236.103-.355.107-.093.046-.126-.053-.146-.228-.024-.457-.044-.683-.077-.195-.027-.316.028-.314.246 0 .184-.09.228-.264.212-.19-.02-.264-.097-.231-.29.033-.19.052-.383.074-.575.077.005.135-.014.138-.105l-.044-.066c.2.041.404.069.611.052.887.163 1.79.201 2.685.295.515.055 1.03.146 1.55.124.058.008.091-.017.091-.077.028-.116.055-.229.086-.345.115.011.231.025.347.036.104.108.126.03.143-.063l.025-.34c-.022-.175-.127-.175-.26-.118-.677-.085-1.349-.2-2.034-.184-.168-.064-.22-.188-.196-.353l.033-.157a.071.071 0 00.036-.052c.906.09 1.812.182 2.715.275.185.02.328-.002.33-.228.006-.237.141-.257.329-.204.118.12.184.09.206-.07.044-.31-.084-.48-.383-.512-.608-.06-1.22-.115-1.828-.179-.185-.02-.33 0-.328.232.003.223-.138.226-.303.209a237.53 237.53 0 00-1.449-.151c-.115-.102-.223-.166-.278.05.011.404-.209.44-.55.388-.52-.077-.526-.058-.598.454l-2.352-.237c-.104-.096-.13-.027-.143.07-.02.112-.041.225-.06.338-.009.006-.023.014-.023.02 0 .016.009.035.014.052-.01.115-.022.228-.036.344a1.36 1.36 0 01-.027.1c-.108.104-.229.035-.344.024-.127-.039-.18.008-.16.138-.05.424-.097.851-.146 1.276l-.086.063c-.154.025-.407-.097-.413.165-.008.325-.2.298-.407.298-.19-.008-.18.138-.196.256-.033.234-.06.471-.09.708-.075 0-.152.006-.226.008l-.066-.008-.083-.036c.014-.493.074-.98.143-1.468.102 0 .207-.006.309-.009.022 0 .044.006.068.009.196-.072.124-.226.116-.361.02-.02.02-.041 0-.06.51-.114.512-.114.57-.698.025-.237.033-.474.05-.71.019-.114-.058-.141-.144-.15-.55-.057-1.101-.11-1.652-.165-.14-.014-.226.055-.231.19-.008.229-.116.281-.336.262-.207-.017-.424-.138-.628.017-.135.168-.143.495-.496.383-.107.308-.363.457-.639.586-.01.083-.024.166-.035.251a.457.457 0 01-.358.069c-.1-.017-.207.014-.22.116-.036.286-.163.573-.023.865.119.157.378.044.471.245l-.014.273c-.005.05.017.074.066.072.091.013.18.024.27.038.058.11.083.223.072.35-.011.124.036.22.195.18l.193.024c.066.14.133.336-.005.41-.229.124-.496.006-.746-.019-.144-.014-.122-.143-.113-.248.01-.149-.045-.264-.199-.267-.236-.003-.283-.119-.258-.33.019-.183-.116-.224-.273-.238-.16-.016-.292.014-.303.196-.02.32-.088.634-.08.962.008.275.105.595-.176.82l.077-.785c-.121.036-.201.091-.295.058-.093-.127-.047-.264-.036-.4.017-.228.044-.457.067-.685.01-.133-.039-.218-.18-.248-.14-.033-.209-.017-.308.102l-.077.344c-.231-.017-.46-.03-.691-.052-.132-.011-.29.005-.265-.218.02-.176.091-.25.267-.22.21.033.3-.066.295-.27 0-.1.03-.215.143-.193.447.09.413-.234.457-.496l.367-.02c.261-.14.107-.405.176-.603.039-.11-.011-.297.17-.281.284.028.411-.066.408-.35 0-.09.089-.127.152-.173l.187.013c.229-.2.449-.416.746-.523.011-.006.017-.044.017-.066-.006-.215.096-.281.306-.26.203.023.245-.12.258-.289.014-.173-.055-.261-.225-.278a65.004 65.004 0 01-1.074-.105c-.168-.019-.281.042-.29.212-.01.23-.135.262-.325.232a5.646 5.646 0 00-.484-.047c-.094-.008-.196-.014-.176.135l-.039.26c-.085.032-.179.04-.264.063-.356.09-.48.526-.86.59.02.366-.234.319-.468.305.014-.174.025-.347.039-.518.02-.212-.02-.452.347-.397.344.053.099-.435.383-.468a.567.567 0 01.137.005c.154.017.26-.052.262-.204.005-.259.157-.264.352-.234.138.022.276.03.416.044.146.017.273-.027.276-.187.005-.3.184-.281.399-.262 1.57.16 3.14.314 4.706.466.132.014.276.085.397-.039.074-.03.099-.093.105-.165.035-.386.707-.168.63-.661.066-.011.135-.036.201-.028.198.025.276-.074.292-.253.017-.174-.025-.303-.226-.317-.143-.011-.261-.053-.237-.223.033-.232-.071-.317-.289-.323-.11-.003-.181-.08-.165-.182.06-.33-.151-.36-.391-.372a7.04 7.04 0 01-.416-.04c-.157-.023-.162-.133-.151-.26.01-.121.058-.204.19-.19.38.036.842-.041 1.118.149.212.146.432.454.58.719.092.157.138.259.301.375.242.173.311.55.633.683-.085.377.174.383.427.402.278.022.556.05.832.08.162.02.286-.022.29-.204.005-.226.126-.267.319-.24.148.023.3.025.451.045.163.019.29-.02.298-.199.01-.256.162-.264.355-.234.138.022.278.022.416.044.179.03.275-.044.272-.215-.005-.259.144-.261.342-.242.691.06.691.055.776-.62 0-.011.003-.022.003-.036 0-.182.069-.287.273-.248.198.036.283-.063.283-.248 0-.212.11-.237.292-.223.653.044.71.041.804-.504H0V33h102.152v-7.246a.133.133 0 00-.077.05v-.012zM8.242 28.955H7.221v-1.328h-.915v1.328H5.285v-3.378h1.021v1.163h.915v-1.163h1.021v3.378zm3.368 0l-.148-.476h-1.017l-.148.476h-1.06l1.214-3.378h1.008l1.214 3.378H11.61zm4.043 0c-.102-.16-.107-.27-.113-.416l-.008-.204c-.006-.14.005-.333-.116-.449-.094-.09-.248-.102-.36-.102H14.7v1.169h-1.022v-3.378h1.851c.207 0 .554.027.81.275.226.218.28.502.28.772 0 .212-.04.43-.214.608a.692.692 0 01-.295.174v.025c.14.039.259.127.333.226.121.168.127.339.133.526l.008.276c.005.179.014.314.115.496h-1.043l-.003.002zm6.196 0h-.928v-1.959l.022-.256-.022-.005-.655 2.22h-.747l-.655-2.22-.022.005.022.256v1.96h-.928v-3.379h1.388l.529 1.912.027.232h.022l.033-.232.526-1.912h1.388v3.378zm3.368 0l-.149-.476h-1.016l-.148.476h-1.06l1.214-3.378h1.008l1.214 3.378h-1.063zm5.111 0h-1.021l-1.003-1.873h-.022l.022.256v1.617h-1.021v-3.378h1.021l1.003 1.874h.022l-.022-.256v-1.618h1.021v3.378zm4.486-1.264c0 .322-.022.65-.32.961-.294.309-.715.397-1.194.397-.48 0-.91-.088-1.204-.397-.28-.294-.32-.622-.32-.964V25.58h1.028v2.067c0 .135.02.308.127.424.113.121.267.13.366.13.1 0 .253-.012.366-.13.108-.116.127-.29.127-.424V25.58h1.027v2.113l-.003-.002zm3.977-1.188h-.928v2.452H36.84v-2.452h-.928v-.926h2.878v.926zm3.076 2.452c-.102-.16-.107-.27-.113-.416l-.008-.204c-.006-.14.005-.333-.119-.449-.093-.09-.248-.102-.36-.102h-.356v1.169H39.89v-3.378h1.85c.207 0 .554.027.81.275.226.218.28.502.28.772 0 .212-.04.43-.214.608a.692.692 0 01-.295.174v.025a.64.64 0 01.334.226c.12.168.126.339.132.526l.008.276c.005.179.014.314.118.496H41.87l-.003.002zm3.307 0h-1.021v-3.378h1.021v3.378zm4.211 0h-2.76v-3.378h2.721v.893h-1.701v.38H49.1v.797h-1.456v.416h1.737v.892h.003zm4.31 0h-1.022l-1.002-1.873h-.022l.022.256v1.617h-1.022v-3.378h1.022l1.002 1.874h.022l-.022-.256v-1.618h1.022v3.378zm3.976-2.452h-.928v2.452h-1.021v-2.452h-.928v-.926h2.877v.926zm3.456 2.188c-.327.341-.856.372-1.156.372-.322 0-.823-.033-1.148-.38-.169-.18-.306-.488-.309-.84h1.027a.522.522 0 00.113.366c.119.13.3.135.4.135.099 0 .2-.011.289-.072a.278.278 0 00.12-.242.273.273 0 00-.12-.243c-.089-.063-.276-.11-.383-.135l-.328-.069c-.462-.096-.694-.245-.81-.358-.173-.16-.253-.36-.253-.636 0-.438.226-.686.386-.816.314-.25.713-.284 1.008-.284.253 0 .721.025 1.021.29.163.145.322.416.336.763h-.964a.353.353 0 00-.074-.232c-.047-.052-.14-.107-.32-.107a.598.598 0 00-.28.058.247.247 0 00-.113.198c0 .047.008.11.066.165.08.083.229.108.474.16l.319.072c.22.05.543.13.763.358a.917.917 0 01.253.656c0 .328-.135.636-.308.82h-.009zm2.432.264h-.997v-.994h.997v.994zm3.36 0c-.102-.16-.108-.27-.113-.416l-.008-.204c-.006-.14.005-.333-.119-.449-.093-.09-.248-.102-.36-.102h-.356v1.169h-1.021v-3.378h1.85c.207 0 .554.027.81.275.226.218.28.502.28.772 0 .212-.04.43-.214.608a.692.692 0 01-.295.174v.025a.64.64 0 01.334.226c.12.168.126.339.132.526l.008.276c.005.179.014.314.118.496h-1.043l-.003.002zm5.32-1.264c0 .322-.022.65-.32.961-.294.309-.715.397-1.194.397-.48 0-.91-.088-1.204-.397-.28-.294-.32-.622-.32-.964V25.58h1.028v2.067c0 .135.02.308.127.424.113.121.267.13.366.13.1 0 .253-.012.366-.13.108-.116.127-.29.127-.424V25.58h1.027v2.113l-.003-.002z" fill="#fff"/></svg>