<svg width="94" height="33" fill="none" xmlns="http://www.w3.org/2000/svg"><path d="M53.62 19.78V23H43.5V9h3.84v10.78h6.28zm6.596 3.6c-1.826 0-3.186-.427-4.08-1.28-1.013-.933-1.52-2.28-1.52-4.04 0-1.72.507-3.087 1.52-4.1 1-1 2.42-1.5 4.26-1.5 1.787 0 3.18.453 4.18 1.36 1.027.973 1.54 2.327 1.54 4.06 0 1.68-.513 3.033-1.54 4.06-1 .96-2.453 1.44-4.36 1.44zm.12-2.36c.587 0 1.054-.213 1.4-.64.427-.507.64-1.333.64-2.48 0-1.08-.206-1.893-.62-2.44-.333-.44-.8-.66-1.4-.66-.573 0-1.033.22-1.38.66-.413.533-.62 1.347-.62 2.44 0 1.12.207 1.947.62 2.48.334.427.787.64 1.36.64zm11.366-8.18v1.12c.293-.347.7-.673 1.22-.98.6-.32 1.313-.48 2.14-.48 1.16 0 2.053.3 2.68.9.413.4.686.867.82 1.4.147.52.22 1.173.22 1.96V23h-3.64v-5.66c0-.987-.153-1.633-.46-1.94-.213-.253-.527-.38-.94-.38-.534 0-.954.18-1.26.54-.413.413-.62 1.093-.62 2.04V23h-3.64V12.84h3.48zm10.024 10.84h3.42c.053.293.193.527.42.7.293.2.693.3 1.2.3.6 0 1.033-.133 1.3-.4.333-.333.5-.9.5-1.7v-.96h-.1a3.713 3.713 0 01-1.02.72c-.533.24-1.16.36-1.88.36-1.4 0-2.507-.413-3.32-1.24-.907-.92-1.36-2.207-1.36-3.86s.46-2.94 1.38-3.86c.827-.827 1.933-1.24 3.32-1.24.72 0 1.34.127 1.86.38.427.2.813.513 1.16.94h.08v-.98h3.5v9.18c0 .76-.073 1.427-.22 2-.147.587-.46 1.12-.94 1.6-.88.88-2.28 1.32-4.2 1.32-1.92 0-3.293-.413-4.12-1.24-.507-.507-.833-1.18-.98-2.02zm2.92-6.06c0 .907.2 1.607.6 2.1.387.427.867.64 1.44.64.653 0 1.147-.233 1.48-.7.347-.48.52-1.167.52-2.06 0-.88-.18-1.547-.54-2-.36-.467-.853-.7-1.48-.7-.587 0-1.087.247-1.5.74-.347.44-.52 1.1-.52 1.98zM27.319 5.686A15.91 15.91 0 0016 1 15.91 15.91 0 004.681 5.686c-6.241 6.239-6.241 16.39 0 22.628A15.906 15.906 0 0016 33a15.91 15.91 0 0011.319-4.686c6.241-6.239 6.241-16.39 0-22.628zm.2 2.353zm3.07 9.054zm-.053-1.328zm-.163-1.276zm-.087-.46zm-.09-.413zm-.37-1.29c-.035-.102-.07-.206-.108-.308.038.102.073.204.108.308zm-.141-.4zm-.33-.815zm-.2-.434l-.134-.27c.047.089.09.18.134.27zm-.619-1.153zm-.496-.775c-.056-.082-.115-.164-.172-.245.058.08.116.163.172.245zm-.243-.343zm-.601-.768zm-.578-.65zm-.297 20.326A14.503 14.503 0 0116 31.587a14.5 14.5 0 01-10.32-4.273c-5.692-5.69-5.692-14.945 0-20.634A14.503 14.503 0 0116 2.407a14.49 14.49 0 019.61 3.609c-3.462-3.032-8.027-4.149-12.303-3.353-.68.45-1.326.97-1.923 1.568-4.801 4.8-4.801 12.582 0 17.381 4.801 4.8 12.587 4.8 17.389 0a12.323 12.323 0 001.568-1.922 14.508 14.508 0 01-4.019 7.625l-.001-.001zm-.004-20.638zm-.387-.371zM30.588 17.1zm-.01.444z" fill="#000"/></svg>