<svg width="189" height="66" fill="none" xmlns="http://www.w3.org/2000/svg"><g clip-path="url(#clip0_331_4364)" fill="#000"><path d="M109.932 38.701v6.641H89.184V16.467h7.872v22.234h12.876zm13.524 7.425c-3.745 0-6.534-.88-8.365-2.64-2.078-1.925-3.116-4.703-3.116-8.332 0-3.548 1.038-6.367 3.116-8.457 2.05-2.062 4.961-3.093 8.734-3.093 3.663 0 6.519.934 8.57 2.805 2.104 2.007 3.157 4.798 3.157 8.373 0 3.465-1.053 6.257-3.157 8.374-2.051 1.98-5.03 2.97-8.939 2.97zm.246-4.867c1.202 0 2.159-.44 2.87-1.32.875-1.045 1.312-2.75 1.312-5.115 0-2.228-.424-3.905-1.271-5.033-.683-.907-1.64-1.361-2.87-1.361-1.176 0-2.119.454-2.83 1.361-.847 1.1-1.271 2.777-1.271 5.033 0 2.31.424 4.015 1.271 5.114.684.88 1.613 1.32 2.789 1.32zm23.301-16.872v2.31c.602-.715 1.435-1.389 2.501-2.021 1.231-.66 2.693-.99 4.388-.99 2.378 0 4.21.619 5.494 1.856.848.825 1.408 1.788 1.682 2.888.3 1.072.451 2.42.451 4.042v12.87h-7.463V33.67c0-2.035-.314-3.37-.943-4.002-.438-.522-1.08-.784-1.927-.784-1.094 0-1.955.372-2.584 1.114-.847.853-1.271 2.255-1.271 4.208v11.137h-7.463V24.387h7.135zm20.552 22.358h7.011c.11.605.397 1.086.861 1.444.602.412 1.422.618 2.461.618 1.23 0 2.118-.275 2.665-.825.683-.687 1.025-1.856 1.025-3.506v-1.98h-.205a7.6 7.6 0 01-2.091 1.485c-1.094.495-2.378.742-3.855.742-2.87 0-5.139-.852-6.806-2.557-1.859-1.897-2.789-4.551-2.789-7.961s.944-6.064 2.83-7.961c1.695-1.706 3.963-2.558 6.806-2.558 1.477 0 2.748.261 3.814.784.875.412 1.667 1.059 2.378 1.939h.164v-2.022H189v18.934c0 1.568-.151 2.943-.451 4.125-.301 1.21-.943 2.31-1.928 3.3-1.804 1.815-4.674 2.722-8.61 2.722-3.937 0-6.752-.852-8.447-2.557-1.039-1.045-1.709-2.434-2.009-4.166zm5.986-12.499c0 1.87.41 3.314 1.23 4.331.793.88 1.777 1.32 2.953 1.32 1.339 0 2.351-.481 3.034-1.444.711-.99 1.066-2.406 1.066-4.248 0-1.815-.369-3.19-1.107-4.125-.738-.963-1.75-1.444-3.034-1.444-1.203 0-2.228.509-3.076 1.526-.71.908-1.066 2.269-1.066 4.084zM56.01 9.633C49.81 3.4 41.568-.033 32.803-.033 24.04-.033 15.797 3.4 9.597 9.633c-12.796 12.867-12.796 33.804 0 46.669 6.198 6.232 14.44 9.665 23.206 9.665 8.767 0 17.006-3.433 23.207-9.665 12.795-12.867 12.795-33.804 0-46.67zm.41 4.852zm6.292 18.673zm-.107-2.737c-.023-.262-.046-.524-.076-.785.028.261.053.523.076.785zm-.334-2.633zm-.179-.95zm-.186-.851zm-.758-2.66zm-.288-.824zm-.676-1.68zm-.41-.896zm-1.269-2.379c-.125-.213-.255-.423-.385-.634.132.21.26.421.385.634zm-1.018-1.598c-.115-.17-.235-.34-.352-.506.12.167.237.336.352.506zm-.498-.708zm-1.232-1.584zm-1.184-1.341zm-.61 41.922c-5.651 5.683-13.166 8.814-21.16 8.814s-15.508-3.13-21.16-8.814c-11.668-11.733-11.668-30.823 0-42.556 5.652-5.684 13.166-8.814 21.16-8.814 7.326 0 14.248 2.63 19.703 7.444C45.408 4.06 36.05 1.756 27.282 3.398A25.185 25.185 0 0023.34 6.63c-9.844 9.898-9.844 25.95 0 35.849 9.844 9.899 25.806 9.899 35.65 0a25.397 25.397 0 003.215-3.964 29.988 29.988 0 01-8.239 15.726l-.003-.003zm-.007-42.564zm-.794-.767zm9.55 22.266zm-.02.916z"/></g><defs><clipPath id="clip0_331_4364"><path fill="#fff" d="M0 0h189v66H0z"/></clipPath></defs></svg>