<svg width="100" height="32" fill="none" xmlns="http://www.w3.org/2000/svg"><path d="M42.7 18.42h3.86c-.027.64.133 1.153.48 1.54.36.4.987.6 1.88.6.667 0 1.2-.12 1.6-.36.44-.253.66-.647.66-1.18 0-.44-.207-.787-.62-1.04a2.527 2.527 0 00-.46-.18c-.2-.067-.42-.133-.66-.2l-.38-.1-1.44-.32-.58-.12a22.76 22.76 0 00-.64-.16c-.12-.04-.313-.1-.58-.18-.267-.093-.48-.173-.64-.24-.147-.08-.32-.18-.52-.3a3.782 3.782 0 01-.5-.38c-.747-.68-1.12-1.593-1.12-2.74 0-1.333.533-2.407 1.6-3.22 1.027-.813 2.42-1.22 4.18-1.22 1.76 0 3.087.333 3.98 1 1.013.787 1.56 1.887 1.64 3.3h-3.62c-.013-.48-.187-.84-.52-1.08-.32-.253-.82-.38-1.5-.38-.6 0-1.08.127-1.44.38-.333.24-.5.513-.5.82 0 .373.127.667.38.88l.08.08a.25.25 0 01.1.06c.04.013.087.033.14.06.053.013.1.027.14.04l.18.06c.08.013.147.027.2.04.067.013.153.033.26.06.12.027.22.053.3.08.093.013.213.04.36.08.16.027.293.053.4.08l1.58.36c1.24.32 2.167.74 2.78 1.26.8.707 1.2 1.66 1.2 2.86 0 1.333-.453 2.427-1.36 3.28-1.08.987-2.68 1.48-4.8 1.48-2.08 0-3.64-.493-4.68-1.48-.947-.947-1.42-2.12-1.42-3.52zM60.592 9v4.86c.387-.427.8-.747 1.24-.96.534-.267 1.16-.4 1.88-.4 1.147 0 2.074.3 2.78.9.667.653 1 1.773 1 3.36V23h-3.62v-6.12c0-.707-.153-1.213-.46-1.52-.226-.227-.553-.34-.98-.34-.453 0-.84.16-1.16.48-.453.453-.68 1.207-.68 2.26V23h-3.64V9h3.64zm14.605 14.38c-1.827 0-3.187-.427-4.08-1.28-1.014-.933-1.52-2.28-1.52-4.04 0-1.72.507-3.087 1.52-4.1 1-1 2.42-1.5 4.26-1.5 1.787 0 3.18.453 4.18 1.36 1.026.973 1.54 2.327 1.54 4.06 0 1.68-.513 3.033-1.54 4.06-1 .96-2.454 1.44-4.36 1.44zm.12-2.36c.587 0 1.053-.213 1.4-.64.427-.507.64-1.333.64-2.48 0-1.08-.207-1.893-.62-2.44-.334-.44-.8-.66-1.4-.66-.574 0-1.034.22-1.38.66-.413.533-.62 1.347-.62 2.44 0 1.12.206 1.947.62 2.48.333.427.787.64 1.36.64zm15.385-8.48v2.62a6.654 6.654 0 00-.9-.06c-.973 0-1.713.253-2.22.76-.546.547-.82 1.607-.82 3.18V23h-3.64V12.84h3.54v1.54c.32-.587.747-1.033 1.28-1.34.574-.333 1.26-.5 2.06-.5h.7zm1.187 2.7v-2.4h1.84V9.82h3.62v3.02h2.16v2.4h-2.16v4.12c0 .52.08.88.24 1.08.2.2.527.3.98.3.28 0 .594-.053.94-.16v2.44c-.84.187-1.646.28-2.42.28-1.213 0-2.086-.247-2.62-.74-.493-.467-.74-1.273-.74-2.42v-4.9h-1.84zM16 0C7.178 0 0 7.178 0 16s7.178 16 16 16 16-7.178 16-16S24.822 0 16 0zm10.311 5.689l-.01-.011.01.01zM1.411 16C1.41 7.955 7.955 1.41 16 1.41v29.18C7.955 30.59 1.41 24.044 1.41 16z" fill="#000"/></svg>