<svg width="205" height="66" fill="none" xmlns="http://www.w3.org/2000/svg"><path d="M87.967 37.992h7.952c-.055 1.32.275 2.378.989 3.176.741.825 2.032 1.237 3.873 1.237 1.373 0 2.472-.247 3.296-.742.906-.523 1.359-1.334 1.359-2.434 0-.907-.425-1.622-1.277-2.145-.192-.11-.508-.234-.947-.371a28.243 28.243 0 00-1.36-.413l-.783-.206-2.966-.66c-.138-.027-.536-.11-1.195-.247a43.89 43.89 0 00-1.319-.33 46.233 46.233 0 00-1.195-.372 24.307 24.307 0 01-1.318-.495c-.302-.165-.66-.37-1.071-.618a7.788 7.788 0 01-1.03-.784c-1.539-1.403-2.308-3.286-2.308-5.651 0-2.75 1.099-4.964 3.296-6.642 2.115-1.677 4.986-2.516 8.612-2.516 3.625 0 6.358.688 8.199 2.063 2.087 1.622 3.214 3.89 3.378 6.806h-7.457c-.028-.99-.385-1.733-1.071-2.228-.66-.522-1.69-.783-3.091-.783-1.236 0-2.225.26-2.966.783-.687.495-1.03 1.06-1.03 1.692 0 .77.26 1.375.783 1.815l.165.165a.517.517 0 01.206.123c.082.028.178.07.288.124.11.028.206.055.288.083l.371.123c.165.028.302.055.412.083.138.027.316.069.536.124.247.055.453.11.618.165.192.027.439.082.741.165.33.055.605.11.824.165l3.255.742c2.555.66 4.464 1.526 5.728 2.599 1.648 1.457 2.472 3.424 2.472 5.899 0 2.75-.934 5.005-2.802 6.765-2.225 2.035-5.521 3.052-9.889 3.052-4.285 0-7.498-1.017-9.64-3.052-1.951-1.953-2.926-4.373-2.926-7.26zm36.86-19.429v10.024c.796-.88 1.648-1.54 2.554-1.98 1.099-.55 2.39-.825 3.873-.825 2.363 0 4.272.618 5.727 1.856 1.374 1.347 2.061 3.657 2.061 6.93v12.87h-7.458V34.815c0-1.457-.316-2.502-.948-3.135-.467-.467-1.14-.7-2.019-.7-.933 0-1.73.33-2.389.99-.934.934-1.401 2.488-1.401 4.66v10.808h-7.499V18.563h7.499zm30.087 29.659c-3.763 0-6.565-.88-8.405-2.64-2.088-1.925-3.132-4.703-3.132-8.333 0-3.547 1.044-6.366 3.132-8.456 2.06-2.063 4.985-3.094 8.776-3.094 3.68 0 6.551.935 8.611 2.805 2.115 2.008 3.172 4.799 3.172 8.374 0 3.465-1.057 6.256-3.172 8.374-2.06 1.98-5.054 2.97-8.982 2.97zm.247-4.868c1.209 0 2.17-.44 2.884-1.32.879-1.045 1.319-2.75 1.319-5.115 0-2.227-.426-3.905-1.278-5.032-.686-.908-1.648-1.362-2.884-1.362-1.181 0-2.129.454-2.843 1.362-.851 1.1-1.277 2.777-1.277 5.032 0 2.31.426 4.015 1.277 5.115.687.88 1.621 1.32 2.802 1.32zm31.696-17.49v5.404a13.708 13.708 0 00-1.854-.124c-2.006 0-3.53.523-4.574 1.568-1.126 1.127-1.689 3.313-1.689 6.558v8.168h-7.499V26.483h7.293v3.176c.659-1.21 1.538-2.131 2.637-2.764 1.181-.687 2.595-1.03 4.244-1.03h1.442zm2.445 5.569v-4.95h3.791v-6.229h7.457v6.229H205v4.95h-4.45v8.497c0 1.073.165 1.815.495 2.228.412.412 1.085.619 2.019.619.576 0 1.222-.11 1.936-.33v5.032c-1.73.385-3.392.578-4.985.578-2.5 0-4.299-.51-5.398-1.527-1.016-.962-1.524-2.626-1.524-4.99V31.432h-3.791zM32.962 0C14.787 0 0 14.804 0 33c0 18.196 14.787 33 32.962 33 18.174 0 32.961-14.804 32.961-33 0-18.196-14.787-33-32.961-33zm21.242 11.733l-.023-.023.023.023zM2.906 33c0-16.592 13.483-30.09 30.056-30.09v60.18C16.389 63.09 2.906 49.593 2.906 33z" fill="#000"/></svg>