<svg width="320" height="60" viewBox="0 0 320 60" fill="none" xmlns="http://www.w3.org/2000/svg">
<path d="M30 0C13.4582 0 0 13.4582 0 30C0 46.5418 13.4582 60 30 60C46.5418 60 60 46.5418 60 30C60 13.4582 46.5418 0 30 0ZM27.369 57.2267L27.3293 36.1297L18.2071 54.6797C17.0922 54.1455 16.0169 53.5344 14.993 52.858L21.7734 36.1297L8.50879 46.9056C7.76707 45.9656 7.08832 44.9743 6.47256 43.9411L15.5178 36.1297H3.33774C2.88524 34.1588 2.645 32.1062 2.645 30C2.645 14.916 14.916 2.645 30 2.645C45.084 2.645 57.355 14.916 57.355 30C57.355 32.1062 57.1148 34.1588 56.6623 36.1297H44.2256L53.4411 44.0857C52.8207 45.112 52.135 46.0963 51.3909 47.0292L37.9723 36.1274L44.8064 52.9886C43.7778 53.6534 42.7025 54.2505 41.5853 54.773L32.4141 36.1274L32.3744 57.2477C31.5907 57.3153 30.7977 57.3527 29.9977 57.3527C29.109 57.3527 28.232 57.3084 27.3667 57.2267H27.369Z" fill="#0B0B0B"/>
<path d="M116.667 0C100.125 0 86.6667 13.4582 86.6667 30C86.6667 46.5417 100.125 60 116.667 60C133.208 60 146.667 46.5417 146.667 30C146.667 13.4582 133.208 0 116.667 0ZM116.667 57.355V2.645C131.751 2.645 144.022 14.916 144.022 30C144.022 45.084 131.751 57.355 116.667 57.355Z" fill="#0B0B0B"/>
<path d="M233.333 30C233.333 13.4582 219.875 0 203.333 0C186.792 0 173.333 13.4582 173.333 30C173.333 46.5418 186.792 60 203.333 60C219.875 60 233.333 46.5418 233.333 30ZM203.333 2.645C212.696 2.645 220.974 7.37288 225.907 14.5662C226.212 16.0613 226.378 17.6077 226.378 19.1914C226.378 31.9173 216.062 42.236 203.333 42.236C190.605 42.236 180.289 31.9196 180.289 19.1914C180.289 17.6053 180.454 16.0613 180.76 14.5662C185.693 7.37288 193.971 2.645 203.333 2.645Z" fill="#0B0B0B"/>
<path d="M290 0C273.458 0 260 13.4582 260 30C260 46.5417 273.458 60 290 60C306.542 60 320 46.5417 320 30C320 13.4582 306.542 0 290 0ZM288.176 57.292V32.6707H262.776C262.689 31.7913 262.645 30.9003 262.645 30C262.645 29.6735 262.652 29.3492 262.664 29.025H288.176V2.70798C288.778 2.66833 289.387 2.645 290 2.645C290.613 2.645 291.22 2.66833 291.824 2.70798V29.025H317.336C317.348 29.3492 317.355 29.6735 317.355 30C317.355 30.9003 317.311 31.7913 317.224 32.6707H291.824V57.292C291.222 57.3317 290.613 57.355 290 57.355C289.387 57.355 288.78 57.3317 288.176 57.292Z" fill="#0B0B0B"/>
</svg>
