<svg width="301" height="300" viewBox="0 0 301 300" fill="none" xmlns="http://www.w3.org/2000/svg">
<path d="M300.381 70.5509C300.381 31.6497 268.731 0 229.83 0C190.929 0 159.279 31.6497 159.279 70.5509C159.279 109.452 190.929 141.102 229.83 141.102C268.731 141.102 300.381 109.452 300.381 70.5509ZM229.83 6.22024C251.848 6.22024 271.315 17.3388 282.916 34.2552C283.635 37.7712 284.024 41.4079 284.024 45.1324C284.024 75.0598 259.763 99.3264 229.83 99.3264C199.897 99.3264 175.636 75.0653 175.636 45.1324C175.636 41.4025 176.026 37.7712 176.744 34.2552C188.345 17.3388 207.813 6.22024 229.83 6.22024Z" fill="#0B0B0B"/>
<path d="M70.5509 0C31.6497 0 0 31.6497 0 70.5509C0 109.452 31.6497 141.102 70.5509 141.102C109.452 141.102 141.102 109.452 141.102 70.5509C141.102 31.6497 109.452 0 70.5509 0ZM64.3636 134.58L64.2703 84.9661L42.8176 128.59C40.1957 127.334 37.667 125.897 35.259 124.306L51.2045 84.9661L20.0101 110.308C18.2658 108.097 16.6696 105.766 15.2215 103.336L36.4932 84.9661H7.84935C6.78522 80.3311 6.22024 75.5041 6.22024 70.5509C6.22024 35.078 35.078 6.22024 70.5509 6.22024C106.024 6.22024 134.882 35.078 134.882 70.5509C134.882 75.5041 134.317 80.3311 133.252 84.9661H104.005L125.677 103.676C124.218 106.09 122.606 108.404 120.856 110.599L89.2994 84.9606L105.371 124.613C102.952 126.177 100.423 127.581 97.796 128.809L76.2281 84.9606L76.1349 134.629C74.2918 134.788 72.4269 134.876 70.5454 134.876C68.4556 134.876 66.3931 134.772 64.3581 134.58H64.3636Z" fill="#0B0B0B"/>
<path d="M70.5509 158.09C31.6497 158.09 0 189.739 0 228.64C0 267.542 31.6497 299.191 70.5509 299.191C109.452 299.191 141.102 267.542 141.102 228.64C141.102 189.739 109.452 158.09 70.5509 158.09ZM70.5509 292.971V164.31C106.024 164.31 134.882 193.168 134.882 228.64C134.882 264.113 106.024 292.971 70.5509 292.971Z" fill="#0B0B0B"/>
<path d="M229.83 158.09C190.929 158.09 159.279 189.739 159.279 228.64C159.279 267.542 190.929 299.191 229.83 299.191C268.731 299.191 300.381 267.542 300.381 228.64C300.381 189.739 268.731 158.09 229.83 158.09ZM225.541 292.823V234.921H165.807C165.604 232.853 165.5 230.758 165.5 228.64C165.5 227.873 165.516 227.11 165.543 226.348H225.541V164.458C226.956 164.365 228.388 164.31 229.83 164.31C231.273 164.31 232.699 164.365 234.12 164.458V226.348H294.117C294.144 227.11 294.161 227.873 294.161 228.64C294.161 230.758 294.057 232.853 293.854 234.921H234.12V292.823C232.704 292.916 231.273 292.971 229.83 292.971C228.388 292.971 226.961 292.916 225.541 292.823Z" fill="#0B0B0B"/>
</svg>
