<svg width="54" height="54" viewBox="0 0 54 54" fill="none" xmlns="http://www.w3.org/2000/svg">
<g clip-path="url(#clip0_299_3383)">
<path d="M48.9168 44.7189C45.7681 39.2947 40.728 35.2236 34.7629 33.2861C37.6221 31.5858 39.844 28.9939 41.0873 25.9084C42.3306 22.8229 42.5264 19.4146 41.6448 16.207C40.7632 12.9994 38.8528 10.17 36.2071 8.15342C33.5615 6.13685 30.327 5.04468 27.0004 5.04468C23.6739 5.04468 20.4393 6.13685 17.7937 8.15342C15.1481 10.17 13.2377 12.9994 12.356 16.207C11.4744 19.4146 11.6702 22.8229 12.9135 25.9084C14.1568 28.9939 16.3787 31.5858 19.2379 33.2861C13.2728 35.2236 8.23275 39.2947 5.08401 44.7189C4.92942 44.9732 4.84766 45.265 4.84766 45.5626C4.84766 45.8602 4.92942 46.1521 5.08401 46.4064C5.22824 46.665 5.43958 46.8798 5.69575 47.0283C5.95191 47.1768 6.2434 47.2535 6.53948 47.2501H47.4614C47.7574 47.2535 48.0489 47.1768 48.3051 47.0283C48.5612 46.8798 48.7726 46.665 48.9168 46.4064C49.0714 46.1521 49.1532 45.8602 49.1532 45.5626C49.1532 45.265 49.0714 44.9732 48.9168 44.7189Z" fill="black"/>
</g>
<defs>
<clipPath id="clip0_299_3383">
<rect width="54" height="54" fill="white"/>
</clipPath>
</defs>
</svg>
