<svg width="54" height="54" viewBox="0 0 54 54" fill="none" xmlns="http://www.w3.org/2000/svg">
<g clip-path="url(#clip0_299_3380)">
<path d="M36.7031 10.0828C34.0956 7.07307 31.1673 4.35698 27.9703 1.9828C27.685 1.78596 27.3466 1.68054 27 1.68054C26.6534 1.68054 26.315 1.78596 26.0297 1.9828C22.8327 4.35698 19.9044 7.07307 17.2969 10.0828C11.4961 16.7273 8.4375 23.7515 8.4375 30.375C8.4375 35.2981 10.3932 40.0195 13.8743 43.5007C17.3555 46.9818 22.0769 48.9375 27 48.9375C31.9231 48.9375 36.6445 46.9818 40.1257 43.5007C43.6068 40.0195 45.5625 35.2981 45.5625 30.375C45.5625 23.7515 42.5039 16.7273 36.7031 10.0828ZM38.6437 32.3578C38.2346 34.7692 37.0844 36.9933 35.353 38.7209C33.6217 40.4485 31.3951 41.5938 28.9828 41.9976H28.7086C28.2834 41.9998 27.8731 41.8413 27.5597 41.5539C27.2463 41.2665 27.053 40.8715 27.0183 40.4477C26.9837 40.0239 27.1103 39.6027 27.3728 39.2682C27.6354 38.9337 28.0145 38.7107 28.4344 38.6437C30.1537 38.3559 31.7404 37.5386 32.9731 36.3059C34.2058 35.0732 35.0231 33.4865 35.3109 31.7672C35.3491 31.548 35.4302 31.3386 35.5496 31.151C35.669 30.9633 35.8244 30.8011 36.0067 30.6737C36.189 30.5463 36.3947 30.4561 36.6119 30.4085C36.8292 30.3609 37.0538 30.3566 37.2727 30.3961C37.4931 30.4316 37.7041 30.511 37.8932 30.6296C38.0823 30.7483 38.2457 30.9037 38.3735 31.0866C38.5014 31.2696 38.5912 31.4764 38.6377 31.6948C38.6841 31.9132 38.6862 32.1386 38.6437 32.3578Z" fill="black"/>
</g>
<defs>
<clipPath id="clip0_299_3380">
<rect width="54" height="54" fill="white"/>
</clipPath>
</defs>
</svg>
