<svg width="54" height="54" viewBox="0 0 54 54" fill="none" xmlns="http://www.w3.org/2000/svg">
<g clip-path="url(#clip0_299_3362)">
<path d="M48.4945 14.9344C48.489 14.9344 48.4836 14.9322 48.4796 14.9283C48.4757 14.9243 48.4735 14.9189 48.4735 14.9133C48.1686 14.3943 47.732 13.9649 47.2078 13.6688L28.6453 3.2274C28.1424 2.94661 27.576 2.79919 27 2.79919C26.424 2.79919 25.8576 2.94661 25.3547 3.2274L6.7922 13.6688C6.26807 13.9649 5.83146 14.3943 5.52658 14.9133C5.52658 14.9189 5.52435 14.9243 5.5204 14.9283C5.51644 14.9322 5.51108 14.9344 5.50548 14.9344V14.9766C5.21386 15.4681 5.06078 16.0294 5.06251 16.6008V37.3993C5.06358 38.0006 5.22427 38.5908 5.52817 39.1096C5.83207 39.6285 6.26827 40.0574 6.7922 40.3524L25.3547 50.7938C25.822 51.0487 26.3416 51.1931 26.8735 51.2157H27.1688C27.6872 51.1927 28.193 51.0482 28.6453 50.7938L47.2078 40.3524C47.7318 40.0574 48.168 39.6285 48.4719 39.1096C48.7758 38.5908 48.9365 38.0006 48.9375 37.3993V16.6008C48.9406 16.0159 48.7877 15.4407 48.4945 14.9344ZM27 6.15944L43.8117 15.6094L37.357 19.2797L20.3344 9.89303L27 6.15944ZM27.1899 25.0594L10.2094 15.6094L16.875 11.8547L33.9188 21.2415L27.1899 25.0594ZM28.7086 46.8915L28.8774 27.9915L35.6485 24.1313V32.168C35.6485 32.6156 35.8262 33.0448 36.1427 33.3613C36.4592 33.6777 36.8884 33.8555 37.336 33.8555C37.7835 33.8555 38.2127 33.6777 38.5292 33.3613C38.8457 33.0448 39.0235 32.6156 39.0235 32.168V22.2118L45.5625 18.4993V37.3993L28.7086 46.8915Z" fill="black"/>
</g>
<defs>
<clipPath id="clip0_299_3362">
<rect width="54" height="54" fill="white"/>
</clipPath>
</defs>
</svg>
