<svg width="125" height="32" viewBox="0 0 125 32" fill="none" xmlns="http://www.w3.org/2000/svg">
<path d="M43.5 9L51.18 9.02C52.66 9.02 53.74 9.34667 54.42 10C55.0467 10.6 55.36 11.4333 55.36 12.5C55.36 13.38 55.1 14.08 54.58 14.6C54.1933 15.0267 53.6867 15.32 53.06 15.48V15.54C53.8867 15.6733 54.58 16.0067 55.14 16.54C55.74 17.14 56.04 17.9467 56.04 18.96C56.04 20.08 55.7 21.0067 55.02 21.74C54.2067 22.58 52.9267 23 51.18 23H43.5V9ZM47.34 11.94V14.46H49.84C50.4133 14.46 50.8467 14.3133 51.14 14.02C51.38 13.8067 51.5 13.4933 51.5 13.08C51.5 12.7333 51.3733 12.4467 51.12 12.22C50.88 12.0333 50.52 11.94 50.04 11.94H47.34ZM47.34 17.2V20.06H50.36C50.8667 20.06 51.28 19.9333 51.6 19.68C51.8933 19.44 52.04 19.0867 52.04 18.62C52.04 18.1667 51.8867 17.8067 51.58 17.54C51.3 17.3133 50.86 17.2 50.26 17.2H47.34ZM63.2438 23.38C61.4171 23.38 60.0571 22.9533 59.1638 22.1C58.1504 21.1667 57.6438 19.82 57.6438 18.06C57.6438 16.34 58.1504 14.9733 59.1638 13.96C60.1638 12.96 61.5838 12.46 63.4238 12.46C65.2104 12.46 66.6038 12.9133 67.6038 13.82C68.6304 14.7933 69.1438 16.1467 69.1438 17.88C69.1438 19.56 68.6304 20.9133 67.6038 21.94C66.6038 22.9 65.1504 23.38 63.2438 23.38ZM63.3638 21.02C63.9504 21.02 64.4171 20.8067 64.7638 20.38C65.1904 19.8733 65.4038 19.0467 65.4038 17.9C65.4038 16.82 65.1971 16.0067 64.7838 15.46C64.4504 15.02 63.9838 14.8 63.3838 14.8C62.8104 14.8 62.3504 15.02 62.0038 15.46C61.5904 15.9933 61.3838 16.8067 61.3838 17.9C61.3838 19.02 61.5904 19.8467 62.0038 20.38C62.3371 20.8067 62.7904 21.02 63.3638 21.02ZM76.3492 23.38C74.5226 23.38 73.1626 22.9533 72.2692 22.1C71.2559 21.1667 70.7492 19.82 70.7492 18.06C70.7492 16.34 71.2559 14.9733 72.2692 13.96C73.2692 12.96 74.6892 12.46 76.5292 12.46C78.3159 12.46 79.7092 12.9133 80.7092 13.82C81.7359 14.7933 82.2492 16.1467 82.2492 17.88C82.2492 19.56 81.7359 20.9133 80.7092 21.94C79.7092 22.9 78.2559 23.38 76.3492 23.38ZM76.4692 21.02C77.0559 21.02 77.5226 20.8067 77.8692 20.38C78.2959 19.8733 78.5092 19.0467 78.5092 17.9C78.5092 16.82 78.3026 16.0067 77.8892 15.46C77.5559 15.02 77.0892 14.8 76.4892 14.8C75.9159 14.8 75.4559 15.02 75.1092 15.46C74.6959 15.9933 74.4892 16.8067 74.4892 17.9C74.4892 19.02 74.6959 19.8467 75.1092 20.38C75.4426 20.8067 75.8959 21.02 76.4692 21.02ZM83.6547 19.72H87.2747C87.208 20.2 87.3347 20.5867 87.6547 20.88C87.9214 21.12 88.3414 21.24 88.9147 21.24C89.3814 21.24 89.7547 21.1533 90.0347 20.98C90.328 20.7933 90.4747 20.52 90.4747 20.16C90.4747 19.8133 90.328 19.5533 90.0347 19.38C89.7947 19.2333 89.3214 19.1067 88.6147 19L87.5747 18.84C86.1747 18.6133 85.2347 18.2733 84.7547 17.82C84.2347 17.3267 83.9747 16.6867 83.9747 15.9C83.9747 15.0467 84.268 14.3133 84.8547 13.7C85.6947 12.86 87.0814 12.44 89.0147 12.44C90.7347 12.44 91.9814 12.84 92.7547 13.64C93.2614 14.1467 93.5347 14.8267 93.5747 15.68H90.4147C90.4147 15.32 90.308 15.0333 90.0947 14.82C89.8547 14.58 89.468 14.46 88.9347 14.46C88.4414 14.46 88.0747 14.5533 87.8347 14.74C87.5814 14.9267 87.4547 15.1667 87.4547 15.46C87.4547 15.7667 87.5747 15.9933 87.8147 16.14C88.0414 16.2867 88.4347 16.4067 88.9947 16.5L90.4547 16.72C91.8014 16.92 92.748 17.3 93.2947 17.86C93.7747 18.38 94.0147 19.0267 94.0147 19.8C94.0147 20.7333 93.7214 21.4933 93.1347 22.08C92.268 22.9467 90.8147 23.38 88.7747 23.38C86.748 23.38 85.3347 22.9333 84.5347 22.04C83.9614 21.4 83.668 20.6267 83.6547 19.72ZM94.8972 15.24V12.84H96.7372V9.82H100.357V12.84H102.517V15.24H100.357V19.36C100.357 19.88 100.437 20.24 100.597 20.44C100.797 20.64 101.124 20.74 101.577 20.74C101.857 20.74 102.171 20.6867 102.517 20.58V23.02C101.677 23.2067 100.871 23.3 100.097 23.3C98.8839 23.3 98.0105 23.0533 97.4772 22.56C96.9839 22.0933 96.7372 21.2867 96.7372 20.14V15.24H94.8972ZM111.298 20.06H114.898C114.578 21.1267 113.991 21.94 113.138 22.5C112.245 23.0867 111.025 23.38 109.478 23.38C107.531 23.38 106.085 22.8867 105.138 21.9C104.191 20.9133 103.718 19.6267 103.718 18.04C103.718 16.3733 104.245 15.0133 105.298 13.96C106.298 12.96 107.718 12.46 109.558 12.46C111.371 12.46 112.738 12.94 113.658 13.9C114.605 14.8733 115.078 16.4 115.078 18.48V18.7H107.458C107.431 19.54 107.665 20.1867 108.158 20.64C108.505 20.9467 108.985 21.1 109.598 21.1C110.051 21.1 110.425 21.0067 110.718 20.82C111.025 20.6333 111.218 20.38 111.298 20.06ZM107.458 16.86H111.338C111.338 16.2333 111.171 15.7067 110.838 15.28C110.518 14.9067 110.058 14.72 109.458 14.72C108.911 14.72 108.465 14.88 108.118 15.2C107.705 15.6133 107.485 16.1667 107.458 16.86ZM124.687 12.54V15.16C124.393 15.12 124.093 15.1 123.787 15.1C122.813 15.1 122.073 15.3533 121.567 15.86C121.02 16.4067 120.747 17.4667 120.747 19.04V23H117.107V12.84H120.647V14.38C120.967 13.7933 121.393 13.3467 121.927 13.04C122.5 12.7067 123.187 12.54 123.987 12.54H124.687Z" fill="black"/>
<path d="M16 0C7.17773 0 0 7.17773 0 16C0 24.8223 7.17773 32 16 32C24.8223 32 32 24.8223 32 16C32 7.17773 24.8223 0 16 0ZM17.2875 19.2692L22.1788 29.2135C22.4736 29.0754 22.7647 28.9261 23.0484 28.7694C21.2247 29.7795 19.1622 30.4114 16.9703 30.5557C17.0698 30.5495 17.1693 30.5421 17.2676 30.5334L17.2888 19.2692H17.2875ZM14.5968 30.5209C14.8269 30.5433 15.0596 30.5595 15.2922 30.5719C13.3018 30.4761 11.416 29.9798 9.71047 29.1625L14.5757 19.2692L14.5968 30.5209ZM8.27741 19.2692L3.45327 23.4352C3.61499 23.7064 3.78541 23.9726 3.9633 24.2326C2.87607 22.6478 2.09361 20.8391 1.69927 18.891C1.72539 19.0179 1.75152 19.1435 1.78013 19.2692H8.27616H8.27741ZM30.2199 19.2692C29.8342 20.946 29.1588 22.5135 28.2494 23.9154C28.3353 23.7823 28.4198 23.648 28.5019 23.5124L23.587 19.2692H30.2199ZM30.5893 16.01C30.5893 16.1406 30.5868 16.2699 30.5844 16.3993C30.5881 16.2699 30.5893 16.1406 30.5893 16.01ZM30.5794 16.5299C30.5757 16.6195 30.5732 16.7091 30.5682 16.7974C30.5732 16.7091 30.5769 16.6195 30.5794 16.5299ZM30.5582 16.9467C30.5533 17.03 30.547 17.1121 30.5408 17.1942C30.547 17.1121 30.5533 17.0288 30.5582 16.9467ZM30.5271 17.3472C30.5197 17.4293 30.5122 17.5102 30.5023 17.591C30.511 17.5102 30.5197 17.4281 30.5271 17.3472ZM30.4861 17.7403C30.4761 17.8237 30.4649 17.9058 30.4537 17.9879C30.4649 17.9058 30.4761 17.8224 30.4861 17.7403ZM30.4351 18.1284C30.4226 18.2155 30.409 18.3014 30.394 18.3884C30.4077 18.3026 30.4226 18.2155 30.4351 18.1284ZM30.3741 18.5128C30.358 18.6086 30.3393 18.7044 30.3206 18.7989C30.3393 18.7032 30.3567 18.6086 30.3741 18.5128ZM30.3032 18.8935C30.2783 19.0166 30.2522 19.141 30.2236 19.2629C30.2522 19.1398 30.2783 19.0166 30.3032 18.8935ZM5.02441 6.399C4.99456 6.43384 4.9647 6.46742 4.93485 6.50225C4.9647 6.46742 4.99456 6.43259 5.02441 6.399ZM4.25937 7.35065C4.16483 7.47753 4.07402 7.6069 3.98321 7.73752C4.07277 7.6069 4.16483 7.47878 4.25937 7.35065ZM1.68185 18.8039C1.66319 18.7069 1.64453 18.6086 1.62712 18.5103C1.64453 18.6086 1.66319 18.7056 1.68185 18.8039ZM1.60722 18.3909C1.59229 18.3026 1.5786 18.2143 1.56616 18.126C1.5786 18.2143 1.59353 18.3026 1.60722 18.3909ZM1.54626 17.9904C1.53506 17.9058 1.52387 17.8224 1.51392 17.7378C1.52387 17.8224 1.53506 17.907 1.54626 17.9904ZM1.49775 17.5935C1.48904 17.5102 1.48033 17.4281 1.47287 17.3447C1.48033 17.4281 1.48904 17.5114 1.49775 17.5935ZM1.45918 17.1967C1.45172 17.1121 1.44674 17.0275 1.44052 16.9429C1.4455 17.0275 1.45172 17.1121 1.45918 17.1967ZM1.43181 16.7999C1.42684 16.7078 1.42311 16.6158 1.42062 16.5237C1.42435 16.6158 1.42684 16.7078 1.43181 16.7999ZM3.98321 24.2662C4.06033 24.3782 4.13995 24.4901 4.22081 24.5996C4.13995 24.4901 4.06158 24.3782 3.98321 24.2662ZM4.2631 24.6581C4.35267 24.7787 4.44348 24.8994 4.53678 25.0176C4.44348 24.8994 4.35267 24.78 4.2631 24.6581ZM4.53678 25.0176L11.6113 19.2704L7.99502 28.1922C8.26621 28.3713 8.54362 28.5405 8.82724 28.7022C7.16903 27.7618 5.71109 26.5066 4.53678 25.0176ZM9.70922 29.1637C9.56741 29.0953 9.4256 29.0244 9.28627 28.9523C9.4256 29.0257 9.56741 29.0966 9.70922 29.1637ZM15.8843 30.5893C15.9229 30.5893 15.9602 30.5906 15.9988 30.5906C15.9602 30.5906 15.9229 30.5906 15.8843 30.5893ZM15.3245 30.5744C15.4303 30.5794 15.5348 30.5831 15.6405 30.5856C15.5348 30.5831 15.429 30.5794 15.3245 30.5744ZM16.9268 30.5607C16.8384 30.5657 16.7489 30.5719 16.6606 30.5756C16.7501 30.5719 16.8384 30.5669 16.9268 30.5607ZM16.5449 30.5794C16.4752 30.5819 16.4068 30.5844 16.3371 30.5868C16.4068 30.5856 16.4752 30.5831 16.5449 30.5794ZM23.4875 28.5169C23.6243 28.4348 23.7612 28.3502 23.8955 28.2631L20.2507 19.2704L27.4072 25.0847C27.6026 24.8397 27.7891 24.5896 27.9695 24.3321C26.789 26.0227 25.2614 27.4533 23.4887 28.5169H23.4875ZM23.0658 28.7607C23.2001 28.6861 23.332 28.6102 23.4626 28.5318C23.332 28.6102 23.1989 28.6861 23.0658 28.7607ZM28.2407 23.9291C28.1599 24.0535 28.0765 24.1779 27.9907 24.2998C28.0753 24.1779 28.1586 24.0535 28.2407 23.9291Z" fill="black"/>
</svg>
