<svg width="110" height="110" viewBox="0 0 110 110" fill="none" xmlns="http://www.w3.org/2000/svg">
<g clip-path="url(#clip0_299_3372)">
<path d="M98.7852 30.4219C98.7738 30.4219 98.7629 30.4173 98.7548 30.4093C98.7467 30.4012 98.7422 30.3903 98.7422 30.3789C98.1212 29.3215 97.2318 28.447 96.1641 27.8437L58.3516 6.57421C57.3271 6.00222 56.1733 5.70193 55 5.70193C53.8267 5.70193 52.6729 6.00222 51.6485 6.57421L13.836 27.8437C12.7683 28.447 11.8789 29.3215 11.2578 30.3789C11.2578 30.3903 11.2533 30.4012 11.2453 30.4093C11.2372 30.4173 11.2263 30.4219 11.2149 30.4219V30.5078C10.6208 31.5089 10.309 32.6523 10.3125 33.8164V76.1836C10.3147 77.4084 10.642 78.6108 11.2611 79.6677C11.8801 80.7246 12.7687 81.5982 13.836 82.1992L51.6485 103.469C52.6004 103.988 53.6588 104.282 54.7422 104.328H55.3438C56.3999 104.281 57.4302 103.987 58.3516 103.469L96.1641 82.1992C97.2314 81.5982 98.1199 80.7246 98.739 79.6677C99.358 78.6108 99.6854 77.4084 99.6875 76.1836V33.8164C99.6938 32.6248 99.3823 31.4531 98.7852 30.4219ZM55 12.5469L89.2461 31.7969L76.0977 39.2734L41.4219 20.1523L55 12.5469ZM55.3867 51.0469L20.7969 31.7969L34.375 24.1484L69.0938 43.2695L55.3867 51.0469ZM58.4805 95.5195L58.8242 57.0195L72.6172 49.1562V65.5273C72.6172 66.439 72.9794 67.3134 73.624 67.958C74.2687 68.6027 75.143 68.9648 76.0547 68.9648C76.9664 68.9648 77.8407 68.6027 78.4854 67.958C79.1301 67.3134 79.4922 66.439 79.4922 65.5273V45.2461L92.8125 37.6836V76.1836L58.4805 95.5195Z" fill="black"/>
</g>
<defs>
<clipPath id="clip0_299_3372">
<rect width="110" height="110" fill="white"/>
</clipPath>
</defs>
</svg>
