<svg width="110" height="110" viewBox="0 0 110 110" fill="none" xmlns="http://www.w3.org/2000/svg">
<g clip-path="url(#clip0_299_3375)">
<path d="M96.25 20.625H13.75C11.9266 20.625 10.178 21.3493 8.88864 22.6386C7.59933 23.928 6.875 25.6766 6.875 27.5V41.6367V82.457C6.875 84.2804 7.59933 86.0291 8.88864 87.3184C10.178 88.6077 11.9266 89.332 13.75 89.332H96.25C98.0734 89.332 99.822 88.6077 101.111 87.3184C102.401 86.0291 103.125 84.2804 103.125 82.457V27.5C103.125 25.6766 102.401 23.928 101.111 22.6386C99.822 21.3493 98.0734 20.625 96.25 20.625ZM58.4375 75.625H51.5625C50.6508 75.625 49.7765 75.2628 49.1318 74.6182C48.4872 73.9735 48.125 73.0992 48.125 72.1875C48.125 71.2758 48.4872 70.4015 49.1318 69.7568C49.7765 69.1122 50.6508 68.75 51.5625 68.75H58.4375C59.3492 68.75 60.2235 69.1122 60.8682 69.7568C61.5128 70.4015 61.875 71.2758 61.875 72.1875C61.875 73.0992 61.5128 73.9735 60.8682 74.6182C60.2235 75.2628 59.3492 75.625 58.4375 75.625ZM85.9375 75.625H72.1875C71.2758 75.625 70.4015 75.2628 69.7568 74.6182C69.1122 73.9735 68.75 73.0992 68.75 72.1875C68.75 71.2758 69.1122 70.4015 69.7568 69.7568C70.4015 69.1122 71.2758 68.75 72.1875 68.75H85.9375C86.8492 68.75 87.7235 69.1122 88.3682 69.7568C89.0128 70.4015 89.375 71.2758 89.375 72.1875C89.375 73.0992 89.0128 73.9735 88.3682 74.6182C87.7235 75.2628 86.8492 75.625 85.9375 75.625ZM13.75 38.1992V27.5H96.25V38.1992H13.75Z" fill="black"/>
</g>
<defs>
<clipPath id="clip0_299_3375">
<rect width="110" height="110" fill="white"/>
</clipPath>
</defs>
</svg>
