<svg width="40" height="40" viewBox="0 0 40 40" fill="none" xmlns="http://www.w3.org/2000/svg">
<path d="M33.1658 5.5055C32.2765 4.68295 28.6774 2.06062 20.653 2.02547C20.653 2.02547 11.1932 1.45601 6.5858 5.70235C4.02303 8.27547 3.11976 12.0508 3.02173 16.726C2.9237 21.4012 2.80467 30.161 11.2142 32.5373H11.2212L11.2142 36.1649C11.2142 36.1649 11.1582 37.6343 12.1245 37.9296C13.2868 38.2951 13.973 37.1773 15.0864 35.9751C15.6955 35.3143 16.5358 34.3441 17.173 33.6059C22.9287 34.091 27.347 32.9802 27.8512 32.8185C29.0135 32.4388 35.5885 31.5952 36.6528 22.8354C37.7592 13.7943 36.1207 8.08565 33.1658 5.5055ZM34.1391 22.1745C33.2358 29.4861 27.9072 29.9501 26.9269 30.2665C26.5068 30.4 22.6206 31.3702 17.7402 31.0539C17.7402 31.0539 14.0991 35.4619 12.9647 36.6078C12.5936 36.9804 12.1875 36.9453 12.1945 36.2071C12.1945 35.722 12.2225 30.1821 12.2225 30.1821C12.2155 30.1821 12.2155 30.1821 12.2225 30.1821C5.09436 28.1995 5.51448 20.7403 5.59151 16.8385C5.66853 12.9366 6.40375 9.73778 8.5744 7.58649C12.4746 4.03615 20.506 4.56343 20.506 4.56343C27.291 4.59155 30.54 6.64442 31.2962 7.3334C33.796 9.48469 35.0704 14.6309 34.1391 22.1745ZM24.4062 16.494C24.4342 17.0986 23.5309 17.1408 23.5029 16.5361C23.4259 14.9895 22.7046 14.2372 21.2202 14.1529C20.618 14.1177 20.674 13.2108 21.2692 13.2459C23.2228 13.3514 24.3081 14.4762 24.4062 16.494ZM25.8276 17.2884C25.8976 14.3075 24.042 11.9734 20.52 11.7133C19.9248 11.6711 19.9878 10.7642 20.583 10.8064C24.6442 11.1017 26.8079 13.9068 26.7309 17.3095C26.7239 17.9141 25.8136 17.886 25.8276 17.2884ZM29.1186 18.2305C29.1256 18.8351 28.2153 18.8421 28.2153 18.2375C28.1733 12.5077 24.3711 9.38626 19.7568 9.35111C19.1616 9.34408 19.1616 8.44419 19.7568 8.44419C24.9173 8.47935 29.0696 12.0578 29.1186 18.2305ZM28.3273 25.1273V25.1413C27.5711 26.4771 26.1567 27.9535 24.7002 27.4824L24.6862 27.4613C23.2088 27.0465 19.7288 25.2468 17.5301 23.4892C16.3958 22.5893 15.3594 21.5277 14.5612 20.5083C13.84 19.6014 13.1118 18.5257 12.4046 17.2322C10.9131 14.5255 10.584 13.3162 10.584 13.3162C10.1149 11.8539 11.5783 10.4338 12.9157 9.67451H12.9297C13.5739 9.33705 14.1901 9.44954 14.6032 9.94869C14.6032 9.94869 15.4715 10.9892 15.8426 11.5024C16.1927 11.9805 16.6618 12.7468 16.9069 13.1756C17.334 13.9419 17.068 14.7223 16.6478 15.0457L15.8076 15.7206C15.3804 16.0651 15.4365 16.7049 15.4365 16.7049C15.4365 16.7049 16.6828 21.4363 21.3392 22.6315C21.3392 22.6315 21.9764 22.6877 22.3195 22.2589L22.9917 21.4152C23.3138 20.9934 24.0911 20.7262 24.8543 21.1551C25.8836 21.7386 27.193 22.6455 28.0613 23.4681C28.5514 23.8688 28.6634 24.4805 28.3273 25.1273Z" fill="white"/>
</svg>
