<svg width="40" height="40" viewBox="0 0 40 40" fill="none" xmlns="http://www.w3.org/2000/svg">
<path d="M38.9466 11.5167C39.25 12.3343 38.2607 14.2124 35.9789 17.1509C35.6624 17.5597 35.2337 18.1027 34.6929 18.7798C34.1654 19.4314 33.8026 19.8913 33.6048 20.1596C33.407 20.4279 33.2058 20.7441 33.0014 21.1082C32.7969 21.4723 32.7178 21.7406 32.764 21.9131C32.8101 22.0856 32.8959 22.306 33.0212 22.5743C33.1465 22.8426 33.3608 23.1172 33.6642 23.3983C33.9675 23.6794 34.3434 24.0179 34.7919 24.414C34.8446 24.4396 34.8776 24.4651 34.8908 24.4907C36.7505 26.1643 38.0101 27.576 38.6696 28.7259C38.7092 28.7898 38.7521 28.8696 38.7982 28.9654C38.8444 29.0613 38.8905 29.2305 38.9367 29.4733C38.9829 29.716 38.9796 29.9332 38.9268 30.1248C38.8741 30.3165 38.7092 30.4922 38.4322 30.6519C38.1552 30.8116 37.7661 30.8914 37.2649 30.8914L32.2001 30.9681C31.8835 31.0319 31.5142 31 31.0922 30.8722C30.6701 30.7445 30.3272 30.6039 30.0634 30.4506L29.6677 30.2207C29.272 29.9524 28.8104 29.5435 28.2828 28.9942C27.7552 28.4448 27.3034 27.9497 26.9275 27.509C26.5516 27.0682 26.1494 26.6977 25.7207 26.3975C25.292 26.0972 24.9194 25.9982 24.6029 26.1004C24.5633 26.1132 24.5105 26.1356 24.4446 26.1675C24.3786 26.1994 24.2665 26.2921 24.1083 26.4454C23.95 26.5987 23.8082 26.7871 23.6829 27.0107C23.5576 27.2343 23.4455 27.5665 23.3466 28.0072C23.2476 28.448 23.2048 28.9431 23.218 29.4924C23.218 29.6841 23.1949 29.8597 23.1487 30.0194C23.1025 30.1791 23.0531 30.2973 23.0003 30.374L22.9212 30.4698C22.6838 30.7125 22.3342 30.8531 21.8726 30.8914H19.5974C18.6609 30.9425 17.6981 30.8371 16.7089 30.5752C15.7196 30.3133 14.8524 29.9747 14.1072 29.5595C13.362 29.1443 12.6827 28.7227 12.0694 28.2947C11.4561 27.8667 10.9912 27.4994 10.6746 27.1928L10.18 26.7328C10.0481 26.6051 9.86674 26.4134 9.63592 26.1579C9.4051 25.9024 8.93357 25.3211 8.22133 24.414C7.50909 23.5069 6.81004 22.5423 6.12418 21.5203C5.43831 20.4982 4.63045 19.1503 3.70058 17.4767C2.77071 15.803 1.91009 14.0655 1.11871 12.2641C1.03957 12.0597 1 11.8872 1 11.7467C1 11.6061 1.01978 11.5039 1.05935 11.44L1.13849 11.325C1.33634 11.0823 1.71224 10.9609 2.26621 10.9609L7.68715 10.9226C7.84542 10.9482 7.99711 10.9897 8.14219 11.0472C8.28728 11.1047 8.39279 11.159 8.45874 11.2101L8.55766 11.2676C8.7687 11.4081 8.92698 11.6125 9.03249 11.8808C9.29628 12.5196 9.59965 13.1808 9.94258 13.8643C10.2855 14.5478 10.5559 15.0684 10.7537 15.4261L11.0703 15.9819C11.4528 16.7484 11.8221 17.4128 12.1782 17.9749C12.5343 18.5371 12.8542 18.9746 13.1378 19.2877C13.4213 19.6007 13.695 19.8466 13.9588 20.0255C14.2226 20.2043 14.4468 20.2938 14.6315 20.2938C14.8162 20.2938 14.9942 20.2618 15.1657 20.1979C15.1921 20.1852 15.225 20.1532 15.2646 20.1021C15.3042 20.051 15.3833 19.9105 15.502 19.6805C15.6207 19.4505 15.7097 19.1503 15.7691 18.7798C15.8285 18.4093 15.8911 17.8919 15.9571 17.2275C16.023 16.5632 16.023 15.7647 15.9571 14.832C15.9307 14.321 15.8713 13.8547 15.779 13.4331C15.6867 13.0115 15.5943 12.7176 15.502 12.5515L15.3833 12.3216C15.0536 11.8872 14.493 11.6125 13.7016 11.4975C13.5302 11.472 13.5631 11.3187 13.8005 11.0376C14.0116 10.7948 14.2622 10.6032 14.5524 10.4627C15.2514 10.1305 16.8276 9.97719 19.2808 10.0027C20.3624 10.0155 21.2527 10.0986 21.9517 10.2519C22.2155 10.3157 22.4365 10.402 22.6145 10.5106C22.7926 10.6192 22.9278 10.7725 23.0201 10.9705C23.1124 11.1685 23.1817 11.373 23.2278 11.5838C23.274 11.7946 23.2971 12.0852 23.2971 12.4557C23.2971 12.8262 23.2905 13.1776 23.2773 13.5097C23.2641 13.8419 23.2476 14.2923 23.2278 14.8608C23.2081 15.4293 23.1982 15.9563 23.1982 16.4418C23.1982 16.5823 23.1916 16.8506 23.1784 17.2467C23.1652 17.6428 23.1619 17.9494 23.1685 18.1666C23.1751 18.3838 23.1982 18.6425 23.2377 18.9427C23.2773 19.2429 23.3531 19.4921 23.4653 19.6901C23.5774 19.8881 23.7258 20.0446 23.9104 20.1596C24.0159 20.1852 24.128 20.2107 24.2467 20.2363C24.3655 20.2618 24.5369 20.1916 24.7611 20.0255C24.9854 19.8594 25.236 19.639 25.513 19.3643C25.7899 19.0896 26.1329 18.6616 26.5417 18.0803C26.9506 17.499 27.3991 16.8123 27.8871 16.0202C28.6785 14.6915 29.3841 13.2542 30.004 11.7083C30.0568 11.5806 30.1227 11.4688 30.2019 11.373C30.281 11.2771 30.3535 11.2101 30.4195 11.1717L30.4986 11.1142L30.5976 11.0663L30.8548 11.0088L31.2504 10.9993L36.9484 10.9609C37.4628 10.8971 37.8848 10.913 38.2146 11.0088C38.5443 11.1047 38.7488 11.2101 38.8279 11.325L38.9466 11.5167Z" fill="white"/>
</svg>
