<svg width="67" height="69" viewBox="0 0 67 69" fill="none" xmlns="http://www.w3.org/2000/svg">
<g clip-path="url(#clip0_507_4594)">
<path d="M0 24.2093C0.118836 24.2093 0.196444 24.2093 0.274051 24.2093C10.9737 24.2093 21.6738 24.2093 32.3735 24.2093C33.2965 24.2093 33.8912 24.7273 34.0231 25.6407C34.0275 25.6717 34.0362 25.7027 34.0488 25.76C34.1356 25.76 34.2215 25.76 34.3073 25.76C35.7688 25.76 37.2307 25.7566 38.6922 25.7605C41.0165 25.7668 42.8796 27.3039 43.3234 29.5851C43.3753 29.8528 43.3995 30.1298 43.3995 30.4028C43.4044 34.9894 43.4029 39.5765 43.4029 44.1631C43.4029 44.2189 43.4029 44.2752 43.4029 44.3484C43.3326 44.3557 43.2715 44.3669 43.2104 44.3669C42.7098 44.3683 42.2087 44.3712 41.7082 44.3669C40.8797 44.3591 40.2429 43.7906 40.1507 42.9704C39.8572 40.356 39.5691 37.7411 39.2776 35.1267C39.1035 33.5634 38.9269 32.0006 38.7504 30.4252H33.8373C33.8126 30.9737 33.7874 31.5126 33.7646 32.052C33.622 35.4726 33.4794 38.8931 33.3387 42.3137C33.2344 44.8388 33.1335 47.364 33.0302 49.8891C32.9148 52.7048 32.8056 55.5205 32.679 58.3357C32.5956 60.19 31.2807 61.425 29.4224 61.425C22.429 61.425 15.4361 61.4259 8.44272 61.424C7.28006 61.424 6.37497 60.9317 5.74004 59.9563C5.45677 59.5216 5.30156 59.0371 5.27585 58.5215C5.17011 56.4009 5.07504 54.2793 4.97367 52.1582C4.85192 49.6097 4.72629 47.0613 4.60503 44.5129C4.50075 42.3272 4.40083 40.1416 4.29654 37.956C4.1748 35.3993 4.05014 32.8431 3.92694 30.2864C3.90705 29.8751 3.89638 29.4633 3.86243 29.053C3.85272 28.9351 3.80422 28.8007 3.72952 28.7105C2.54164 27.2728 1.346 25.8415 0.152305 24.4082C0.108165 24.3548 0.0683916 24.2985 0 24.2093ZM19.3689 32.7383C19.3689 32.2145 19.3665 31.7231 19.3698 31.2318C19.3718 30.9631 19.2772 30.74 19.0643 30.578C18.8193 30.3917 18.5477 30.3514 18.2678 30.4902C17.9341 30.656 17.8158 30.9398 17.8158 31.305C17.8192 38.9843 17.8182 46.664 17.8192 54.3433C17.8192 54.4393 17.8206 54.5388 17.8439 54.6309C17.9399 55.0107 18.3023 55.2615 18.6791 55.2178C19.0589 55.1737 19.3582 54.855 19.3655 54.4616C19.3752 53.9475 19.3679 53.4329 19.3679 52.8959C19.641 52.8959 19.8893 52.8959 20.1377 52.8959C20.404 52.8959 20.6707 52.9032 20.937 52.8935C21.3682 52.8785 21.7005 52.5268 21.6937 52.1063C21.6869 51.6964 21.3551 51.3559 20.9336 51.3481C20.4195 51.3389 19.9049 51.3457 19.3844 51.3457V48.2438C19.6245 48.2438 19.8496 48.2453 20.0746 48.2438C20.5665 48.2404 20.9186 47.9174 20.9191 47.4707C20.9191 47.022 20.5684 46.6975 20.0775 46.6941C19.8466 46.6927 19.6158 46.6941 19.3878 46.6941V43.5922C19.8985 43.5922 20.3909 43.5951 20.8827 43.5913C21.3503 43.5874 21.699 43.2483 21.6942 42.8099C21.6898 42.3796 21.3474 42.0488 20.8924 42.0425C20.5616 42.0381 20.2303 42.0415 19.899 42.0415C19.7254 42.0415 19.5517 42.0415 19.382 42.0415V38.9402C19.6352 38.9402 19.8758 38.9436 20.1158 38.9397C20.5708 38.9324 20.9142 38.6021 20.9186 38.1733C20.9235 37.7334 20.5766 37.3972 20.1081 37.3904C19.8685 37.387 19.6284 37.3899 19.3844 37.3899V34.307C19.4154 34.2987 19.4305 34.291 19.4455 34.291C19.9141 34.2895 20.3821 34.2905 20.8507 34.2876C21.3416 34.2847 21.6937 33.9597 21.6937 33.513C21.6937 33.0653 21.343 32.7408 20.8512 32.7383C20.3676 32.7359 19.8845 32.7379 19.3689 32.7379V32.7383Z" fill="black"/>
</g>
<g clip-path="url(#clip1_507_4594)">
<path d="M33.0618 1.97186C32.7004 3.10309 32.3397 4.23397 31.9758 5.36448C30.9026 8.69917 29.8281 12.0329 28.7539 15.3674C28.0567 17.5314 27.3601 19.6955 26.6635 21.8597C25.8094 24.5128 24.9557 27.1664 24.0977 29.8183C24.0666 29.9136 24.0594 29.9869 24.0897 30.0564C23.1785 29.6514 22.267 29.2458 21.3558 28.8408C20.6942 28.6196 20.0321 28.4394 19.3689 28.2989C19.7384 26.935 20.0995 25.5686 20.46 24.2026C21.6655 19.6347 22.8693 15.067 24.0743 10.499C24.8672 7.49442 25.6591 4.49003 26.4564 1.48671C26.5874 0.992715 26.7418 0.505061 26.8892 0.00165486L33.0959 1.8195C33.083 1.87792 33.0761 1.92651 33.0617 1.97235L33.0618 1.97186Z" fill="white"/>
</g>
<path d="M33.0657 1.97174C32.7043 3.10296 32.3436 4.23385 31.9797 5.36436C30.9065 8.69905 29.832 12.0328 28.7578 15.3672C28.0606 17.5313 27.364 19.6954 26.6674 21.8596C25.8133 24.5126 24.9596 27.1663 24.1016 29.8182C24.0706 29.9135 24.0633 29.9867 24.0936 30.0562C23.1824 29.6513 22.2709 29.2457 21.3597 28.8407C20.6981 28.6195 20.036 28.4393 19.3729 28.2988C19.7423 26.9349 20.1034 25.5685 20.4639 24.2025C21.6694 19.6346 22.8732 15.0669 24.0782 10.4989C24.8711 7.4943 25.663 4.48991 26.4603 1.48659C26.5913 0.992593 26.7457 0.504939 26.8932 0.00153293L33.0998 1.81937C33.0869 1.8778 33.0801 1.92639 33.0656 1.97222L33.0657 1.97174Z" fill="black"/>
<path d="M19.781 7.12655L18.2297 12.0743L15.6038 8.53394L19.781 7.12655Z" fill="black"/>
<rect x="18.7148" y="10.5281" width="1.94446" height="2.59262" transform="rotate(-72.5924 18.7148 10.5281)" fill="black"/>
<path d="M33.6917 16.922L35.243 11.9742L37.8689 15.5146L33.6917 16.922Z" fill="black"/>
<rect x="34.7579" y="13.5204" width="1.94446" height="2.59262" transform="rotate(107.408 34.7579 13.5204)" fill="black"/>
<path opacity="0.11" d="M54 63.2C52.92 63.2 52.0933 62.8933 51.52 62.28C50.9467 61.6667 50.66 60.8 50.66 59.68V52.32C50.66 51.2 50.9467 50.3333 51.52 49.72C52.0933 49.1067 52.92 48.8 54 48.8C55.08 48.8 55.9067 49.1067 56.48 49.72C57.0533 50.3333 57.34 51.2 57.34 52.32V59.68C57.34 60.8 57.0533 61.6667 56.48 62.28C55.9067 62.8933 55.08 63.2 54 63.2ZM54 61.2C54.76 61.2 55.14 60.74 55.14 59.82V52.18C55.14 51.26 54.76 50.8 54 50.8C53.24 50.8 52.86 51.26 52.86 52.18V59.82C52.86 60.74 53.24 61.2 54 61.2ZM61.9478 63.2C60.8678 63.2 60.0478 62.9 59.4878 62.3C58.9411 61.7 58.6678 60.84 58.6678 59.72V58.58H60.7478V59.82C60.7478 60.74 61.1278 61.2 61.8878 61.2C62.2611 61.2 62.5411 61.0867 62.7278 60.86C62.9278 60.62 63.0278 60.2067 63.0278 59.62V58.48C63.0278 57.84 62.9145 57.3867 62.6878 57.12C62.4611 56.84 62.0945 56.7 61.5878 56.7H60.8478V54.7H61.6478C62.0878 54.7 62.4145 54.5867 62.6278 54.36C62.8545 54.1333 62.9678 53.7533 62.9678 53.22V52.2C62.9678 51.72 62.8678 51.3667 62.6678 51.14C62.4678 50.9133 62.2011 50.8 61.8678 50.8C61.1611 50.8 60.8078 51.2333 60.8078 52.1V53.02H58.7278V52.28C58.7278 51.16 59.0011 50.3 59.5478 49.7C60.1078 49.1 60.9078 48.8 61.9478 48.8C63.0011 48.8 63.8011 49.1 64.3478 49.7C64.8945 50.2867 65.1678 51.14 65.1678 52.26V52.76C65.1678 53.52 65.0411 54.1333 64.7878 54.6C64.5345 55.0533 64.1411 55.38 63.6078 55.58V55.62C64.1811 55.8333 64.5945 56.18 64.8478 56.66C65.1011 57.14 65.2278 57.7533 65.2278 58.5V59.74C65.2278 60.86 64.9478 61.72 64.3878 62.32C63.8411 62.9067 63.0278 63.2 61.9478 63.2Z" fill="black"/>
<defs>
<clipPath id="clip0_507_4594">
<rect width="43.4039" height="37.2157" fill="white" transform="translate(0 24.2093)"/>
</clipPath>
<clipPath id="clip1_507_4594">
<rect width="29.6299" height="6.48154" fill="white" transform="matrix(0.281079 -0.959685 -0.959685 -0.281079 24.7773 30.2572)"/>
</clipPath>
</defs>
</svg>
