<svg width="67" height="70" viewBox="0 0 67 70" fill="none" xmlns="http://www.w3.org/2000/svg">
<g clip-path="url(#clip0_507_4593)">
<path d="M0 24.7845C0.118836 24.7845 0.196444 24.7845 0.274051 24.7845C10.9737 24.7845 21.6738 24.7845 32.3735 24.7845C33.2965 24.7845 33.8912 25.3025 34.0231 26.2159C34.0275 26.2469 34.0362 26.2779 34.0488 26.3352C34.1356 26.3352 34.2215 26.3352 34.3073 26.3352C35.7688 26.3352 37.2307 26.3318 38.6922 26.3357C41.0165 26.342 42.8796 27.8791 43.3234 30.1603C43.3753 30.428 43.3995 30.705 43.3995 30.978C43.4044 35.5646 43.4029 40.1517 43.4029 44.7383C43.4029 44.7941 43.4029 44.8504 43.4029 44.9236C43.3326 44.9309 43.2715 44.9421 43.2104 44.9421C42.7098 44.9435 42.2087 44.9464 41.7082 44.9421C40.8797 44.9343 40.2429 44.3658 40.1507 43.5456C39.8572 40.9312 39.5691 38.3163 39.2776 35.7019C39.1035 34.1386 38.9269 32.5758 38.7504 31.0004H33.8373C33.8126 31.5489 33.7874 32.0878 33.7646 32.6272C33.622 36.0478 33.4794 39.4683 33.3387 42.8888C33.2344 45.414 33.1335 47.9392 33.0302 50.4643C32.9148 53.28 32.8056 56.0957 32.679 58.9109C32.5956 60.7652 31.2807 62.0002 29.4224 62.0002C22.429 62.0002 15.4361 62.0011 8.44272 61.9992C7.28006 61.9992 6.37497 61.5069 5.74004 60.5314C5.45677 60.0968 5.30156 59.6123 5.27585 59.0967C5.17011 56.9761 5.07504 54.8545 4.97367 52.7334C4.85192 50.1849 4.72629 47.6365 4.60503 45.088C4.50075 42.9024 4.40083 40.7168 4.29654 38.5312C4.1748 35.9745 4.05014 33.4183 3.92694 30.8616C3.90705 30.4503 3.89638 30.0385 3.86243 29.6282C3.85272 29.5103 3.80422 29.3759 3.72952 29.2857C2.54164 27.848 1.346 26.4167 0.152305 24.9834C0.108165 24.93 0.0683916 24.8737 0 24.7845ZM19.3689 33.3135C19.3689 32.7897 19.3665 32.2983 19.3698 31.807C19.3718 31.5383 19.2772 31.3152 19.0643 31.1531C18.8193 30.9669 18.5477 30.9266 18.2678 31.0654C17.9341 31.2312 17.8158 31.515 17.8158 31.8802C17.8192 39.5595 17.8182 47.2392 17.8192 54.9185C17.8192 55.0145 17.8206 55.114 17.8439 55.2061C17.9399 55.5859 18.3023 55.8367 18.6791 55.793C19.0589 55.7489 19.3582 55.4302 19.3655 55.0368C19.3752 54.5227 19.3679 54.0081 19.3679 53.4711C19.641 53.4711 19.8893 53.4711 20.1377 53.4711C20.404 53.4711 20.6707 53.4784 20.937 53.4687C21.3682 53.4536 21.7005 53.102 21.6937 52.6815C21.6869 52.2716 21.3551 51.9311 20.9336 51.9233C20.4195 51.9141 19.9049 51.9209 19.3844 51.9209V48.819C19.6245 48.819 19.8496 48.8205 20.0746 48.819C20.5665 48.8156 20.9186 48.4926 20.9191 48.0459C20.9191 47.5972 20.5684 47.2727 20.0775 47.2693C19.8466 47.2678 19.6158 47.2693 19.3878 47.2693V44.1674C19.8985 44.1674 20.3909 44.1703 20.8827 44.1665C21.3503 44.1626 21.699 43.8235 21.6942 43.3851C21.6898 42.9548 21.3474 42.624 20.8924 42.6177C20.5616 42.6133 20.2303 42.6167 19.899 42.6167C19.7254 42.6167 19.5517 42.6167 19.382 42.6167V39.5154C19.6352 39.5154 19.8758 39.5187 20.1158 39.5149C20.5708 39.5076 20.9142 39.1773 20.9186 38.7485C20.9235 38.3086 20.5766 37.9724 20.1081 37.9656C19.8685 37.9622 19.6284 37.9651 19.3844 37.9651V34.8822C19.4154 34.8739 19.4305 34.8662 19.4455 34.8662C19.9141 34.8647 20.3821 34.8657 20.8507 34.8628C21.3416 34.8599 21.6937 34.5349 21.6937 34.0882C21.6937 33.6405 21.343 33.316 20.8512 33.3135C20.3676 33.3111 19.8845 33.3131 19.3689 33.3131V33.3135Z" fill="black"/>
</g>
<g clip-path="url(#clip1_507_4593)">
<path d="M33.0618 2.54706C32.7004 3.67828 32.3397 4.80916 31.9758 5.93968C30.9026 9.27437 29.8281 12.6081 28.7539 15.9425C28.0567 18.1066 27.3601 20.2707 26.6635 22.4349C25.8094 25.088 24.9557 27.7416 24.0977 30.3935C24.0666 30.4888 24.0594 30.5621 24.0897 30.6316C23.1785 30.2266 22.267 29.821 21.3558 29.416C20.6942 29.1948 20.0321 29.0146 19.3689 28.8741C19.7384 27.5102 20.0995 26.1438 20.46 24.7778C21.6655 20.2099 22.8693 15.6422 24.0743 11.0742C24.8672 8.06961 25.6591 5.06522 26.4564 2.06191C26.5874 1.56791 26.7418 1.08026 26.8892 0.57685L33.0959 2.39469C33.083 2.45311 33.0761 2.50171 33.0617 2.54754L33.0618 2.54706Z" fill="white"/>
</g>
<path d="M33.0657 2.54693C32.7043 3.67816 32.3436 4.80904 31.9797 5.93955C30.9065 9.27424 29.832 12.608 28.7578 15.9424C28.0606 18.1064 27.364 20.2706 26.6674 22.4348C25.8133 25.0878 24.9596 27.7415 24.1016 30.3934C24.0706 30.4887 24.0633 30.5619 24.0936 30.6314C23.1824 30.2265 22.2709 29.8209 21.3597 29.4159C20.6981 29.1947 20.036 29.0145 19.3729 28.874C19.7423 27.5101 20.1034 26.1437 20.4639 24.7776C21.6694 20.2098 22.8732 15.6421 24.0782 11.0741C24.8711 8.06949 25.663 5.0651 26.4603 2.06179C26.5913 1.56779 26.7457 1.08013 26.8932 0.576728L33.0998 2.39457C33.0869 2.45299 33.0801 2.50159 33.0656 2.54742L33.0657 2.54693Z" fill="black"/>
<path d="M19.781 7.70174L18.2297 12.6495L15.6038 9.10913L19.781 7.70174Z" fill="black"/>
<rect x="18.7148" y="11.1033" width="1.94446" height="2.59262" transform="rotate(-72.5924 18.7148 11.1033)" fill="black"/>
<path d="M33.6917 17.4972L35.243 12.5494L37.8689 16.0898L33.6917 17.4972Z" fill="black"/>
<rect x="34.7579" y="14.0956" width="1.94446" height="2.59262" transform="rotate(107.408 34.7579 14.0956)" fill="black"/>
<path opacity="0.11" d="M54 64.2C52.92 64.2 52.0933 63.8933 51.52 63.28C50.9467 62.6667 50.66 61.8 50.66 60.68V53.32C50.66 52.2 50.9467 51.3333 51.52 50.72C52.0933 50.1067 52.92 49.8 54 49.8C55.08 49.8 55.9067 50.1067 56.48 50.72C57.0533 51.3333 57.34 52.2 57.34 53.32V60.68C57.34 61.8 57.0533 62.6667 56.48 63.28C55.9067 63.8933 55.08 64.2 54 64.2ZM54 62.2C54.76 62.2 55.14 61.74 55.14 60.82V53.18C55.14 52.26 54.76 51.8 54 51.8C53.24 51.8 52.86 52.26 52.86 53.18V60.82C52.86 61.74 53.24 62.2 54 62.2ZM58.7878 62.48C58.7878 61.48 58.9478 60.6267 59.2678 59.92C59.5878 59.2 60.1611 58.4067 60.9878 57.54C61.8011 56.6733 62.3611 55.9333 62.6678 55.32C62.9878 54.7067 63.1478 54.0667 63.1478 53.4C63.1478 52.8 63.0478 52.3867 62.8478 52.16C62.6611 51.92 62.3811 51.8 62.0078 51.8C61.2478 51.8 60.8678 52.26 60.8678 53.18V54.68H58.7878V53.32C58.7878 52.1867 59.0678 51.32 59.6278 50.72C60.1878 50.1067 61.0011 49.8 62.0678 49.8C63.1345 49.8 63.9478 50.1067 64.5078 50.72C65.0678 51.32 65.3478 52.1867 65.3478 53.32C65.3478 54.1733 65.1411 55.0067 64.7278 55.82C64.3278 56.6333 63.6278 57.5667 62.6278 58.62C61.9745 59.3133 61.5345 59.88 61.3078 60.32C61.0811 60.7467 60.9678 61.2067 60.9678 61.7V62H65.1478V64H58.7878V62.48Z" fill="black"/>
<defs>
<clipPath id="clip0_507_4593">
<rect width="43.4039" height="37.2157" fill="white" transform="translate(0 24.7845)"/>
</clipPath>
<clipPath id="clip1_507_4593">
<rect width="29.6299" height="6.48154" fill="white" transform="matrix(0.281079 -0.959685 -0.959685 -0.281079 24.7773 30.8324)"/>
</clipPath>
</defs>
</svg>
