<svg width="67" height="74" viewBox="0 0 67 74" fill="none" xmlns="http://www.w3.org/2000/svg">
<g clip-path="url(#clip0_299_3335)">
<path d="M0.648438 33.7108C0.767274 33.7108 0.844881 33.7108 0.922489 33.7108C11.6221 33.7108 22.3223 33.7108 33.0219 33.7108C33.9449 33.7108 34.5396 34.2288 34.6715 35.1421C34.6759 35.1732 34.6846 35.2042 34.6972 35.2614C34.7841 35.2614 34.8699 35.2614 34.9558 35.2614C36.4172 35.2614 37.8792 35.2581 39.3406 35.2619C41.6649 35.2682 43.528 36.8054 43.9718 39.0865C44.0237 39.3543 44.048 39.6312 44.048 39.9043C44.0528 44.4909 44.0514 49.078 44.0514 53.6646C44.0514 53.7204 44.0514 53.7766 44.0514 53.8499C43.981 53.8572 43.9199 53.8683 43.8588 53.8683C43.3582 53.8698 42.8572 53.8727 42.3566 53.8683C41.5282 53.8606 40.8913 53.2921 40.7991 52.4719C40.5057 49.8575 40.2176 47.2426 39.926 44.6282C39.7519 43.0649 39.5754 41.5021 39.3988 39.9266H34.4858C34.461 40.4752 34.4358 41.0141 34.413 41.5535C34.2704 44.974 34.1278 48.3946 33.9871 51.8151C33.8829 54.3403 33.782 56.8654 33.6786 59.3906C33.5632 62.2063 33.4541 65.022 33.3275 67.8372C33.244 69.6915 31.9291 70.9264 30.0709 70.9264C23.0775 70.9264 16.0846 70.9274 9.09116 70.9255C7.9285 70.9255 7.0234 70.4331 6.38848 69.4577C6.10521 69.0231 5.95 68.5386 5.92429 68.0229C5.81855 65.9023 5.72348 63.7807 5.6221 61.6596C5.50036 59.1112 5.37473 56.5628 5.25347 54.0143C5.14918 51.8287 5.04926 49.6431 4.94498 47.4575C4.82323 44.9008 4.69858 42.3446 4.57537 39.7879C4.55549 39.3766 4.54482 38.9648 4.51086 38.5544C4.50116 38.4366 4.45266 38.3022 4.37796 38.212C3.19008 36.7743 1.99444 35.3429 0.800742 33.9096C0.756603 33.8563 0.716829 33.8 0.648438 33.7108ZM20.0173 42.2398C20.0173 41.716 20.0149 41.2246 20.0183 40.7333C20.0202 40.4645 19.9256 40.2414 19.7127 40.0794C19.4678 39.8932 19.1961 39.8529 18.9163 39.9916C18.5825 40.1575 18.4642 40.4413 18.4642 40.8065C18.4676 48.4858 18.4666 56.1655 18.4676 63.8448C18.4676 63.9408 18.469 64.0402 18.4923 64.1324C18.5884 64.5122 18.9507 64.763 19.3276 64.7193C19.7074 64.6752 20.0066 64.3565 20.0139 63.9631C20.0236 63.449 20.0163 62.9343 20.0163 62.3974C20.2894 62.3974 20.5378 62.3974 20.7861 62.3974C21.0524 62.3974 21.3192 62.4047 21.5855 62.395C22.0167 62.3799 22.3489 62.0283 22.3421 61.6077C22.3354 61.1979 22.0036 60.8574 21.5821 60.8496C21.0679 60.8404 20.5533 60.8472 20.0328 60.8472V57.7453C20.2729 57.7453 20.498 57.7468 20.7231 57.7453C21.2149 57.7419 21.567 57.4189 21.5675 56.9721C21.5675 56.5235 21.2168 56.199 20.726 56.1956C20.4951 56.1941 20.2642 56.1956 20.0362 56.1956V53.0937C20.547 53.0937 21.0393 53.0966 21.5311 53.0927C21.9987 53.0889 22.3475 52.7498 22.3426 52.3113C22.3383 51.8811 21.9958 51.5503 21.5408 51.544C21.21 51.5396 20.8788 51.543 20.5475 51.543C20.3738 51.543 20.2002 51.543 20.0304 51.543V48.4416C20.2836 48.4416 20.5242 48.445 20.7643 48.4411C21.2193 48.4339 21.5627 48.1035 21.567 47.6748C21.5719 47.2348 21.2251 46.8987 20.7565 46.8919C20.5169 46.8885 20.2768 46.8914 20.0328 46.8914V43.8085C20.0639 43.8002 20.0789 43.7924 20.094 43.7924C20.5625 43.791 21.0306 43.792 21.4991 43.7891C21.99 43.7861 22.3421 43.4612 22.3421 43.0144C22.3421 42.5667 21.9915 42.2422 21.4996 42.2398C21.016 42.2374 20.5329 42.2393 20.0173 42.2393V42.2398Z" fill="black"/>
</g>
<g clip-path="url(#clip1_299_3335)">
<path d="M17.3823 18.5999V20.1385H18.9126V18.6067H17.375V17.0691H15.8457V18.5999C16.3695 18.5999 16.8754 18.5999 17.3818 18.5999H17.3823ZM57.6839 3.86759C57.6266 3.86371 57.5801 3.85692 57.534 3.85789C56.3956 3.88554 55.2577 3.9127 54.1193 3.94277C50.7613 4.03154 47.4038 4.12176 44.0458 4.21149C41.8665 4.2697 39.6872 4.32742 37.5079 4.38514C34.8362 4.45595 32.1641 4.52629 29.4925 4.60098C29.3373 4.60535 29.2529 4.56994 29.1816 4.41618C28.876 3.75943 28.4613 3.17252 27.9505 2.65983C26.1757 0.88019 23.9862 0.0764681 21.5144 0.00468118C19.4171 -0.0564347 17.4357 0.453834 15.5648 1.38949C14.2353 2.05449 13.0475 2.90865 12.169 4.13097C11.163 5.53033 10.8613 7.04416 11.5268 8.68022C11.9445 9.70658 12.6497 10.5224 13.4956 11.219C14.9823 12.4427 16.6955 13.2023 18.56 13.633C20.6937 14.1258 22.8056 14.0895 24.8671 13.2867C26.7762 12.5436 28.2983 11.3494 29.2213 9.4723C29.2548 9.40391 29.3993 9.35347 29.491 9.35541C30.8875 9.38354 32.2839 9.4204 33.6804 9.45775C38.2088 9.5795 42.7367 9.7027 47.2651 9.82493C50.2437 9.90497 53.2219 9.98597 56.2006 10.0616C56.6905 10.0742 57.1809 10.0636 57.6839 10.0636V3.86759ZM22.0368 17.0327H23.5662V15.5204H22.0368V17.0327ZM20.4934 20.1642V21.6906H22.0155V20.1642H20.4934ZM17.3906 23.2384H18.9117V21.7173H17.3906V23.2384ZM15.8399 26.3393H17.361V24.8187H15.8399V26.3393ZM22.0422 27.89H23.5633V26.3694H22.0422V27.89ZM18.9102 29.4528V27.9235H17.3978V29.4528H18.9102Z" fill="white"/>
<path d="M57.6839 3.86759V10.0631C57.1809 10.0631 56.6905 10.0738 56.2006 10.0611C53.2219 9.98499 50.2437 9.90448 47.2651 9.82444C42.7367 9.7027 38.2088 9.57901 33.6804 9.45726C32.2839 9.41992 30.8875 9.38305 29.491 9.35492C29.3993 9.35298 29.2548 9.40342 29.2213 9.47182C28.2978 11.3489 26.7757 12.5431 24.8671 13.2862C22.8056 14.089 20.6937 14.1254 18.56 13.6325C16.6955 13.2018 14.9823 12.4422 13.4956 11.2185C12.6497 10.5219 11.9445 9.70609 11.5268 8.67973C10.8613 7.04416 11.163 5.53033 12.169 4.13097C13.0475 2.90865 14.2353 2.05448 15.5648 1.38949C17.4357 0.454315 19.4171 -0.0564387 21.5144 0.00467719C23.9857 0.0764641 26.1757 0.880186 27.95 2.65982C28.4608 3.17203 28.8755 3.75942 29.1811 4.41618C29.2529 4.56994 29.3373 4.60534 29.492 4.60098C32.1636 4.52628 34.8353 4.45643 37.5074 4.38513C39.6867 4.32741 41.866 4.26921 44.0453 4.21149C47.4033 4.12175 50.7608 4.03202 54.1188 3.94277C55.2567 3.9127 56.3951 3.88553 57.5335 3.85789C57.5796 3.85692 57.6261 3.86371 57.6834 3.86759H57.6839ZM21.2806 3.09248C19.0785 3.13808 17.1257 3.81472 15.4111 5.16363C15.0197 5.47164 14.9396 5.93534 15.2156 6.28991C15.4931 6.6469 15.9645 6.69395 16.354 6.38838C17.6544 5.36881 19.1256 4.78578 20.7733 4.66889C22.096 4.57479 23.33 4.83623 24.3859 5.68845C24.8181 6.03769 25.1246 6.46501 25.1435 7.06162C25.1552 7.42637 25.486 7.71837 25.8464 7.74651C26.214 7.77512 26.5594 7.5457 26.6457 7.18143C26.6855 7.0136 26.6836 6.82783 26.6608 6.65515C26.5361 5.70106 26.0113 4.98222 25.2774 4.40599C24.0997 3.48149 22.7309 3.12304 21.2811 3.09248H21.2806Z" fill="black"/>
<path d="M22.0352 17.0329V15.5205H23.5645V17.0329H22.0352Z" fill="black"/>
<path d="M17.3838 18.6001H15.8477V17.0693H17.377V18.6069L17.3838 18.6001Z" fill="black"/>
<path d="M17.375 18.6069H18.9126V20.1387H17.3823C17.3823 19.625 17.3823 19.1123 17.3823 18.6001L17.3755 18.6069H17.375Z" fill="black"/>
<path d="M20.4922 20.1643H22.0143V21.6907H20.4922V20.1643Z" fill="black"/>
<path d="M17.3906 23.2386V21.7175H18.9117V23.2386H17.3906Z" fill="black"/>
<path d="M15.84 26.34V24.8193H17.3611V26.34H15.84Z" fill="black"/>
<path d="M22.043 27.8901V26.3695H23.5641V27.8901H22.043Z" fill="black"/>
<path d="M18.9108 29.4529H17.3984V27.9236H18.9108V29.4529Z" fill="black"/>
</g>
<path opacity="0.11" d="M54 68.2C52.92 68.2 52.0933 67.8933 51.52 67.28C50.9467 66.6667 50.66 65.8 50.66 64.68V57.32C50.66 56.2 50.9467 55.3333 51.52 54.72C52.0933 54.1067 52.92 53.8 54 53.8C55.08 53.8 55.9067 54.1067 56.48 54.72C57.0533 55.3333 57.34 56.2 57.34 57.32V64.68C57.34 65.8 57.0533 66.6667 56.48 67.28C55.9067 67.8933 55.08 68.2 54 68.2ZM54 66.2C54.76 66.2 55.14 65.74 55.14 64.82V57.18C55.14 56.26 54.76 55.8 54 55.8C53.24 55.8 52.86 56.26 52.86 57.18V64.82C52.86 65.74 53.24 66.2 54 66.2ZM61.9078 57.32H59.6078V55.76C60.2345 55.76 60.7345 55.7067 61.1078 55.6C61.4945 55.4933 61.8011 55.32 62.0278 55.08C62.2545 54.8267 62.4545 54.4667 62.6278 54H64.1078V68H61.9078V57.32Z" fill="black"/>
<defs>
<clipPath id="clip0_299_3335">
<rect width="43.4039" height="37.2157" fill="white" transform="translate(0.648438 33.7108)"/>
</clipPath>
<clipPath id="clip1_299_3335">
<rect width="46.5121" height="29.453" fill="white" transform="translate(11.1719)"/>
</clipPath>
</defs>
</svg>
