<svg width="123" height="32" viewBox="0 0 123 32" fill="none" xmlns="http://www.w3.org/2000/svg">
<path d="M47.34 17.24V23H43.5V9H47.34V14.04H51.84V9H55.68V23H51.84V17.24H47.34ZM58.6558 26.58V24.22C59.0824 24.3267 59.4224 24.38 59.6758 24.38C60.1158 24.38 60.4558 24.26 60.6958 24.02C60.8958 23.82 61.0424 23.5267 61.1358 23.14L61.2358 22.72L57.0758 12.84H61.0358L63.0358 19.18L64.9558 12.84H68.5158L64.9558 23.2C64.5158 24.52 64.0891 25.3867 63.6758 25.8C63.0091 26.4667 62.0158 26.8 60.6958 26.8C59.9758 26.8 59.2958 26.7267 58.6558 26.58ZM73.3611 21.94V23H69.9211V9H73.5611V13.78C73.8278 13.4333 74.1678 13.1533 74.5811 12.94C75.1811 12.62 75.8944 12.46 76.7211 12.46C77.9878 12.46 79.0478 12.8933 79.9011 13.76C80.8611 14.76 81.3411 16.1333 81.3411 17.88C81.3411 19.6933 80.8744 21.0933 79.9411 22.08C79.1278 22.9467 78.0344 23.38 76.6611 23.38C75.8478 23.38 75.1278 23.2067 74.5011 22.86C74.0744 22.6067 73.7078 22.3 73.4011 21.94H73.3611ZM73.4011 17.9C73.4011 18.9533 73.6078 19.7467 74.0211 20.28C74.3811 20.7733 74.8678 21.02 75.4811 21.02C76.1078 21.02 76.6078 20.7733 76.9811 20.28C77.3944 19.6933 77.6011 18.8733 77.6011 17.82C77.6011 16.7267 77.3411 15.92 76.8211 15.4C76.4878 15.0667 76.0544 14.9 75.5211 14.9C74.9744 14.9 74.5278 15.0733 74.1811 15.42C73.6611 15.9 73.4011 16.7267 73.4011 17.9ZM90.9367 12.54V15.16C90.6434 15.12 90.3434 15.1 90.0367 15.1C89.0634 15.1 88.3234 15.3533 87.8167 15.86C87.2701 16.4067 86.9967 17.4667 86.9967 19.04V23H83.3567V12.84H86.8967V14.38C87.2167 13.7933 87.6434 13.3467 88.1767 13.04C88.7501 12.7067 89.4367 12.54 90.2367 12.54H90.9367ZM92.5188 12.84H96.1588V23H92.5188V12.84ZM92.5188 11.5V9H96.1588V11.5H92.5188ZM109.649 23H106.109V21.94C105.429 22.9 104.396 23.38 103.009 23.38C101.569 23.38 100.436 22.9267 99.6092 22.02C98.7026 21.0333 98.2492 19.72 98.2492 18.08C98.2492 16.48 98.6826 15.14 99.5492 14.06C100.403 12.9933 101.576 12.46 103.069 12.46C104.389 12.46 105.369 12.9 106.009 13.78V9H109.649V23ZM106.149 17.86C106.149 16.94 105.956 16.2067 105.569 15.66C105.209 15.1533 104.716 14.9 104.089 14.9C103.529 14.9 103.083 15.1 102.749 15.5C102.243 16.0867 101.989 16.9333 101.989 18.04C101.989 19.1733 102.249 19.9933 102.769 20.5C103.116 20.8467 103.549 21.02 104.069 21.02C104.589 21.02 105.016 20.84 105.349 20.48C105.883 19.8933 106.149 19.02 106.149 17.86ZM111.545 19.72H115.165C115.099 20.2 115.225 20.5867 115.545 20.88C115.812 21.12 116.232 21.24 116.805 21.24C117.272 21.24 117.645 21.1533 117.925 20.98C118.219 20.7933 118.365 20.52 118.365 20.16C118.365 19.8133 118.219 19.5533 117.925 19.38C117.685 19.2333 117.212 19.1067 116.505 19L115.465 18.84C114.065 18.6133 113.125 18.2733 112.645 17.82C112.125 17.3267 111.865 16.6867 111.865 15.9C111.865 15.0467 112.159 14.3133 112.745 13.7C113.585 12.86 114.972 12.44 116.905 12.44C118.625 12.44 119.872 12.84 120.645 13.64C121.152 14.1467 121.425 14.8267 121.465 15.68H118.305C118.305 15.32 118.199 15.0333 117.985 14.82C117.745 14.58 117.359 14.46 116.825 14.46C116.332 14.46 115.965 14.5533 115.725 14.74C115.472 14.9267 115.345 15.1667 115.345 15.46C115.345 15.7667 115.465 15.9933 115.705 16.14C115.932 16.2867 116.325 16.4067 116.885 16.5L118.345 16.72C119.692 16.92 120.639 17.3 121.185 17.86C121.665 18.38 121.905 19.0267 121.905 19.8C121.905 20.7333 121.612 21.4933 121.025 22.08C120.159 22.9467 118.705 23.38 116.665 23.38C114.639 23.38 113.225 22.9333 112.425 22.04C111.852 21.4 111.559 20.6267 111.545 19.72Z" fill="black"/>
<path d="M16 0C7.17773 0 0 7.17773 0 16C0 24.8223 7.17773 32 16 32C24.8223 32 32 24.8223 32 16C32 7.17773 24.8223 0 16 0ZM30.5893 16C30.5893 16.4802 30.5657 16.9554 30.5197 17.4244H16.9728V30.5557C16.6518 30.5769 16.3272 30.5893 16 30.5893C15.6728 30.5893 15.3494 30.5769 15.0272 30.5557V17.4244H1.48033C1.4343 16.9554 1.41067 16.4802 1.41067 16C1.41067 15.8258 1.4144 15.6529 1.42062 15.48H15.0272V1.44426C15.3482 1.42311 15.6728 1.41067 16 1.41067C16.3272 1.41067 16.6506 1.42311 16.9728 1.44426V15.48H30.5794C30.5856 15.6529 30.5893 15.8258 30.5893 16Z" fill="black"/>
</svg>
