<svg width="103" height="33" viewBox="0 0 103 33" fill="none" xmlns="http://www.w3.org/2000/svg">
<path d="M3.86367 16.4021H0L3.46711 0H7.33078L5.99516 6.16079H11.9903L13.3259 0H17.1896L13.7253 16.4021H9.86158L11.3377 9.34864H5.33974L3.86367 16.4021Z" fill="white"/>
<path d="M32.7177 0L35.3862 16.4021H31.3821L30.9827 13.3328H25.0344L23.3243 16.4021H19.1797L28.8072 0H32.7177ZM30.7266 10.5444L29.906 4.2872L26.4416 10.5444H30.7266Z" fill="white"/>
<path d="M44.4722 0H52.4116C56.5809 0 57.4236 2.36678 57.4236 4.09985C57.4236 6.13875 56.088 8.45869 53.7472 8.90229L53.7251 8.97117C54.7551 9.32384 55.4353 9.9548 55.4353 11.1506C55.4353 11.5969 55.3665 12.0874 55.0828 13.4705C54.9203 14.1979 54.8239 14.8068 54.8239 15.3441C54.8239 15.6968 54.9424 16.0467 55.1048 16.3994H51.1696C51.0043 16.0467 50.9107 15.6968 50.9107 15.3221C50.9107 14.8289 50.9795 14.2668 51.1448 13.6358C51.3568 12.6743 51.4257 12.2059 51.4257 11.8559C51.4257 10.4507 49.9496 10.4507 49.1317 10.4507H46.1355L44.8715 16.4021H41.0078L44.4722 0ZM46.7909 7.2629H50.3269C52.5052 7.2629 53.3231 6.09191 53.3231 5.06144C53.3231 3.86565 52.6677 3.18785 50.9107 3.18785H47.6556L46.7882 7.26565L46.7909 7.2629Z" fill="white"/>
<path d="M68.1925 4.49936H68.1457L65.6645 16.4021H61.8008L65.2651 0H70.861L72.2902 11.2691L78.1918 0H83.9529L80.4885 16.4021H76.6248L79.1997 4.49936H79.1281L72.852 16.4021H69.6906L68.1925 4.49936Z" fill="white"/>
<path d="M99.4794 0L102.148 16.4021H98.1438L97.7445 13.3328H91.7961L90.086 16.4021H85.9414L95.5689 0H99.4794ZM97.4884 10.5444L96.6677 4.2872L93.2006 10.5444H97.4856H97.4884Z" fill="white"/>
<path d="M24.25 27.7813H24.8641L24.5557 26.7673L24.25 27.7813Z" fill="white"/>
<path d="M15.2681 26.3958H14.6953V27.0626H15.2709C15.3397 27.0626 15.4581 27.0571 15.5435 26.9799C15.5958 26.9359 15.6481 26.8532 15.6481 26.7182C15.6481 26.6466 15.6344 26.5529 15.56 26.4812C15.4719 26.3986 15.3452 26.3931 15.2709 26.3931L15.2681 26.3958Z" fill="white"/>
<path d="M41.4791 26.3958H40.9062V27.0626H41.4818C41.5507 27.0626 41.6691 27.0571 41.7544 26.9799C41.8068 26.9359 41.8563 26.8532 41.8563 26.7182C41.8563 26.6466 41.8426 26.5529 41.7682 26.4812C41.6801 26.3986 41.5534 26.3931 41.4791 26.3931V26.3958Z" fill="white"/>
<path d="M66.5337 26.3958H65.9609V27.0626H66.5365C66.6053 27.0626 66.7238 27.0571 66.8091 26.9799C66.8615 26.9359 66.911 26.8532 66.911 26.7182C66.911 26.6466 66.8973 26.5529 66.8229 26.4812C66.7348 26.3986 66.6081 26.3931 66.5337 26.3931V26.3958Z" fill="white"/>
<path d="M10.6445 27.7813H11.2586L10.9502 26.7673L10.6445 27.7813Z" fill="white"/>
<path d="M102.075 25.7923C101.56 25.7895 101.056 25.6435 100.538 25.6903C100.45 25.6352 100.359 25.6545 100.268 25.6821C100.001 25.7344 100.15 25.9604 100.095 26.1009C99.9983 26.1147 99.9019 26.1284 99.8027 26.1422C99.7779 26.1339 99.7532 26.1229 99.7284 26.1147C99.5218 26.28 99.5081 26.404 99.6816 26.5996C99.6981 26.6409 99.7091 26.7126 99.7284 26.7126C99.9459 26.7346 100.026 26.8613 100.018 27.0652C100.018 27.0845 100.084 27.1066 100.122 27.1258C100.108 27.2278 100.169 27.2691 100.26 27.2801C100.398 27.2939 100.533 27.316 100.67 27.3215C100.874 27.3297 101.039 27.3545 100.984 27.6328C100.962 27.743 100.992 27.8725 101.169 27.8036C101.262 27.8036 101.359 27.7706 101.441 27.8422C101.345 28.8286 101.251 29.815 101.155 30.8014C101.108 30.8014 101.061 30.7959 101.017 30.7931C100.907 30.6774 100.891 30.5424 100.91 30.3853C100.979 29.7819 101.039 29.1785 101.086 28.5751C101.094 28.4539 101.199 28.2417 100.921 28.2445C100.802 28.2335 100.687 28.2197 100.568 28.2087C100.406 28.115 100.373 28.2307 100.354 28.3492C100.334 28.4622 100.315 28.5779 100.32 28.6908C100.334 29.0215 100.202 29.1207 99.8688 29.0711C99.2933 28.9884 99.2905 29.0077 99.2547 29.578C99.0702 29.5698 98.8885 29.556 98.7039 29.556C98.3955 29.556 98.2743 29.432 98.4065 29.1289C98.5635 29.0848 98.7673 29.2832 98.8829 29.0352C98.9105 28.9195 98.938 28.8011 98.9656 28.6853C99.1611 28.7046 99.3538 28.7377 99.5494 28.7432C99.6705 28.7459 99.8303 28.8534 99.9019 28.6523H99.9101C100.064 28.509 100.18 27.8312 100.075 27.6769C100.031 27.6135 99.9625 27.6053 99.8909 27.6246C99.811 27.6135 99.7284 27.6025 99.6485 27.5942C99.643 27.4647 99.7504 27.3215 99.5962 27.214C99.5852 27.192 99.5714 27.1699 99.5604 27.1451C99.5576 27.1231 99.5604 27.0845 99.5521 27.0818C99.0895 26.9192 98.6158 26.8751 98.1284 26.9385C98.1174 26.9385 98.1146 26.9798 98.1063 26.9991H98.1036C97.853 27.0459 97.9962 27.327 97.8475 27.4289C97.7456 27.4289 97.6437 27.4289 97.5418 27.4207C96.9387 27.3683 97.0626 27.3545 96.958 27.8477C96.823 27.834 96.6881 27.8174 96.5504 27.8036C96.3081 27.7045 96.3411 27.9083 96.3301 28.0213C96.2227 29.0352 96.1236 30.0492 96.0244 31.0659C96.0134 31.1706 95.9638 31.3056 96.1428 31.3331C96.2502 31.6445 96.5311 31.5012 96.7239 31.5178C97.0241 31.5453 97.1039 31.639 96.9855 31.909L96.2943 31.8456C96.0988 31.6913 95.9749 31.7492 95.9363 31.9834C95.917 32.0991 95.8895 32.2093 95.8234 32.3058C95.7298 32.314 95.6334 32.3223 95.5535 32.2534C95.548 32.2231 95.5453 32.1928 95.5397 32.1625C95.5425 32.1322 95.5453 32.1019 95.548 32.0688C95.5535 32.0302 95.5563 31.9917 95.559 31.9531C95.5645 31.9007 95.57 31.8456 95.5755 31.7933C95.6306 31.6665 95.6416 31.537 95.6141 31.402C95.6361 30.9593 95.4764 30.7472 95.1349 30.7656C95.0661 30.7573 95 30.7518 94.9311 30.7435C94.8568 30.6829 94.7714 30.6994 94.6861 30.7022L94.5842 30.6746C94.4602 30.5754 94.3088 30.614 94.1711 30.5865C94.1793 30.4928 94.1849 30.3991 94.1904 30.3054C94.4602 30.3302 94.7301 30.3633 95 30.3798C95.1074 30.3853 95.2754 30.4129 95.1928 30.198C95.2093 30.1318 95.2231 30.0657 95.2396 29.9996C95.3993 29.961 95.3635 29.8233 95.3718 29.7186C95.3883 29.5312 95.3442 29.3163 95.6664 29.3879C95.7821 29.4127 95.8454 29.308 95.8344 29.184C95.8427 29.1124 95.8509 29.0408 95.8564 28.9691C95.9033 28.8369 95.917 28.7046 95.8978 28.5669L95.906 28.4814C95.9638 28.2335 95.9611 28.2307 95.8041 28.239C95.7132 28.2307 95.6196 28.2224 95.5287 28.2114C95.5012 28.1453 95.4489 28.137 95.3938 28.1728C95.3332 28.2142 95.2974 28.2665 95.3718 28.3327C95.3607 28.4236 95.347 28.5145 95.3332 28.6054C95.1157 28.5861 94.9009 28.5613 94.6833 28.5503C94.5704 28.5448 94.4272 28.4622 94.3611 28.6385C94.328 28.9333 94.2454 29.1758 93.8626 29.1041C93.8489 29.1041 93.8296 29.1317 93.8131 29.1455C93.7663 29.1565 93.758 29.184 93.7773 29.2254C93.6892 30.063 93.59 30.9006 93.5184 31.7409C93.4936 32.0357 93.389 32.1377 93.1081 32.033C93.1329 31.7823 93.1687 31.5315 93.1797 31.2808C93.1852 31.1733 93.2293 30.997 93.0062 31.0218C92.8905 31.0108 92.7721 30.9998 92.6565 30.9887C92.6372 30.9419 92.6041 30.9199 92.5601 30.9502C92.5188 30.9805 92.5243 31.019 92.5656 31.0521C92.5601 31.3414 92.5105 31.5811 92.125 31.4241C92.1608 31.1045 92.1415 30.7738 92.2874 30.4707C92.4719 30.4763 92.6565 30.479 92.841 30.4845C92.9373 30.5479 93.0365 30.5369 93.1329 30.4845C93.3477 30.3908 93.3559 30.2751 93.1714 30.1346L93.1026 30.0244C93.0558 29.8701 92.9181 29.9087 92.8162 29.8977C92.3012 29.8425 91.7862 29.7929 91.274 29.7434C91.0096 29.7186 90.6929 29.7599 90.7563 29.3246C90.7563 29.3108 90.6847 29.2832 90.6461 29.2639C90.5277 29.2391 90.4121 29.2143 90.2936 29.1868L90.357 28.7487C90.5167 28.7487 90.6792 28.7487 90.8389 28.7487C90.938 28.8396 91.1088 28.7432 91.1914 28.8782C91.1694 28.9746 91.1281 29.0738 91.1914 29.1703C91.2107 29.2529 91.2658 29.308 91.3401 29.3466C91.4861 29.5477 91.6485 29.5698 91.8303 29.3934L91.8964 29.3631C92.1718 29.41 92.4472 29.5147 92.7308 29.3962C93.0007 29.3604 92.7997 29.1041 92.9153 28.9994C92.9594 28.9884 93.0062 28.9801 93.0503 28.9691C93.1246 29.0325 93.199 28.9994 93.2733 28.9636C93.4138 28.7763 93.59 28.6357 93.8021 28.5421L93.8103 28.5338C93.9838 28.0985 94.3418 28.239 94.6668 28.2583C94.7329 28.2638 94.8045 28.2583 94.8651 28.2362C94.9367 28.2059 94.9642 28.1453 94.8953 28.0764C94.9807 27.7265 94.8265 27.6025 94.485 27.6025C94.2206 27.6025 93.9535 27.5667 93.6919 27.5309C93.4799 27.5006 93.3972 27.5832 93.3835 27.7871C93.3725 27.9938 93.3339 28.1976 93.3091 28.4043C93.0723 28.3822 92.8327 28.3602 92.5959 28.3382C92.5105 28.3299 92.4417 28.2996 92.4417 28.1949C92.4417 28.0929 92.494 28.0544 92.5904 28.0571C92.6785 28.0599 92.7804 28.0819 92.8107 27.9579C92.9043 27.856 92.8768 27.721 92.9126 27.6025C93.02 27.5088 92.9594 27.4758 92.8602 27.4565C92.6317 27.4317 92.4031 27.4124 92.1773 27.3793C91.9818 27.3518 91.8606 27.4069 91.8633 27.6246C91.8633 27.8092 91.7725 27.8532 91.599 27.8367C91.409 27.8174 91.3346 27.7403 91.3676 27.5474C91.4007 27.3573 91.42 27.1644 91.442 26.9716C91.5191 26.9771 91.5769 26.9578 91.5797 26.8669L91.5356 26.8007C91.7367 26.8421 91.9404 26.8696 92.147 26.8531C93.0337 27.0156 93.937 27.0542 94.832 27.1479C95.347 27.203 95.8619 27.2939 96.3824 27.2719C96.4403 27.2801 96.4733 27.2553 96.4733 27.1947C96.5008 27.079 96.5284 26.966 96.5587 26.8503C96.6743 26.8613 96.79 26.8751 96.9057 26.8861C97.0103 26.9936 97.0323 26.9164 97.0489 26.8228L97.0737 26.4839C97.0516 26.3075 96.947 26.3075 96.8148 26.3654C96.1373 26.28 95.4654 26.1643 94.7797 26.1808C94.6117 26.1174 94.5594 25.9934 94.5842 25.8281L94.6172 25.6711C94.6365 25.66 94.6503 25.6408 94.653 25.6187C95.559 25.7096 96.465 25.8006 97.3683 25.8942C97.5528 25.9135 97.696 25.8915 97.6988 25.6656C97.7043 25.4286 97.8392 25.4093 98.0265 25.4617C98.1449 25.5829 98.211 25.5526 98.233 25.3928C98.2771 25.0824 98.1495 24.9115 97.8502 24.8803C97.2416 24.8197 96.6303 24.7646 96.0217 24.7012C95.8372 24.6819 95.6912 24.7012 95.694 24.9326C95.6967 25.1558 95.5563 25.1586 95.391 25.142C94.9091 25.0897 94.4272 25.0401 93.9425 24.9905C93.8269 24.8886 93.7194 24.8252 93.6644 25.0401C93.6754 25.4451 93.4551 25.4809 93.1136 25.4286C92.5931 25.3515 92.5876 25.3707 92.516 25.8832C91.7312 25.8033 90.9491 25.7262 90.1642 25.6463C90.0596 25.5498 90.0348 25.6187 90.021 25.7151C90.0017 25.8281 89.9797 25.9411 89.9604 26.054C89.9522 26.0596 89.9384 26.0678 89.9384 26.0733C89.9384 26.0899 89.9467 26.1092 89.9522 26.1257C89.9412 26.2414 89.9301 26.3544 89.9164 26.4701C89.9081 26.5032 89.8998 26.5362 89.8888 26.5693C89.7814 26.674 89.6603 26.6051 89.5446 26.5941C89.4179 26.5555 89.3656 26.6023 89.3849 26.7318C89.3353 27.1562 89.2885 27.5832 89.2389 28.0075L89.1535 28.0709C88.9993 28.0957 88.746 27.9745 88.7405 28.2362C88.7322 28.5613 88.5394 28.5338 88.3329 28.5338C88.1429 28.5255 88.1539 28.6716 88.1374 28.79C88.1043 29.0242 88.0768 29.2612 88.0465 29.4981C87.9721 29.4981 87.895 29.5036 87.8207 29.5064L87.7546 29.4981L87.672 29.4623C87.6857 28.9691 87.7463 28.4814 87.8152 27.9938C87.9171 27.9938 88.0217 27.9882 88.1236 27.9855C88.1456 27.9855 88.1677 27.991 88.1924 27.9938C88.388 27.9221 88.3164 27.7678 88.3081 27.6328C88.3274 27.6135 88.3274 27.5915 88.3081 27.5722C88.8176 27.4592 88.8203 27.4592 88.8782 26.8751C88.9029 26.6382 88.9112 26.4012 88.9277 26.1643C88.947 26.0513 88.8699 26.0237 88.7845 26.0155C88.2337 25.9576 87.683 25.9053 87.1322 25.8502C86.9918 25.8364 86.9064 25.9053 86.9009 26.0403C86.8926 26.269 86.7852 26.3213 86.5649 26.302C86.3584 26.2855 86.1408 26.1643 85.937 26.3186C85.8021 26.4866 85.7938 26.8145 85.4413 26.7015C85.3339 27.0101 85.0778 27.1589 84.8024 27.2884C84.7914 27.3711 84.7777 27.4537 84.7666 27.5391C84.6565 27.6163 84.5381 27.6301 84.4086 27.608C84.3095 27.5915 84.2021 27.6218 84.1883 27.7237C84.1525 28.0103 84.0258 28.2968 84.1663 28.5889C84.2847 28.7459 84.5436 28.633 84.6372 28.8341L84.6234 29.1069C84.6179 29.1565 84.64 29.1813 84.6895 29.1785C84.7804 29.1923 84.8685 29.2033 84.9594 29.2171C85.0172 29.3273 85.042 29.4403 85.031 29.567C85.02 29.691 85.0668 29.7874 85.2265 29.7461C85.2899 29.7544 85.356 29.7626 85.4193 29.7709C85.4854 29.9114 85.5515 30.1071 85.4138 30.1814C85.1852 30.3054 84.9181 30.187 84.6675 30.1622C84.5243 30.1484 84.5463 30.0189 84.5546 29.9142C84.5656 29.7654 84.5105 29.6497 84.3563 29.6469C84.1195 29.6442 84.0727 29.5284 84.0975 29.3163C84.1167 29.1344 83.9818 29.0931 83.8248 29.0793C83.6651 29.0628 83.5329 29.0931 83.5219 29.275C83.5026 29.5946 83.4338 29.9087 83.442 30.2365C83.4503 30.5121 83.5467 30.8317 83.2658 31.0576L83.3429 30.2724C83.2217 30.3082 83.1419 30.3633 83.0482 30.3302C82.9546 30.2035 83.0014 30.0657 83.0124 29.9307C83.029 29.702 83.0565 29.4733 83.0785 29.2447C83.0895 29.1124 83.04 29.027 82.8995 28.9967C82.7591 28.9636 82.6902 28.9801 82.5911 29.0986C82.5663 29.2143 82.5388 29.3301 82.514 29.443C82.2827 29.4265 82.0541 29.4127 81.8228 29.3907C81.6906 29.3797 81.5336 29.3962 81.5584 29.173C81.5777 28.9967 81.6493 28.9223 81.8255 28.9526C82.0348 28.9857 82.1257 28.8865 82.1202 28.6826C82.1202 28.5834 82.1505 28.4677 82.2634 28.4897C82.7095 28.5806 82.6765 28.2555 82.7205 27.9938C82.8417 27.9882 82.9656 27.98 83.0868 27.9745C83.3484 27.834 83.1942 27.5694 83.263 27.3711C83.3016 27.2609 83.252 27.0735 83.4338 27.09C83.7174 27.1176 83.8441 27.0239 83.8413 26.7401C83.8413 26.6492 83.9295 26.6134 83.9928 26.5665L84.1801 26.5803C84.4086 26.3792 84.629 26.1643 84.9264 26.0568C84.9374 26.0513 84.9429 26.0127 84.9429 25.9907C84.9374 25.7758 85.0393 25.7096 85.2486 25.7317C85.4524 25.7537 85.4937 25.6104 85.5074 25.4424C85.5212 25.2688 85.4523 25.1806 85.2816 25.1641C84.9236 25.131 84.5656 25.098 84.2076 25.0594C84.0396 25.0401 83.9267 25.1007 83.9184 25.2715C83.9074 25.5002 83.7835 25.5333 83.5935 25.503C83.4338 25.4782 83.2713 25.4672 83.1088 25.4562C83.0152 25.4479 82.9133 25.4424 82.9326 25.5912L82.894 25.8502C82.8086 25.8832 82.715 25.8915 82.6296 25.9135C82.2744 26.0045 82.1505 26.4398 81.7704 26.5032C81.7897 26.8696 81.5364 26.8228 81.3023 26.809C81.3161 26.6354 81.3271 26.4618 81.3408 26.291C81.3601 26.0788 81.3216 25.8391 81.6878 25.8942C82.0321 25.9466 81.787 25.4589 82.0706 25.4258C82.1174 25.4203 82.1642 25.4258 82.2083 25.4314C82.3625 25.4479 82.4672 25.379 82.4699 25.2275C82.4754 24.9685 82.6269 24.963 82.8224 24.9933C82.9601 25.0153 83.0978 25.0236 83.2383 25.0374C83.3842 25.0539 83.5109 25.0098 83.5136 24.85C83.5191 24.5497 83.6981 24.569 83.9129 24.5882C85.4826 24.748 87.0523 24.9023 88.6193 25.0539C88.7515 25.0677 88.8947 25.1393 89.0158 25.0153C89.0902 24.985 89.115 24.9216 89.1205 24.85C89.1563 24.4643 89.8282 24.6819 89.7511 24.1887C89.8172 24.1777 89.8861 24.1529 89.9522 24.1612C90.1504 24.186 90.2276 24.0868 90.2441 23.9077C90.2606 23.7341 90.2193 23.6046 90.0183 23.5908C89.8751 23.5798 89.7566 23.5385 89.7814 23.3677C89.8145 23.1362 89.7098 23.0508 89.4923 23.0453C89.3821 23.0425 89.3105 22.9654 89.327 22.8634C89.3876 22.5328 89.1756 22.5025 88.936 22.4915C88.7983 22.4832 88.6578 22.4667 88.5202 22.4501C88.3632 22.4281 88.3577 22.3179 88.3687 22.1912C88.3797 22.0699 88.4265 21.9873 88.5587 22.001C88.9387 22.0369 89.4014 21.9597 89.6768 22.1498C89.8888 22.2959 90.1091 22.6044 90.2578 22.8689C90.3487 23.026 90.3955 23.1279 90.558 23.2437C90.8004 23.4172 90.8692 23.7947 91.1914 23.927C91.106 24.3044 91.3649 24.31 91.6182 24.3292C91.8964 24.3513 92.1745 24.3788 92.4499 24.4091C92.6124 24.4284 92.7363 24.3871 92.7391 24.2053C92.7446 23.9793 92.8658 23.938 93.0585 23.9655C93.2072 23.9876 93.3587 23.9903 93.5102 24.0096C93.6726 24.0289 93.7993 23.9903 93.8076 23.8113C93.8186 23.555 93.97 23.5467 94.1628 23.5771C94.3005 23.5991 94.441 23.5991 94.5787 23.6211C94.7577 23.6514 94.854 23.5771 94.8513 23.4062C94.8458 23.1472 94.9945 23.1445 95.1928 23.1638C95.884 23.2244 95.884 23.2189 95.9694 22.5438C95.9694 22.5328 95.9721 22.5218 95.9721 22.508C95.9721 22.3262 96.0409 22.2215 96.2447 22.26C96.443 22.2959 96.5284 22.1967 96.5284 22.0121C96.5284 21.7999 96.6385 21.7751 96.8203 21.7889C97.473 21.833 97.5308 21.8302 97.6244 21.2847H0V33.0001H102.152V25.7537C102.127 25.7592 102.099 25.773 102.075 25.8033V25.7923ZM8.24231 28.9553H7.22063V27.6273H6.30634V28.9553H5.28466V25.5774H6.30634V26.7401H7.22063V25.5774H8.24231V28.9553ZM11.6103 28.9553L11.4616 28.4787H10.4454L10.2967 28.9553H9.23645L10.4509 25.5774H11.4588L12.6733 28.9553H11.613H11.6103ZM15.653 28.9553C15.5511 28.7955 15.5456 28.6853 15.54 28.5393L15.5318 28.3354C15.5263 28.1949 15.5373 28.002 15.4161 27.8863C15.3225 27.7954 15.1683 27.7844 15.0554 27.7844H14.7001V28.9526H13.6784V25.5746H15.529C15.7356 25.5746 16.0826 25.6022 16.3387 25.8502C16.5645 26.0678 16.6196 26.3516 16.6196 26.6216C16.6196 26.8338 16.5783 27.0515 16.4048 27.2305C16.3304 27.3022 16.2313 27.3711 16.1101 27.4041V27.4289C16.2505 27.4675 16.369 27.5557 16.4433 27.6549C16.5645 27.8229 16.57 27.9938 16.5755 28.1811L16.5838 28.4566C16.5893 28.6357 16.5975 28.7707 16.6994 28.9526H15.6557L15.653 28.9553ZM21.8491 28.9553H20.9211V26.9963L20.9431 26.7401L20.9211 26.7346L20.2657 28.9553H19.5194L18.864 26.7346L18.8419 26.7401L18.864 26.9963V28.9553H17.9359V25.5774H19.3239L19.8526 27.4895L19.8801 27.721H19.9022L19.9352 27.4895L20.4612 25.5774H21.8491V28.9553ZM25.2171 28.9553L25.0684 28.4787H24.0522L23.9035 28.9553H22.8433L24.0577 25.5774H25.0657L26.2801 28.9553H25.2199H25.2171ZM30.3283 28.9553H29.3066L28.3042 27.0818H28.2822L28.3042 27.338V28.9553H27.2825V25.5774H28.3042L29.3066 27.451H29.3286L29.3066 27.1947V25.5774H30.3283V28.9553ZM34.8143 27.6907C34.8143 28.013 34.7923 28.3409 34.4949 28.6523C34.2002 28.9609 33.7789 29.049 33.2997 29.049C32.8205 29.049 32.3909 28.9609 32.0963 28.6523C31.8154 28.3575 31.7768 28.0296 31.7768 27.6879V25.5801H32.804V27.6466C32.804 27.7816 32.8233 27.9552 32.9307 28.0709C33.0436 28.1921 33.1978 28.2004 33.297 28.2004C33.3961 28.2004 33.5503 28.1894 33.6632 28.0709C33.7706 27.9552 33.7899 27.7816 33.7899 27.6466V25.5801H34.8171V27.6934L34.8143 27.6907ZM38.7909 26.5032H37.8629V28.9553H36.8412V26.5032H35.9131V25.5774H38.7909V26.5032ZM41.867 28.9553C41.7651 28.7955 41.7596 28.6853 41.7541 28.5393L41.7458 28.3354C41.7403 28.1949 41.7513 28.002 41.6274 27.8863C41.5338 27.7954 41.3795 27.7844 41.2666 27.7844H40.9114V28.9526H39.8897V25.5746H41.7403C41.9468 25.5746 42.2938 25.6022 42.5499 25.8502C42.7757 26.0678 42.8308 26.3516 42.8308 26.6216C42.8308 26.8338 42.7895 27.0515 42.616 27.2305C42.5417 27.3022 42.4425 27.3711 42.3214 27.4041V27.4289C42.4618 27.4675 42.5802 27.5557 42.6546 27.6549C42.7757 27.8229 42.7812 27.9938 42.7868 28.1811L42.795 28.4566C42.8005 28.6357 42.8088 28.7707 42.9134 28.9526H41.8697L41.867 28.9553ZM45.1744 28.9553H44.1527V25.5774H45.1744V28.9553ZM49.385 28.9553H46.6256V25.5774H49.3465V26.4701H47.6446V26.8503H49.1014V27.6466H47.6446V28.0626H49.3823V28.9553H49.385ZM53.6948 28.9553H52.6731L51.6707 27.0818H51.6487L51.6707 27.338V28.9553H50.649V25.5774H51.6707L52.6731 27.451H52.6952L52.6731 27.1947V25.5774H53.6948V28.9553ZM57.6714 26.5032H56.7433V28.9553H55.7217V26.5032H54.7936V25.5774H57.6714V26.5032ZM61.1275 28.6908C60.7998 29.0325 60.271 29.0628 59.9709 29.0628C59.6487 29.0628 59.1475 29.0297 58.8225 28.6826C58.6545 28.5035 58.5168 28.1949 58.5141 27.8422H59.5413C59.533 27.9882 59.5826 28.1315 59.6542 28.2087C59.7726 28.3382 59.9543 28.3437 60.0535 28.3437C60.1526 28.3437 60.2545 28.3327 60.3426 28.272C60.4142 28.2224 60.4638 28.1453 60.4638 28.0296C60.4638 27.9276 60.4308 27.8505 60.3426 27.7871C60.2545 27.7237 60.0672 27.6769 59.9598 27.6521L59.6321 27.5832C59.1695 27.4868 58.9382 27.338 58.8225 27.225C58.649 27.0652 58.5691 26.8641 58.5691 26.5886C58.5691 26.1505 58.795 25.9025 58.9547 25.773C59.2686 25.5223 59.6679 25.4892 59.9626 25.4892C60.216 25.4892 60.6841 25.514 60.9843 25.7785C61.1468 25.9245 61.3065 26.1946 61.3203 26.5417H60.3564C60.3564 26.4591 60.3344 26.3681 60.282 26.3103C60.2352 26.2579 60.1416 26.2028 59.9626 26.2028C59.8772 26.2028 59.7506 26.2166 59.6817 26.2607C59.6211 26.2993 59.5688 26.3764 59.5688 26.4591C59.5688 26.5059 59.5771 26.5693 59.6349 26.6244C59.7148 26.707 59.8635 26.7318 60.1086 26.7842L60.428 26.8558C60.6483 26.9054 60.9705 26.9853 61.1908 27.214C61.3037 27.3297 61.4442 27.5419 61.4442 27.8698C61.4442 28.1976 61.3092 28.5062 61.1357 28.6908H61.1275ZM63.5591 28.9553H62.5622V27.9607H63.5591V28.9553ZM66.9189 28.9553C66.817 28.7955 66.8115 28.6853 66.8059 28.5393L66.7977 28.3354C66.7922 28.1949 66.8032 28.002 66.6793 27.8863C66.5856 27.7954 66.4314 27.7844 66.3185 27.7844H65.9633V28.9526H64.9416V25.5746H66.7922C66.9987 25.5746 67.3457 25.6022 67.6018 25.8502C67.8276 26.0678 67.8827 26.3516 67.8827 26.6216C67.8827 26.8338 67.8414 27.0515 67.6679 27.2305C67.5936 27.3022 67.4944 27.3711 67.3732 27.4041V27.4289C67.5137 27.4675 67.6321 27.5557 67.7065 27.6549C67.8276 27.8229 67.8331 27.9938 67.8386 28.1811L67.8469 28.4566C67.8524 28.6357 67.8607 28.7707 67.9653 28.9526H66.9216L66.9189 28.9553ZM72.2393 27.6907C72.2393 28.013 72.2173 28.3409 71.9199 28.6523C71.6252 28.9609 71.2039 29.049 70.7247 29.049C70.2455 29.049 69.8159 28.9609 69.5213 28.6523C69.2404 28.3575 69.2018 28.0296 69.2018 27.6879V25.5801H70.229V27.6466C70.229 27.7816 70.2483 27.9552 70.3557 28.0709C70.4686 28.1921 70.6228 28.2004 70.7219 28.2004C70.8211 28.2004 70.9753 28.1894 71.0882 28.0709C71.1956 27.9552 71.2149 27.7816 71.2149 27.6466V25.5801H72.2421V27.6934L72.2393 27.6907Z" fill="white"/>
</svg>
