<svg width="94" height="33" viewBox="0 0 94 33" fill="none" xmlns="http://www.w3.org/2000/svg">
<path d="M53.62 19.78V23H43.5V9H47.34V19.78H53.62ZM60.2164 23.38C58.3897 23.38 57.0297 22.9533 56.1364 22.1C55.1231 21.1667 54.6164 19.82 54.6164 18.06C54.6164 16.34 55.1231 14.9733 56.1364 13.96C57.1364 12.96 58.5564 12.46 60.3964 12.46C62.1831 12.46 63.5764 12.9133 64.5764 13.82C65.6031 14.7933 66.1164 16.1467 66.1164 17.88C66.1164 19.56 65.6031 20.9133 64.5764 21.94C63.5764 22.9 62.1231 23.38 60.2164 23.38ZM60.3364 21.02C60.9231 21.02 61.3897 20.8067 61.7364 20.38C62.1631 19.8733 62.3764 19.0467 62.3764 17.9C62.3764 16.82 62.1697 16.0067 61.7564 15.46C61.4231 15.02 60.9564 14.8 60.3564 14.8C59.7831 14.8 59.3231 15.02 58.9764 15.46C58.5631 15.9933 58.3564 16.8067 58.3564 17.9C58.3564 19.02 58.5631 19.8467 58.9764 20.38C59.3097 20.8067 59.7631 21.02 60.3364 21.02ZM71.7019 12.84V13.96C71.9952 13.6133 72.4019 13.2867 72.9219 12.98C73.5219 12.66 74.2352 12.5 75.0619 12.5C76.2219 12.5 77.1152 12.8 77.7419 13.4C78.1552 13.8 78.4285 14.2667 78.5619 14.8C78.7085 15.32 78.7819 15.9733 78.7819 16.76V23H75.1419V17.34C75.1419 16.3533 74.9885 15.7067 74.6819 15.4C74.4685 15.1467 74.1552 15.02 73.7419 15.02C73.2085 15.02 72.7885 15.2 72.4819 15.56C72.0685 15.9733 71.8619 16.6533 71.8619 17.6V23H68.2219V12.84H71.7019ZM81.7259 23.68H85.1459C85.1993 23.9733 85.3393 24.2067 85.5659 24.38C85.8593 24.58 86.2593 24.68 86.7659 24.68C87.3659 24.68 87.7993 24.5467 88.0659 24.28C88.3993 23.9467 88.5659 23.38 88.5659 22.58V21.62H88.4659C88.1726 21.9133 87.8326 22.1533 87.4459 22.34C86.9126 22.58 86.2859 22.7 85.5659 22.7C84.1659 22.7 83.0593 22.2867 82.2459 21.46C81.3393 20.54 80.8859 19.2533 80.8859 17.6C80.8859 15.9467 81.3459 14.66 82.2659 13.74C83.0926 12.9133 84.1993 12.5 85.5859 12.5C86.3059 12.5 86.9259 12.6267 87.4459 12.88C87.8726 13.08 88.2593 13.3933 88.6059 13.82H88.6859V12.84H92.1859V22.02C92.1859 22.78 92.1126 23.4467 91.9659 24.02C91.8193 24.6067 91.5059 25.14 91.0259 25.62C90.1459 26.5 88.7459 26.94 86.8259 26.94C84.9059 26.94 83.5326 26.5267 82.7059 25.7C82.1993 25.1933 81.8726 24.52 81.7259 23.68ZM84.6459 17.62C84.6459 18.5267 84.8459 19.2267 85.2459 19.72C85.6326 20.1467 86.1126 20.36 86.6859 20.36C87.3393 20.36 87.8326 20.1267 88.1659 19.66C88.5126 19.18 88.6859 18.4933 88.6859 17.6C88.6859 16.72 88.5059 16.0533 88.1459 15.6C87.7859 15.1333 87.2926 14.9 86.6659 14.9C86.0793 14.9 85.5793 15.1467 85.1659 15.64C84.8193 16.08 84.6459 16.74 84.6459 17.62Z" fill="black"/>
<path d="M27.319 5.68623C24.2948 2.6645 20.275 1 16 1C11.725 1 7.7052 2.6645 4.68099 5.68623C-1.56033 11.925 -1.56033 22.0762 4.68099 28.3138C7.70396 31.3355 11.7238 33 16 33C20.2762 33 24.2948 31.3355 27.319 28.3138C33.5603 22.075 33.5603 11.9238 27.319 5.68623ZM27.5194 8.03868C27.4422 7.9404 27.3638 7.84213 27.2842 7.74634C27.3638 7.84337 27.4422 7.9404 27.5194 8.03868ZM30.5884 17.0927C30.5909 16.6672 30.5747 16.2405 30.5411 15.8163C30.5759 16.2418 30.5909 16.6672 30.5884 17.0927ZM30.5361 15.7653C30.5249 15.6384 30.5137 15.5115 30.4988 15.3846C30.5125 15.5115 30.5249 15.6384 30.5361 15.7653ZM30.3731 14.4889C30.3507 14.3583 30.3258 14.2289 30.2997 14.0983C30.3258 14.2277 30.3507 14.3583 30.3731 14.4889ZM30.286 14.0287C30.2623 13.9142 30.2374 13.7998 30.2101 13.6853C30.2362 13.7998 30.2611 13.9142 30.286 14.0287ZM30.1951 13.6156C30.1304 13.3432 30.0582 13.0708 29.9773 12.802C30.0582 13.072 30.1304 13.3432 30.1951 13.6156ZM29.8255 12.3256C29.7906 12.2236 29.7558 12.1203 29.7185 12.0183C29.7558 12.1203 29.7906 12.2223 29.8255 12.3256ZM29.6849 11.9263C29.6438 11.813 29.6002 11.7011 29.5554 11.5891C29.6002 11.7011 29.6425 11.813 29.6849 11.9263ZM29.3551 11.1114C29.3065 11.0007 29.2555 10.89 29.2045 10.7793C29.2567 10.89 29.3065 10.9995 29.3551 11.1114ZM29.1547 10.6773C29.1111 10.5864 29.0663 10.4956 29.0215 10.4061C29.0676 10.4956 29.1111 10.5864 29.1547 10.6773ZM28.5362 9.52404C28.4752 9.42079 28.4117 9.31878 28.3482 9.21677C28.4129 9.31878 28.4752 9.42079 28.5362 9.52404ZM28.0396 8.74902C27.9836 8.66691 27.9251 8.58481 27.8678 8.50395C27.9263 8.58481 27.9836 8.66691 28.0396 8.74902ZM27.7969 8.40567C27.7148 8.29371 27.6314 8.18174 27.5455 8.07103C27.6314 8.18174 27.7148 8.29246 27.7969 8.40567ZM27.1958 7.63811C27.1336 7.56471 27.0713 7.49131 27.0079 7.41791C27.0713 7.49131 27.1336 7.56346 27.1958 7.63811ZM26.6183 6.98748C26.5225 6.88547 26.4254 6.78595 26.3259 6.68643C26.4254 6.78595 26.5225 6.88672 26.6183 6.98748ZM26.3209 27.3136C23.5643 30.0691 19.8991 31.5868 16 31.5868C12.1009 31.5868 8.43574 30.0691 5.67911 27.3136C-0.0121313 21.6247 -0.0121313 12.3691 5.67911 6.68021C8.43574 3.9247 12.1009 2.40699 16 2.40699C19.573 2.40699 22.9495 3.68211 25.6103 6.0159C22.148 2.98422 17.583 1.86708 13.3068 2.66326C12.6273 3.11235 11.9814 3.63235 11.384 4.23073C6.58264 9.03017 6.58264 16.8128 11.384 21.6122C16.1854 26.4117 23.9712 26.4117 28.7726 21.6122C29.3712 21.0138 29.8915 20.3694 30.3407 19.6902C30.3669 19.5521 30.3905 19.4128 30.4117 19.2747C29.9499 22.2205 28.5872 25.0507 26.3221 27.3148L26.3209 27.3136ZM26.3172 6.67648C26.2176 6.57695 26.1168 6.47992 26.0147 6.38413C26.1168 6.47992 26.2176 6.5782 26.3172 6.67648ZM25.9301 6.30451C25.8492 6.22987 25.7683 6.15523 25.6849 6.08183C25.7671 6.15523 25.8492 6.22863 25.9301 6.30451ZM30.5884 17.1001C30.5884 17.237 30.5847 17.3738 30.5797 17.5107C30.5847 17.3738 30.5871 17.237 30.5884 17.1001ZM30.5784 17.5443C30.5573 18.114 30.5025 18.6825 30.4154 19.2461C30.5025 18.6813 30.5573 18.1128 30.5784 17.5443Z" fill="black"/>
</svg>
