<svg width="189" height="66" viewBox="0 0 189 66" fill="none" xmlns="http://www.w3.org/2000/svg">
<g clip-path="url(#clip0_331_4364)">
<path d="M109.932 38.701V45.3423H89.1836V16.4673H97.0564V38.701H109.932Z" fill="black"/>
<path d="M123.456 46.126C119.711 46.126 116.922 45.246 115.091 43.486C113.013 41.561 111.975 38.7835 111.975 35.1535C111.975 31.606 113.013 28.7873 115.091 26.6973C117.141 24.6348 120.052 23.6035 123.825 23.6035C127.488 23.6035 130.344 24.5385 132.395 26.4085C134.499 28.416 135.552 31.2073 135.552 34.7823C135.552 38.2473 134.499 41.0385 132.395 43.156C130.344 45.136 127.365 46.126 123.456 46.126ZM123.702 41.2585C124.904 41.2585 125.861 40.8185 126.572 39.9385C127.447 38.8935 127.884 37.1885 127.884 34.8235C127.884 32.596 127.46 30.9185 126.613 29.791C125.93 28.8835 124.973 28.4298 123.743 28.4298C122.567 28.4298 121.624 28.8835 120.913 29.791C120.066 30.891 119.642 32.5685 119.642 34.8235C119.642 37.1335 120.066 38.8385 120.913 39.9385C121.597 40.8185 122.526 41.2585 123.702 41.2585Z" fill="black"/>
<path d="M147.003 24.3873V26.6973C147.605 25.9823 148.438 25.3085 149.504 24.676C150.735 24.016 152.197 23.686 153.892 23.686C156.27 23.686 158.102 24.3048 159.386 25.5423C160.234 26.3673 160.794 27.3298 161.068 28.4298C161.368 29.5023 161.519 30.8498 161.519 32.4723V45.3423H154.056V33.6685C154.056 31.6335 153.742 30.2998 153.113 29.6673C152.675 29.1448 152.033 28.8835 151.186 28.8835C150.092 28.8835 149.231 29.2548 148.602 29.9973C147.755 30.8498 147.331 32.2523 147.331 34.2048V45.3423H139.868V24.3873H147.003Z" fill="black"/>
<path d="M167.555 46.7448H174.566C174.676 47.3498 174.963 47.831 175.427 48.1885C176.029 48.601 176.849 48.8073 177.888 48.8073C179.118 48.8073 180.006 48.5323 180.553 47.9823C181.236 47.2948 181.578 46.126 181.578 44.476V42.496H181.373C180.772 43.101 180.075 43.596 179.282 43.981C178.188 44.476 176.904 44.7235 175.427 44.7235C172.557 44.7235 170.288 43.871 168.621 42.166C166.762 40.2685 165.832 37.6148 165.832 34.2048C165.832 30.7948 166.776 28.141 168.662 26.2435C170.357 24.5385 172.625 23.686 175.468 23.686C176.945 23.686 178.216 23.9473 179.282 24.4698C180.157 24.8823 180.949 25.5285 181.66 26.4085H181.824V24.3873H189V43.321C189 44.8885 188.849 46.2635 188.549 47.446C188.248 48.656 187.606 49.756 186.621 50.746C184.817 52.561 181.947 53.4685 178.011 53.4685C174.074 53.4685 171.259 52.616 169.564 50.911C168.525 49.866 167.855 48.4773 167.555 46.7448ZM173.541 34.246C173.541 36.116 173.951 37.5598 174.771 38.5773C175.564 39.4573 176.548 39.8973 177.724 39.8973C179.063 39.8973 180.075 39.416 180.758 38.4535C181.469 37.4635 181.824 36.0473 181.824 34.2048C181.824 32.3898 181.455 31.0148 180.717 30.0798C179.979 29.1173 178.967 28.636 177.683 28.636C176.48 28.636 175.455 29.1448 174.607 30.1623C173.897 31.0698 173.541 32.431 173.541 34.246Z" fill="black"/>
<path d="M56.0096 9.63264C49.8093 3.40032 41.5678 -0.0327148 32.8033 -0.0327148C24.0387 -0.0327148 15.7972 3.40032 9.59699 9.63264C-3.199 22.5001 -3.199 43.437 9.59699 56.3019C15.7947 62.5342 24.0362 65.9673 32.8033 65.9673C41.5704 65.9673 49.8093 62.5342 56.0096 56.3019C68.8055 43.4345 68.8055 22.4975 56.0096 9.63264ZM56.4203 14.4846C56.2622 14.2819 56.1014 14.0792 55.9381 13.8816C56.1014 14.0817 56.2622 14.2819 56.4203 14.4846ZM62.7124 33.1584C62.7175 32.2809 62.6844 31.4009 62.6155 30.5259C62.6869 31.4034 62.7175 32.2809 62.7124 33.1584ZM62.6053 30.4207C62.5823 30.159 62.5594 29.8973 62.5287 29.6356C62.5568 29.8973 62.5823 30.159 62.6053 30.4207ZM62.271 27.7882C62.2251 27.5188 62.1741 27.252 62.1205 26.9826C62.1741 27.2494 62.2251 27.5188 62.271 27.7882ZM62.0924 26.8389C62.0439 26.6028 61.9929 26.3668 61.9368 26.1307C61.9904 26.3668 62.0414 26.6028 62.0924 26.8389ZM61.9062 25.987C61.7735 25.4251 61.6255 24.8632 61.4596 24.309C61.6255 24.8658 61.7735 25.4251 61.9062 25.987ZM61.1484 23.3263C61.0769 23.1159 61.0055 22.9029 60.9289 22.6925C61.0055 22.9029 61.0769 23.1133 61.1484 23.3263ZM60.86 22.5027C60.7758 22.2692 60.6865 22.0383 60.5947 21.8074C60.6865 22.0383 60.7733 22.2692 60.86 22.5027ZM60.1839 20.8221C60.0844 20.5937 59.9797 20.3654 59.8751 20.137C59.9823 20.3654 60.0844 20.5912 60.1839 20.8221ZM59.7731 19.9266C59.6838 19.7393 59.5919 19.552 59.5001 19.3673C59.5945 19.552 59.6838 19.7393 59.7731 19.9266ZM58.505 17.5481C58.3799 17.3352 58.2498 17.1248 58.1197 16.9144C58.2523 17.1248 58.3799 17.3352 58.505 17.5481ZM57.4869 15.9496C57.3721 15.7803 57.2521 15.6109 57.1348 15.4442C57.2547 15.6109 57.3721 15.7803 57.4869 15.9496ZM56.9893 15.2415C56.8209 15.0106 56.65 14.7796 56.4739 14.5513C56.65 14.7796 56.8209 15.008 56.9893 15.2415ZM55.7569 13.6584C55.6294 13.507 55.5018 13.3556 55.3717 13.2042C55.5018 13.3556 55.6294 13.5044 55.7569 13.6584ZM54.573 12.3165C54.3766 12.1061 54.1775 11.9008 53.9734 11.6955C54.1775 11.9008 54.3766 12.1086 54.573 12.3165ZM53.9632 54.239C48.3115 59.9223 40.7973 63.0525 32.8033 63.0525C24.8093 63.0525 17.295 59.9223 11.6433 54.239C-0.0248717 42.5056 -0.0248717 23.4161 11.6433 11.6827C17.295 5.99947 24.8093 2.8692 32.8033 2.8692C40.1287 2.8692 47.0511 5.49914 52.5063 10.3126C45.4079 4.05973 36.0488 1.75565 27.2817 3.39776C25.8886 4.32401 24.5643 5.39651 23.3396 6.63066C13.4958 16.5295 13.4958 32.5811 23.3396 42.48C33.1835 52.3788 49.1459 52.3788 58.9898 42.48C60.217 41.2458 61.2836 39.9167 62.2047 38.5158C62.2583 38.231 62.3068 37.9436 62.3501 37.6588C61.4035 43.7346 58.6096 49.5718 53.9658 54.2416L53.9632 54.239ZM53.9556 11.675C53.7514 11.4698 53.5448 11.2696 53.3355 11.0721C53.5448 11.2696 53.7514 11.4723 53.9556 11.675ZM53.162 10.9078C52.9962 10.7539 52.8303 10.5999 52.6594 10.4486C52.8278 10.5999 52.9962 10.7513 53.162 10.9078ZM62.7124 33.1738C62.7124 33.4561 62.7048 33.7383 62.6946 34.0205C62.7048 33.7383 62.7099 33.4561 62.7124 33.1738ZM62.692 34.0898C62.6487 35.265 62.5364 36.4375 62.3578 37.5998C62.5364 36.435 62.6487 35.2624 62.692 34.0898Z" fill="black"/>
</g>
<defs>
<clipPath id="clip0_331_4364">
<rect width="189" height="66" fill="white"/>
</clipPath>
</defs>
</svg>
