<svg width="205" height="66" viewBox="0 0 205 66" fill="none" xmlns="http://www.w3.org/2000/svg">
<path d="M87.9668 37.9916H95.9188C95.8639 39.3116 96.1935 40.3703 96.9076 41.1678C97.6493 41.9928 98.9403 42.4053 100.781 42.4053C102.154 42.4053 103.253 42.1578 104.077 41.6628C104.983 41.1403 105.436 40.3291 105.436 39.2291C105.436 38.3216 105.011 37.6066 104.159 37.0841C103.967 36.9741 103.651 36.8503 103.212 36.7128C102.8 36.5753 102.346 36.4378 101.852 36.3003L101.069 36.0941L98.1025 35.4341C97.9652 35.4066 97.5669 35.3241 96.9076 35.1866C96.2759 35.0216 95.8364 34.9116 95.5892 34.8566C95.342 34.7741 94.9437 34.6503 94.3943 34.4853C93.845 34.2928 93.4055 34.1278 93.0759 33.9903C92.7737 33.8253 92.4166 33.6191 92.0046 33.3716C91.62 33.1241 91.2767 32.8628 90.9745 32.5878C89.4363 31.1853 88.6672 29.3016 88.6672 26.9366C88.6672 24.1866 89.766 21.9728 91.9634 20.2953C94.0784 18.6178 96.9489 17.7791 100.575 17.7791C104.2 17.7791 106.933 18.4666 108.774 19.8416C110.861 21.4641 111.988 23.7328 112.152 26.6478H104.695C104.667 25.6578 104.31 24.9153 103.624 24.4203C102.964 23.8978 101.934 23.6366 100.533 23.6366C99.2974 23.6366 98.3085 23.8978 97.5669 24.4203C96.8802 24.9153 96.5368 25.4791 96.5368 26.1116C96.5368 26.8816 96.7978 27.4866 97.3197 27.9266C97.3746 27.9816 97.4295 28.0366 97.4845 28.0916C97.5669 28.1191 97.6356 28.1603 97.6905 28.2153C97.7729 28.2428 97.869 28.2841 97.9789 28.3391C98.0888 28.3666 98.1849 28.3941 98.2673 28.4216C98.3497 28.4491 98.4733 28.4903 98.6381 28.5453C98.8029 28.5728 98.9403 28.6003 99.0502 28.6278C99.1875 28.6553 99.366 28.6966 99.5858 28.7516C99.833 28.8066 100.039 28.8616 100.204 28.9166C100.396 28.9441 100.643 28.9991 100.945 29.0816C101.275 29.1366 101.55 29.1916 101.769 29.2466L105.024 29.9891C107.579 30.6491 109.488 31.5153 110.752 32.5878C112.4 34.0453 113.224 36.0116 113.224 38.4866C113.224 41.2366 112.29 43.4916 110.422 45.2516C108.197 47.2866 104.901 48.3041 100.533 48.3041C96.2484 48.3041 93.0347 47.2866 90.8921 45.2516C88.9419 43.2991 87.9668 40.8791 87.9668 37.9916Z" fill="black"/>
<path d="M124.827 18.5628V28.5866C125.623 27.7066 126.475 27.0466 127.381 26.6066C128.48 26.0566 129.771 25.7816 131.254 25.7816C133.617 25.7816 135.526 26.4003 136.981 27.6378C138.355 28.9853 139.042 31.2953 139.042 34.5678V47.4378H131.584V35.6816V34.8153C131.584 33.3578 131.268 32.3128 130.636 31.6803C130.169 31.2128 129.496 30.9791 128.617 30.9791C127.684 30.9791 126.887 31.3091 126.228 31.9691C125.294 32.9041 124.827 34.4578 124.827 36.6303V47.4378H117.328V18.5628H124.827Z" fill="black"/>
<path d="M154.914 48.2216C151.151 48.2216 148.349 47.3416 146.509 45.5816C144.421 43.6566 143.377 40.8791 143.377 37.2491C143.377 33.7016 144.421 30.8828 146.509 28.7928C148.569 26.7303 151.494 25.6991 155.285 25.6991C158.965 25.6991 161.836 26.6341 163.896 28.5041C166.011 30.5116 167.068 33.3028 167.068 36.8778C167.068 40.3428 166.011 43.1341 163.896 45.2516C161.836 47.2316 158.842 48.2216 154.914 48.2216ZM155.161 43.3541C156.37 43.3541 157.331 42.9141 158.045 42.0341C158.924 40.9891 159.364 39.2841 159.364 36.9191C159.364 34.6916 158.938 33.0141 158.086 31.8866C157.4 30.9791 156.438 30.5253 155.202 30.5253C154.021 30.5253 153.073 30.9791 152.359 31.8866C151.508 32.9866 151.082 34.6641 151.082 36.9191C151.082 39.2291 151.508 40.9341 152.359 42.0341C153.046 42.9141 153.98 43.3541 155.161 43.3541Z" fill="black"/>
<path d="M186.857 25.8641V31.2678C186.252 31.1853 185.634 31.1441 185.003 31.1441C182.997 31.1441 181.473 31.6666 180.429 32.7116C179.303 33.8391 178.74 36.0253 178.74 39.2703V47.4378H171.241V26.4828H178.534V29.6591C179.193 28.4491 180.072 27.5278 181.171 26.8953C182.352 26.2078 183.766 25.8641 185.415 25.8641H186.857Z" fill="black"/>
<path d="M189.302 31.4328V26.4828H193.093V20.2541H200.55V26.4828H205V31.4328H200.55V39.9303C200.55 41.0028 200.715 41.7453 201.045 42.1578C201.457 42.5703 202.13 42.7766 203.064 42.7766C203.64 42.7766 204.286 42.6666 205 42.4466V47.4791C203.27 47.8641 201.608 48.0566 200.015 48.0566C197.515 48.0566 195.716 47.5478 194.617 46.5303C193.601 45.5678 193.093 43.9041 193.093 41.5391V31.4328H189.302Z" fill="black"/>
<path d="M32.9617 0C14.7869 0 0 14.8041 0 33C0 51.1959 14.7869 66 32.9617 66C51.1365 66 65.9233 51.1959 65.9233 33C65.9233 14.8041 51.1365 0 32.9617 0ZM54.204 11.7329C54.204 11.7329 54.1886 11.7175 54.181 11.7098C54.1886 11.7175 54.1963 11.7252 54.204 11.7329ZM2.90612 33C2.90612 16.4076 16.3886 2.9095 32.9617 2.9095C37.8821 2.9095 42.5283 4.09998 46.6338 6.20642C42.5308 4.09998 37.8821 2.9095 32.9617 2.9095V63.0905C16.3886 63.0905 2.90612 49.5924 2.90612 33Z" fill="black"/>
</svg>
