<svg width="100" height="32" viewBox="0 0 100 32" fill="none" xmlns="http://www.w3.org/2000/svg">
<path d="M42.7 18.42H46.56C46.5333 19.06 46.6933 19.5733 47.04 19.96C47.4 20.36 48.0267 20.56 48.92 20.56C49.5867 20.56 50.12 20.44 50.52 20.2C50.96 19.9467 51.18 19.5533 51.18 19.02C51.18 18.58 50.9733 18.2333 50.56 17.98C50.4667 17.9267 50.3133 17.8667 50.1 17.8C49.9 17.7333 49.68 17.6667 49.44 17.6L49.06 17.5L47.62 17.18C47.5533 17.1667 47.36 17.1267 47.04 17.06C46.7333 16.98 46.52 16.9267 46.4 16.9C46.28 16.86 46.0867 16.8 45.82 16.72C45.5533 16.6267 45.34 16.5467 45.18 16.48C45.0333 16.4 44.86 16.3 44.66 16.18C44.4733 16.06 44.3067 15.9333 44.16 15.8C43.4133 15.12 43.04 14.2067 43.04 13.06C43.04 11.7267 43.5733 10.6533 44.64 9.84C45.6667 9.02667 47.06 8.62 48.82 8.62C50.58 8.62 51.9067 8.95333 52.8 9.62C53.8133 10.4067 54.36 11.5067 54.44 12.92H50.82C50.8067 12.44 50.6333 12.08 50.3 11.84C49.98 11.5867 49.48 11.46 48.8 11.46C48.2 11.46 47.72 11.5867 47.36 11.84C47.0267 12.08 46.86 12.3533 46.86 12.66C46.86 13.0333 46.9867 13.3267 47.24 13.54C47.2667 13.5667 47.2933 13.5933 47.32 13.62C47.36 13.6333 47.3933 13.6533 47.42 13.68C47.46 13.6933 47.5067 13.7133 47.56 13.74C47.6133 13.7533 47.66 13.7667 47.7 13.78C47.74 13.7933 47.8 13.8133 47.88 13.84C47.96 13.8533 48.0267 13.8667 48.08 13.88C48.1467 13.8933 48.2333 13.9133 48.34 13.94C48.46 13.9667 48.56 13.9933 48.64 14.02C48.7333 14.0333 48.8533 14.06 49 14.1C49.16 14.1267 49.2933 14.1533 49.4 14.18L50.98 14.54C52.22 14.86 53.1467 15.28 53.76 15.8C54.56 16.5067 54.96 17.46 54.96 18.66C54.96 19.9933 54.5067 21.0867 53.6 21.94C52.52 22.9267 50.92 23.42 48.8 23.42C46.72 23.42 45.16 22.9267 44.12 21.94C43.1733 20.9933 42.7 19.82 42.7 18.42ZM60.5923 9V13.86C60.979 13.4333 61.3923 13.1133 61.8323 12.9C62.3657 12.6333 62.9923 12.5 63.7123 12.5C64.859 12.5 65.7857 12.8 66.4923 13.4C67.159 14.0533 67.4923 15.1733 67.4923 16.76V23H63.8723V17.3V16.88C63.8723 16.1733 63.719 15.6667 63.4123 15.36C63.1857 15.1333 62.859 15.02 62.4323 15.02C61.979 15.02 61.5923 15.18 61.2723 15.5C60.819 15.9533 60.5923 16.7067 60.5923 17.76V23H56.9523V9H60.5923ZM75.1969 23.38C73.3702 23.38 72.0102 22.9533 71.1169 22.1C70.1035 21.1667 69.5969 19.82 69.5969 18.06C69.5969 16.34 70.1035 14.9733 71.1169 13.96C72.1169 12.96 73.5369 12.46 75.3769 12.46C77.1635 12.46 78.5569 12.9133 79.5569 13.82C80.5835 14.7933 81.0969 16.1467 81.0969 17.88C81.0969 19.56 80.5835 20.9133 79.5569 21.94C78.5569 22.9 77.1035 23.38 75.1969 23.38ZM75.3169 21.02C75.9035 21.02 76.3702 20.8067 76.7169 20.38C77.1435 19.8733 77.3569 19.0467 77.3569 17.9C77.3569 16.82 77.1502 16.0067 76.7369 15.46C76.4035 15.02 75.9369 14.8 75.3369 14.8C74.7635 14.8 74.3035 15.02 73.9569 15.46C73.5435 15.9933 73.3369 16.8067 73.3369 17.9C73.3369 19.02 73.5435 19.8467 73.9569 20.38C74.2902 20.8067 74.7435 21.02 75.3169 21.02ZM90.7023 12.54V15.16C90.409 15.12 90.109 15.1 89.8023 15.1C88.829 15.1 88.089 15.3533 87.5823 15.86C87.0357 16.4067 86.7623 17.4667 86.7623 19.04V23H83.1223V12.84H86.6623V14.38C86.9823 13.7933 87.409 13.3467 87.9423 13.04C88.5157 12.7067 89.2023 12.54 90.0023 12.54H90.7023ZM91.8894 15.24V12.84H93.7294V9.82H97.3494V12.84H99.5094V15.24H97.3494V19.36C97.3494 19.88 97.4294 20.24 97.5894 20.44C97.7894 20.64 98.116 20.74 98.5694 20.74C98.8494 20.74 99.1627 20.6867 99.5094 20.58V23.02C98.6694 23.2067 97.8627 23.3 97.0894 23.3C95.876 23.3 95.0027 23.0533 94.4694 22.56C93.976 22.0933 93.7294 21.2867 93.7294 20.14V15.24H91.8894Z" fill="black"/>
<path d="M16 0C7.17773 0 0 7.17773 0 16C0 24.8223 7.17773 32 16 32C24.8223 32 32 24.8223 32 16C32 7.17773 24.8223 0 16 0ZM26.3113 5.6887C26.3113 5.6887 26.3038 5.68123 26.3001 5.6775C26.3038 5.68123 26.3076 5.68496 26.3113 5.6887ZM1.41067 16C1.41067 7.95522 7.95522 1.41067 16 1.41067C18.3884 1.41067 20.6438 1.98787 22.6366 3.00917C20.645 1.98787 18.3884 1.41067 16 1.41067V30.5893C7.95522 30.5893 1.41067 24.0448 1.41067 16Z" fill="black"/>
</svg>
